<svg width="19" height="27" viewBox="0 0 19 27" fill="none" xmlns="http://www.w3.org/2000/svg">
<path d="M18.3959 21.3046C18.1726 21.3046 17.9916 21.4738 17.9916 21.6825V25.2358C17.9916 25.3508 17.8915 25.4444 17.7685 25.4444H15.5955V18.0019C15.5955 17.7932 15.4146 17.624 15.1913 17.624C14.9681 17.624 14.7871 17.7932 14.7871 18.0019V25.4445H10.4115L11.6804 24.1394C11.819 23.9968 11.8844 23.7936 11.8553 23.5958C11.8547 23.592 11.8541 23.5881 11.8534 23.5843L10.6449 16.9092L10.9705 16.451C11.1505 16.5705 11.2891 16.6856 11.5492 16.6856C11.8137 16.6856 12.061 16.5472 12.1827 16.3193V16.3192L13.4574 13.9307L16.3611 14.9821C16.4661 15.0243 17.9915 15.6665 17.9915 17.3625V19.9188C17.9915 20.1275 18.1725 20.2967 18.3958 20.2967C18.619 20.2967 18.8 20.1275 18.8 19.9188V17.3625C18.8 15.128 16.7536 14.3157 16.6665 14.2822C16.664 14.2812 16.6614 14.2802 16.6588 14.2793L11.8261 12.5295V11.4697C12.5936 10.9116 13.1259 10.0843 13.2595 9.14034C13.6422 9.11515 13.9973 8.98151 14.2873 8.74835C14.666 8.44384 14.8834 8.00066 14.8834 7.53263C14.8834 7.14422 14.7335 6.77334 14.4664 6.48435V5.08435C14.4663 2.50163 12.219 0.400391 9.45656 0.400391C6.69418 0.400391 4.44682 2.50163 4.44682 5.08435V6.52104C4.17686 6.8071 4.03005 7.15923 4.03005 7.53258C4.03005 8.00076 4.24725 8.44389 4.62608 8.74845C4.91588 8.98151 5.27079 9.115 5.65339 9.14024C5.78808 10.1018 6.33582 10.96 7.16879 11.5257V12.5295L2.34127 14.2793C2.33873 14.2802 2.3362 14.2811 2.33367 14.2821C2.24652 14.3156 0.200195 15.1279 0.200195 17.3624V25.2357C0.200195 25.7675 0.663 26.2002 1.23187 26.2002H5.08312C5.30636 26.2002 5.48734 26.031 5.48734 25.8223C5.48734 25.6136 5.30636 25.4444 5.08312 25.4444H4.2134V18.0019C4.2134 17.7932 4.03242 17.624 3.80918 17.624C3.58594 17.624 3.40496 17.7932 3.40496 18.0019V25.4445H1.23193C1.10888 25.4445 1.00874 25.3509 1.00874 25.2358V17.3624C1.00874 15.6608 2.5444 15.02 2.63872 14.9823L5.54016 13.9306L6.81491 16.3192C6.93687 16.5477 7.18453 16.6856 7.44851 16.6856C7.70726 16.6856 7.84459 16.5723 8.02724 16.451L8.35283 16.9092L7.14443 23.5844C7.14373 23.5881 7.14313 23.5919 7.14254 23.5957C7.11333 23.7935 7.17871 23.9967 7.31738 24.1394L8.58625 25.4445H6.96964C6.7464 25.4445 6.56542 25.6137 6.56542 25.8225C6.56542 26.0312 6.7464 26.2004 6.96964 26.2004H17.7685C18.3374 26.2004 18.8002 25.7676 18.8002 25.2358V21.6826C18.8001 21.4738 18.6191 21.3046 18.3959 21.3046ZM12.7002 13.6566L11.5118 15.8834C11.4823 15.8638 10.8525 15.4454 10.0827 14.9343C10.4167 14.5488 10.0259 14.9998 11.5505 13.2403L12.7002 13.6566ZM10.3109 16.0131L10.0027 16.4468H8.99468L8.6865 16.0131L9.49871 15.4737L10.3109 16.0131ZM7.97717 12.6514V11.9441C8.46827 12.1292 8.99311 12.215 9.50566 12.215C10.0356 12.215 10.5553 12.1094 11.0176 11.9204V12.6545L9.49871 14.4073L7.97717 12.6514ZM14.0749 7.53263C14.0748 7.7802 13.9601 8.01446 13.7602 8.17526C13.628 8.28159 13.4683 8.34956 13.2934 8.37617V6.68924C13.758 6.75979 14.0749 7.12008 14.0749 7.53263ZM5.61998 8.37617C5.15011 8.30487 4.83849 7.94165 4.83849 7.53258C4.83849 7.12855 5.19673 6.7997 5.61998 6.70824V8.37617ZM5.6417 5.93812C5.51294 5.95193 5.36537 5.98453 5.25537 6.0195V5.08435C5.25537 2.91841 7.14001 1.1563 9.45662 1.1563C11.7732 1.1563 13.6579 2.91841 13.6579 5.08435V5.99355C13.5404 5.96014 13.4185 5.93807 13.2934 5.92769C13.2934 5.56301 13.2968 5.63336 12.0208 4.35076C11.7862 4.11504 11.398 4.06565 11.1026 4.2461C9.6943 5.10622 7.97637 5.53832 6.39128 5.43189C6.0436 5.40756 5.72691 5.62167 5.6417 5.93812ZM6.42847 8.67373V6.31585V6.19163C8.17336 6.28717 10.0027 5.80252 11.4806 4.91761C12.0658 5.50506 12.3827 5.8132 12.4849 5.93041C12.4849 6.22691 12.4849 8.33429 12.4849 8.67367C12.4849 10.2079 11.1469 11.4591 9.50572 11.4591C7.6628 11.4591 6.42847 10.1225 6.42847 8.67373ZM7.48564 15.8834L6.29729 13.6566L7.4449 13.241L8.91308 14.9354C8.16646 15.4311 7.55339 15.8384 7.48564 15.8834ZM7.94942 23.6658L9.11945 17.2026H9.87782L11.0478 23.6658L9.49866 25.2593L7.94942 23.6658Z" fill="white"/>
</svg>
