<svg width="23" height="24" viewBox="0 0 23 24" fill="none" xmlns="http://www.w3.org/2000/svg">
<mask id="path-1-outside-1" maskUnits="userSpaceOnUse" x="0" y="0" width="23" height="24" fill="black">
<rect fill="white" width="23" height="24"/>
<path d="M1.00291 6.69215C1.04419 6.57408 1.09622 6.46005 1.15835 6.35149C1.22799 6.24796 1.32276 6.16379 1.4338 6.10688C1.54483 6.04997 1.66849 6.02216 1.7932 6.02607H8.13662L8.14388 6.01154C8.12603 6.00063 8.1076 5.99069 8.08868 5.98176C7.77348 5.84756 7.47509 5.67691 7.1996 5.4733C6.87781 5.22778 6.59816 4.94595 6.44707 4.5588C6.35897 4.33781 6.32461 4.09906 6.34683 3.8622C6.34984 3.82278 6.36068 3.78436 6.37872 3.74919C6.39676 3.71402 6.42164 3.68279 6.4519 3.65736C6.48216 3.63192 6.51719 3.61278 6.55495 3.60105C6.5927 3.58933 6.63241 3.58526 6.67176 3.58907C6.71111 3.59289 6.7493 3.60453 6.78409 3.62329C6.81888 3.64206 6.84958 3.66758 6.87439 3.69836C6.89919 3.72914 6.9176 3.76456 6.92854 3.80255C6.93949 3.84054 6.94273 3.88033 6.9381 3.91959C6.92533 4.19444 7.01987 4.46349 7.20178 4.66993C7.36946 4.86927 7.57142 5.03703 7.79813 5.16532C8.40102 5.52342 9.06129 5.73189 9.73755 5.89169L9.75716 5.87063C9.73538 5.8587 9.71472 5.84484 9.69541 5.82922C8.97582 5.16744 8.45723 4.3163 8.19909 3.37335C8.07342 2.91647 8.02694 2.45086 8.14461 1.98453C8.26228 1.5182 8.53104 1.17027 9.01626 1.04024C9.31219 0.970539 9.62243 0.993875 9.90461 1.10707C10.364 1.27487 10.7773 1.54861 11.1111 1.90608C11.3363 2.13997 11.531 2.40292 11.7394 2.65207C11.7532 2.66877 11.7656 2.68548 11.7859 2.7109L11.8484 2.62374C12.1212 2.22214 12.455 1.86556 12.8377 1.56686C13.174 1.309 13.5379 1.10344 13.9614 1.02572C14.6754 0.894969 15.2529 1.2705 15.4243 1.97654C15.5355 2.43633 15.497 2.89177 15.3778 3.34285C15.1718 4.11282 14.7918 4.82526 14.2672 5.42536C14.2362 5.45795 14.2104 5.49521 14.1909 5.53577L14.472 5.40575C15.2405 5.04619 16.0185 4.70988 16.8429 4.49996C17.1049 4.43948 17.3706 4.39677 17.6383 4.37212C17.6792 4.36537 17.7211 4.3676 17.761 4.37866C17.8009 4.38972 17.838 4.40934 17.8696 4.43616C17.9011 4.46298 17.9265 4.49635 17.9439 4.53396C17.9613 4.57157 17.9703 4.61252 17.9703 4.65395C17.9717 4.69437 17.9648 4.73464 17.9501 4.77231C17.9353 4.80998 17.9131 4.84425 17.8847 4.87302C17.8562 4.90178 17.8222 4.92444 17.7847 4.93961C17.7473 4.95477 17.7071 4.96212 17.6666 4.96121C17.2119 4.983 16.7834 5.1181 16.3592 5.26483C15.7754 5.475 15.2039 5.7175 14.6471 5.9912C14.6355 5.99629 14.626 6.00428 14.5977 6.02171C14.6398 6.02171 14.6624 6.02607 14.6849 6.02607H21.1903C21.297 6.02347 21.403 6.0426 21.5021 6.0823C21.6012 6.122 21.6911 6.18144 21.7665 6.257C21.8418 6.33255 21.901 6.42266 21.9404 6.52182C21.9799 6.62098 21.9987 6.72712 21.9958 6.8338C21.9958 7.6822 21.9864 8.52988 21.9995 9.3761C22.0036 9.48912 21.9842 9.60177 21.9426 9.70693C21.901 9.81209 21.8381 9.90748 21.7577 9.98707C21.6774 10.0667 21.5814 10.1287 21.4759 10.1693C21.3703 10.21 21.2575 10.2283 21.1445 10.2231C20.8358 10.2114 20.5256 10.2231 20.2162 10.2231H20.1196V12.0056C20.1247 12.0734 20.1068 12.1409 20.0686 12.1972C20.0305 12.2535 19.9745 12.2953 19.9097 12.3157C19.8646 12.3302 19.8168 12.3336 19.7701 12.3257C19.7235 12.3178 19.6794 12.2988 19.6416 12.2703C19.6038 12.2419 19.5734 12.2047 19.5529 12.1621C19.5325 12.1194 19.5225 12.0725 19.524 12.0252C19.524 11.4593 19.524 10.8942 19.524 10.3291V10.2231H11.7975V22.2721C11.8317 22.2721 11.86 22.2765 11.8883 22.2765H18.2078C18.8237 22.2765 19.3315 21.8981 19.4782 21.3271C19.5063 21.215 19.5207 21.0999 19.5211 20.9843C19.5262 20.5317 19.5211 20.0799 19.5211 19.6274C19.5192 19.5664 19.5365 19.5063 19.5707 19.4557C19.6048 19.4051 19.6541 19.3666 19.7114 19.3456C19.7678 19.3219 19.8304 19.3172 19.8897 19.3321C19.9491 19.347 20.0019 19.3808 20.0404 19.4284C20.0824 19.4802 20.1077 19.5435 20.1131 19.61C20.1131 20.138 20.1327 20.6668 20.0993 21.192C20.047 22.0332 19.3322 22.7552 18.4954 22.8547C18.4045 22.8655 18.3131 22.8708 18.2216 22.8707H4.78368C3.81252 22.8707 3.0491 22.2242 2.89511 21.2654C2.88092 21.1721 2.87436 21.0779 2.8755 20.9835C2.8755 17.4388 2.8755 13.8937 2.8755 10.348V10.2238C2.84063 10.2238 2.81448 10.2194 2.78833 10.2194C2.46292 10.2194 2.13459 10.2238 1.81136 10.2194C1.42929 10.2129 1.10242 9.97972 1.01743 9.60128C1.01272 9.58326 1.0069 9.56555 1 9.54825L1.00291 6.69215ZM3.47258 10.2274V20.9865C3.46777 21.2032 3.52066 21.4172 3.62584 21.6068C3.88443 22.0571 4.27958 22.2794 4.7953 22.2794H11.1017C11.1307 22.2794 11.1598 22.2794 11.191 22.275V10.2274H3.47258ZM17.7429 9.62888H21.1343C21.3377 9.62888 21.4009 9.56496 21.4009 9.36521V6.8614C21.4009 6.68925 21.3341 6.62242 21.1619 6.62242H1.84041C1.66173 6.62242 1.59708 6.68707 1.59708 6.86576C1.59708 7.69964 1.59708 8.53641 1.59708 9.36884C1.59708 9.57949 1.70676 9.63397 1.86947 9.63469C2.03218 9.63542 2.20651 9.62961 2.37793 9.62961H17.7451L17.7429 9.62888ZM12.0184 5.07743C11.9871 4.87913 11.9711 4.67647 11.9225 4.48253C11.6922 3.53698 11.1588 2.69281 10.4036 2.07896C10.1211 1.84579 9.80728 1.66347 9.43392 1.61408C9.11504 1.57195 8.88042 1.70851 8.76566 2.0085C8.65089 2.30849 8.65961 2.631 8.71409 2.9477C8.81847 3.51028 9.03808 4.0452 9.35911 4.51884C9.69178 5.02731 10.092 5.47475 10.6237 5.78709C10.8263 5.91647 11.0565 5.99635 11.2956 6.02026C11.5942 6.0406 11.7939 5.91421 11.9079 5.63528C11.9749 5.45651 12.0129 5.26819 12.0205 5.07743H12.0184ZM12.4251 5.98757C12.4338 5.98757 12.4389 5.99338 12.444 5.99193C12.4702 5.98612 12.4963 5.98031 12.5217 5.97304C12.7673 5.89891 12.9968 5.77915 13.198 5.62003C13.9741 5.02167 14.5339 4.18647 14.7924 3.24115C14.901 2.89819 14.9242 2.53389 14.8599 2.17992C14.7677 1.72376 14.4757 1.52619 14.0231 1.63514C13.8612 1.67391 13.7053 1.73451 13.5597 1.81528C12.9481 2.15668 12.5123 2.67386 12.1527 3.26222C12.1463 3.27853 12.1433 3.29601 12.1441 3.31353C12.1448 3.33105 12.1493 3.34822 12.1571 3.36391C12.3104 3.67546 12.4293 4.00281 12.5116 4.34016C12.6125 4.76363 12.6525 5.19001 12.5493 5.6193C12.5196 5.74351 12.468 5.86264 12.4273 5.98757H12.4251Z"/>
</mask>
<path d="M1.00291 6.69215C1.04419 6.57408 1.09622 6.46005 1.15835 6.35149C1.22799 6.24796 1.32276 6.16379 1.4338 6.10688C1.54483 6.04997 1.66849 6.02216 1.7932 6.02607H8.13662L8.14388 6.01154C8.12603 6.00063 8.1076 5.99069 8.08868 5.98176C7.77348 5.84756 7.47509 5.67691 7.1996 5.4733C6.87781 5.22778 6.59816 4.94595 6.44707 4.5588C6.35897 4.33781 6.32461 4.09906 6.34683 3.8622C6.34984 3.82278 6.36068 3.78436 6.37872 3.74919C6.39676 3.71402 6.42164 3.68279 6.4519 3.65736C6.48216 3.63192 6.51719 3.61278 6.55495 3.60105C6.5927 3.58933 6.63241 3.58526 6.67176 3.58907C6.71111 3.59289 6.7493 3.60453 6.78409 3.62329C6.81888 3.64206 6.84958 3.66758 6.87439 3.69836C6.89919 3.72914 6.9176 3.76456 6.92854 3.80255C6.93949 3.84054 6.94273 3.88033 6.9381 3.91959C6.92533 4.19444 7.01987 4.46349 7.20178 4.66993C7.36946 4.86927 7.57142 5.03703 7.79813 5.16532C8.40102 5.52342 9.06129 5.73189 9.73755 5.89169L9.75716 5.87063C9.73538 5.8587 9.71472 5.84484 9.69541 5.82922C8.97582 5.16744 8.45723 4.3163 8.19909 3.37335C8.07342 2.91647 8.02694 2.45086 8.14461 1.98453C8.26228 1.5182 8.53104 1.17027 9.01626 1.04024C9.31219 0.970539 9.62243 0.993875 9.90461 1.10707C10.364 1.27487 10.7773 1.54861 11.1111 1.90608C11.3363 2.13997 11.531 2.40292 11.7394 2.65207C11.7532 2.66877 11.7656 2.68548 11.7859 2.7109L11.8484 2.62374C12.1212 2.22214 12.455 1.86556 12.8377 1.56686C13.174 1.309 13.5379 1.10344 13.9614 1.02572C14.6754 0.894969 15.2529 1.2705 15.4243 1.97654C15.5355 2.43633 15.497 2.89177 15.3778 3.34285C15.1718 4.11282 14.7918 4.82526 14.2672 5.42536C14.2362 5.45795 14.2104 5.49521 14.1909 5.53577L14.472 5.40575C15.2405 5.04619 16.0185 4.70988 16.8429 4.49996C17.1049 4.43948 17.3706 4.39677 17.6383 4.37212C17.6792 4.36537 17.7211 4.3676 17.761 4.37866C17.8009 4.38972 17.838 4.40934 17.8696 4.43616C17.9011 4.46298 17.9265 4.49635 17.9439 4.53396C17.9613 4.57157 17.9703 4.61252 17.9703 4.65395C17.9717 4.69437 17.9648 4.73464 17.9501 4.77231C17.9353 4.80998 17.9131 4.84425 17.8847 4.87302C17.8562 4.90178 17.8222 4.92444 17.7847 4.93961C17.7473 4.95477 17.7071 4.96212 17.6666 4.96121C17.2119 4.983 16.7834 5.1181 16.3592 5.26483C15.7754 5.475 15.2039 5.7175 14.6471 5.9912C14.6355 5.99629 14.626 6.00428 14.5977 6.02171C14.6398 6.02171 14.6624 6.02607 14.6849 6.02607H21.1903C21.297 6.02347 21.403 6.0426 21.5021 6.0823C21.6012 6.122 21.6911 6.18144 21.7665 6.257C21.8418 6.33255 21.901 6.42266 21.9404 6.52182C21.9799 6.62098 21.9987 6.72712 21.9958 6.8338C21.9958 7.6822 21.9864 8.52988 21.9995 9.3761C22.0036 9.48912 21.9842 9.60177 21.9426 9.70693C21.901 9.81209 21.8381 9.90748 21.7577 9.98707C21.6774 10.0667 21.5814 10.1287 21.4759 10.1693C21.3703 10.21 21.2575 10.2283 21.1445 10.2231C20.8358 10.2114 20.5256 10.2231 20.2162 10.2231H20.1196V12.0056C20.1247 12.0734 20.1068 12.1409 20.0686 12.1972C20.0305 12.2535 19.9745 12.2953 19.9097 12.3157C19.8646 12.3302 19.8168 12.3336 19.7701 12.3257C19.7235 12.3178 19.6794 12.2988 19.6416 12.2703C19.6038 12.2419 19.5734 12.2047 19.5529 12.1621C19.5325 12.1194 19.5225 12.0725 19.524 12.0252C19.524 11.4593 19.524 10.8942 19.524 10.3291V10.2231H11.7975V22.2721C11.8317 22.2721 11.86 22.2765 11.8883 22.2765H18.2078C18.8237 22.2765 19.3315 21.8981 19.4782 21.3271C19.5063 21.215 19.5207 21.0999 19.5211 20.9843C19.5262 20.5317 19.5211 20.0799 19.5211 19.6274C19.5192 19.5664 19.5365 19.5063 19.5707 19.4557C19.6048 19.4051 19.6541 19.3666 19.7114 19.3456C19.7678 19.3219 19.8304 19.3172 19.8897 19.3321C19.9491 19.347 20.0019 19.3808 20.0404 19.4284C20.0824 19.4802 20.1077 19.5435 20.1131 19.61C20.1131 20.138 20.1327 20.6668 20.0993 21.192C20.047 22.0332 19.3322 22.7552 18.4954 22.8547C18.4045 22.8655 18.3131 22.8708 18.2216 22.8707H4.78368C3.81252 22.8707 3.0491 22.2242 2.89511 21.2654C2.88092 21.1721 2.87436 21.0779 2.8755 20.9835C2.8755 17.4388 2.8755 13.8937 2.8755 10.348V10.2238C2.84063 10.2238 2.81448 10.2194 2.78833 10.2194C2.46292 10.2194 2.13459 10.2238 1.81136 10.2194C1.42929 10.2129 1.10242 9.97972 1.01743 9.60128C1.01272 9.58326 1.0069 9.56555 1 9.54825L1.00291 6.69215ZM3.47258 10.2274V20.9865C3.46777 21.2032 3.52066 21.4172 3.62584 21.6068C3.88443 22.0571 4.27958 22.2794 4.7953 22.2794H11.1017C11.1307 22.2794 11.1598 22.2794 11.191 22.275V10.2274H3.47258ZM17.7429 9.62888H21.1343C21.3377 9.62888 21.4009 9.56496 21.4009 9.36521V6.8614C21.4009 6.68925 21.3341 6.62242 21.1619 6.62242H1.84041C1.66173 6.62242 1.59708 6.68707 1.59708 6.86576C1.59708 7.69964 1.59708 8.53641 1.59708 9.36884C1.59708 9.57949 1.70676 9.63397 1.86947 9.63469C2.03218 9.63542 2.20651 9.62961 2.37793 9.62961H17.7451L17.7429 9.62888ZM12.0184 5.07743C11.9871 4.87913 11.9711 4.67647 11.9225 4.48253C11.6922 3.53698 11.1588 2.69281 10.4036 2.07896C10.1211 1.84579 9.80728 1.66347 9.43392 1.61408C9.11504 1.57195 8.88042 1.70851 8.76566 2.0085C8.65089 2.30849 8.65961 2.631 8.71409 2.9477C8.81847 3.51028 9.03808 4.0452 9.35911 4.51884C9.69178 5.02731 10.092 5.47475 10.6237 5.78709C10.8263 5.91647 11.0565 5.99635 11.2956 6.02026C11.5942 6.0406 11.7939 5.91421 11.9079 5.63528C11.9749 5.45651 12.0129 5.26819 12.0205 5.07743H12.0184ZM12.4251 5.98757C12.4338 5.98757 12.4389 5.99338 12.444 5.99193C12.4702 5.98612 12.4963 5.98031 12.5217 5.97304C12.7673 5.89891 12.9968 5.77915 13.198 5.62003C13.9741 5.02167 14.5339 4.18647 14.7924 3.24115C14.901 2.89819 14.9242 2.53389 14.8599 2.17992C14.7677 1.72376 14.4757 1.52619 14.0231 1.63514C13.8612 1.67391 13.7053 1.73451 13.5597 1.81528C12.9481 2.15668 12.5123 2.67386 12.1527 3.26222C12.1463 3.27853 12.1433 3.29601 12.1441 3.31353C12.1448 3.33105 12.1493 3.34822 12.1571 3.36391C12.3104 3.67546 12.4293 4.00281 12.5116 4.34016C12.6125 4.76363 12.6525 5.19001 12.5493 5.6193C12.5196 5.74351 12.468 5.86264 12.4273 5.98757H12.4251Z" fill="#FF736D"/>
<path d="M1.00291 6.69215C1.04419 6.57408 1.09622 6.46005 1.15835 6.35149C1.22799 6.24796 1.32276 6.16379 1.4338 6.10688C1.54483 6.04997 1.66849 6.02216 1.7932 6.02607H8.13662L8.14388 6.01154C8.12603 6.00063 8.1076 5.99069 8.08868 5.98176C7.77348 5.84756 7.47509 5.67691 7.1996 5.4733C6.87781 5.22778 6.59816 4.94595 6.44707 4.5588C6.35897 4.33781 6.32461 4.09906 6.34683 3.8622C6.34984 3.82278 6.36068 3.78436 6.37872 3.74919C6.39676 3.71402 6.42164 3.68279 6.4519 3.65736C6.48216 3.63192 6.51719 3.61278 6.55495 3.60105C6.5927 3.58933 6.63241 3.58526 6.67176 3.58907C6.71111 3.59289 6.7493 3.60453 6.78409 3.62329C6.81888 3.64206 6.84958 3.66758 6.87439 3.69836C6.89919 3.72914 6.9176 3.76456 6.92854 3.80255C6.93949 3.84054 6.94273 3.88033 6.9381 3.91959C6.92533 4.19444 7.01987 4.46349 7.20178 4.66993C7.36946 4.86927 7.57142 5.03703 7.79813 5.16532C8.40102 5.52342 9.06129 5.73189 9.73755 5.89169L9.75716 5.87063C9.73538 5.8587 9.71472 5.84484 9.69541 5.82922C8.97582 5.16744 8.45723 4.3163 8.19909 3.37335C8.07342 2.91647 8.02694 2.45086 8.14461 1.98453C8.26228 1.5182 8.53104 1.17027 9.01626 1.04024C9.31219 0.970539 9.62243 0.993875 9.90461 1.10707C10.364 1.27487 10.7773 1.54861 11.1111 1.90608C11.3363 2.13997 11.531 2.40292 11.7394 2.65207C11.7532 2.66877 11.7656 2.68548 11.7859 2.7109L11.8484 2.62374C12.1212 2.22214 12.455 1.86556 12.8377 1.56686C13.174 1.309 13.5379 1.10344 13.9614 1.02572C14.6754 0.894969 15.2529 1.2705 15.4243 1.97654C15.5355 2.43633 15.497 2.89177 15.3778 3.34285C15.1718 4.11282 14.7918 4.82526 14.2672 5.42536C14.2362 5.45795 14.2104 5.49521 14.1909 5.53577L14.472 5.40575C15.2405 5.04619 16.0185 4.70988 16.8429 4.49996C17.1049 4.43948 17.3706 4.39677 17.6383 4.37212C17.6792 4.36537 17.7211 4.3676 17.761 4.37866C17.8009 4.38972 17.838 4.40934 17.8696 4.43616C17.9011 4.46298 17.9265 4.49635 17.9439 4.53396C17.9613 4.57157 17.9703 4.61252 17.9703 4.65395C17.9717 4.69437 17.9648 4.73464 17.9501 4.77231C17.9353 4.80998 17.9131 4.84425 17.8847 4.87302C17.8562 4.90178 17.8222 4.92444 17.7847 4.93961C17.7473 4.95477 17.7071 4.96212 17.6666 4.96121C17.2119 4.983 16.7834 5.1181 16.3592 5.26483C15.7754 5.475 15.2039 5.7175 14.6471 5.9912C14.6355 5.99629 14.626 6.00428 14.5977 6.02171C14.6398 6.02171 14.6624 6.02607 14.6849 6.02607H21.1903C21.297 6.02347 21.403 6.0426 21.5021 6.0823C21.6012 6.122 21.6911 6.18144 21.7665 6.257C21.8418 6.33255 21.901 6.42266 21.9404 6.52182C21.9799 6.62098 21.9987 6.72712 21.9958 6.8338C21.9958 7.6822 21.9864 8.52988 21.9995 9.3761C22.0036 9.48912 21.9842 9.60177 21.9426 9.70693C21.901 9.81209 21.8381 9.90748 21.7577 9.98707C21.6774 10.0667 21.5814 10.1287 21.4759 10.1693C21.3703 10.21 21.2575 10.2283 21.1445 10.2231C20.8358 10.2114 20.5256 10.2231 20.2162 10.2231H20.1196V12.0056C20.1247 12.0734 20.1068 12.1409 20.0686 12.1972C20.0305 12.2535 19.9745 12.2953 19.9097 12.3157C19.8646 12.3302 19.8168 12.3336 19.7701 12.3257C19.7235 12.3178 19.6794 12.2988 19.6416 12.2703C19.6038 12.2419 19.5734 12.2047 19.5529 12.1621C19.5325 12.1194 19.5225 12.0725 19.524 12.0252C19.524 11.4593 19.524 10.8942 19.524 10.3291V10.2231H11.7975V22.2721C11.8317 22.2721 11.86 22.2765 11.8883 22.2765H18.2078C18.8237 22.2765 19.3315 21.8981 19.4782 21.3271C19.5063 21.215 19.5207 21.0999 19.5211 20.9843C19.5262 20.5317 19.5211 20.0799 19.5211 19.6274C19.5192 19.5664 19.5365 19.5063 19.5707 19.4557C19.6048 19.4051 19.6541 19.3666 19.7114 19.3456C19.7678 19.3219 19.8304 19.3172 19.8897 19.3321C19.9491 19.347 20.0019 19.3808 20.0404 19.4284C20.0824 19.4802 20.1077 19.5435 20.1131 19.61C20.1131 20.138 20.1327 20.6668 20.0993 21.192C20.047 22.0332 19.3322 22.7552 18.4954 22.8547C18.4045 22.8655 18.3131 22.8708 18.2216 22.8707H4.78368C3.81252 22.8707 3.0491 22.2242 2.89511 21.2654C2.88092 21.1721 2.87436 21.0779 2.8755 20.9835C2.8755 17.4388 2.8755 13.8937 2.8755 10.348V10.2238C2.84063 10.2238 2.81448 10.2194 2.78833 10.2194C2.46292 10.2194 2.13459 10.2238 1.81136 10.2194C1.42929 10.2129 1.10242 9.97972 1.01743 9.60128C1.01272 9.58326 1.0069 9.56555 1 9.54825L1.00291 6.69215ZM3.47258 10.2274V20.9865C3.46777 21.2032 3.52066 21.4172 3.62584 21.6068C3.88443 22.0571 4.27958 22.2794 4.7953 22.2794H11.1017C11.1307 22.2794 11.1598 22.2794 11.191 22.275V10.2274H3.47258ZM17.7429 9.62888H21.1343C21.3377 9.62888 21.4009 9.56496 21.4009 9.36521V6.8614C21.4009 6.68925 21.3341 6.62242 21.1619 6.62242H1.84041C1.66173 6.62242 1.59708 6.68707 1.59708 6.86576C1.59708 7.69964 1.59708 8.53641 1.59708 9.36884C1.59708 9.57949 1.70676 9.63397 1.86947 9.63469C2.03218 9.63542 2.20651 9.62961 2.37793 9.62961H17.7451L17.7429 9.62888ZM12.0184 5.07743C11.9871 4.87913 11.9711 4.67647 11.9225 4.48253C11.6922 3.53698 11.1588 2.69281 10.4036 2.07896C10.1211 1.84579 9.80728 1.66347 9.43392 1.61408C9.11504 1.57195 8.88042 1.70851 8.76566 2.0085C8.65089 2.30849 8.65961 2.631 8.71409 2.9477C8.81847 3.51028 9.03808 4.0452 9.35911 4.51884C9.69178 5.02731 10.092 5.47475 10.6237 5.78709C10.8263 5.91647 11.0565 5.99635 11.2956 6.02026C11.5942 6.0406 11.7939 5.91421 11.9079 5.63528C11.9749 5.45651 12.0129 5.26819 12.0205 5.07743H12.0184ZM12.4251 5.98757C12.4338 5.98757 12.4389 5.99338 12.444 5.99193C12.4702 5.98612 12.4963 5.98031 12.5217 5.97304C12.7673 5.89891 12.9968 5.77915 13.198 5.62003C13.9741 5.02167 14.5339 4.18647 14.7924 3.24115C14.901 2.89819 14.9242 2.53389 14.8599 2.17992C14.7677 1.72376 14.4757 1.52619 14.0231 1.63514C13.8612 1.67391 13.7053 1.73451 13.5597 1.81528C12.9481 2.15668 12.5123 2.67386 12.1527 3.26222C12.1463 3.27853 12.1433 3.29601 12.1441 3.31353C12.1448 3.33105 12.1493 3.34822 12.1571 3.36391C12.3104 3.67546 12.4293 4.00281 12.5116 4.34016C12.6125 4.76363 12.6525 5.19001 12.5493 5.6193C12.5196 5.74351 12.468 5.86264 12.4273 5.98757H12.4251Z" stroke="#FF736D" mask="url(#path-1-outside-1)"/>
<path d="M19.2764 16.8023C19.2727 16.7306 19.2831 16.6588 19.3071 16.591C19.3322 16.5201 19.3717 16.4551 19.423 16.4C19.4743 16.345 19.5364 16.3011 19.6055 16.2711C19.6745 16.2411 19.7489 16.2256 19.8242 16.2256C19.8994 16.2256 19.9739 16.2411 20.0429 16.2711C20.1119 16.3011 20.174 16.345 20.2253 16.4C20.2767 16.4551 20.3161 16.5201 20.3412 16.591C20.3653 16.6588 20.3757 16.7306 20.372 16.8023M19.2764 16.8023L20.122 17.7145C20.122 17.7935 20.0906 17.8693 20.0348 17.9251C19.9789 17.981 19.9032 18.0123 19.8242 18.0123C19.7452 18.0123 19.6694 17.981 19.6136 17.9251C19.5577 17.8693 19.5264 17.7935 19.5264 17.7145V17.2467H19.2764V17.7145C19.2764 17.8598 19.3341 17.9991 19.4368 18.1019C19.5395 18.2046 19.6789 18.2623 19.8242 18.2623C19.9695 18.2623 20.1088 18.2046 20.2115 18.1019C20.3143 17.9992 20.372 17.8598 20.372 17.7145V17.7127V17.7109V17.7091V17.7073V17.7055V17.7037V17.702V17.7002V17.6984V17.6966V17.6948V17.693V17.6912V17.6894V17.6876V17.6858V17.684V17.6822V17.6804V17.6786V17.6768V17.675V17.6732V17.6714V17.6696V17.6678V17.666V17.6642V17.6624V17.6606V17.6588V17.6571V17.6553V17.6535V17.6517V17.6499V17.6481V17.6463V17.6445V17.6427V17.6409V17.6391V17.6373V17.6355V17.6337V17.6319V17.6301V17.6283V17.6265V17.6247V17.6229V17.6211V17.6193V17.6175V17.6157V17.6139V17.6121V17.6104V17.6086V17.6068V17.605V17.6032V17.6014V17.5996V17.5978V17.596V17.5942V17.5924V17.5906V17.5888V17.587V17.5852V17.5834V17.5816V17.5798V17.578V17.5762V17.5744V17.5726V17.5708V17.569V17.5672V17.5655V17.5637V17.5619V17.5601V17.5583V17.5565V17.5547V17.5529V17.5511V17.5493V17.5475V17.5457V17.5439V17.5421V17.5403V17.5385V17.5367V17.5349V17.5331V17.5313V17.5295V17.5277V17.5259V17.5241V17.5223V17.5205V17.5188V17.517V17.5152V17.5134V17.5116V17.5098V17.508V17.5062V17.5044V17.5026V17.5008V17.499V17.4972V17.4954V17.4936V17.4918V17.49V17.4882V17.4864V17.4846V17.4828V17.481V17.4792V17.4774V17.4756V17.4739V17.4721V17.4703V17.4685V17.4667V17.4649V17.4631V17.4613V17.4595V17.4577V17.4559V17.4541V17.4523V17.4505V17.4487V17.4469V17.4451V17.4433V17.4415V17.4397V17.4379V17.4361V17.4343V17.4325V17.4307V17.429V17.4272V17.4254V17.4236V17.4218V17.42V17.4182V17.4164V17.4146V17.4128V17.411V17.4092V17.4074V17.4056V17.4038V17.402V17.4002V17.3984V17.3966V17.3948V17.393V17.3912V17.3894V17.3876V17.3858V17.384V17.3823V17.3805V17.3787V17.3769V17.3751V17.3733V17.3715V17.3697V17.3679V17.3661V17.3643V17.3625V17.3607V17.3589V17.3571V17.3553V17.3535V17.3517V17.3499V17.3481V17.3463V17.3445V17.3427V17.3409V17.3391V17.3374V17.3356V17.3338V17.332V17.3302V17.3284V17.3266V17.3248V17.323V17.3212V17.3194V17.3176V17.3158V17.314V17.3122V17.3104V17.3086V17.3068V17.305V17.3032V17.3014V17.2996V17.2978V17.296V17.2942V17.2924V17.2907V17.2889V17.2871V17.2853V17.2835V17.2817V17.2799V17.2781V17.2763V17.2745V17.2727V17.2709V17.2691V17.2673V17.2655V17.2637V17.2619V17.2601V17.2583V17.2565V17.2547V17.2529V17.2511V17.2493V17.2475V17.2458V17.244V17.2422V17.2404V17.2386V17.2368V17.235V17.2332V17.2314V17.2296V17.2278V17.226V17.2242V17.2224V17.2206V17.2188V17.217V17.2152V17.2134V17.2116V17.2098V17.208V17.2062V17.2044V17.2026V17.2008V17.1991V17.1973V17.1955V17.1937V17.1919V17.1901V17.1883V17.1865V17.1847V17.1829V17.1811V17.1793V17.1775V17.1757V17.1739V17.1721V17.1703V17.1685V17.1667V17.1649V17.1631V17.1613V17.1595V17.1577V17.1559V17.1542V17.1524V17.1506V17.1488V17.147V17.1452V17.1434V17.1416V17.1398V17.138V17.1362V17.1344V17.1326V17.1308V17.129V17.1272V17.1254V17.1236V17.1218V17.12V17.1182V17.1164V17.1146V17.1128V17.111V17.1092V17.1075V17.1057V17.1039V17.1021V17.1003V17.0985V17.0967V17.0949V17.0931V17.0913V17.0895V17.0877V17.0859V17.0841V17.0823V17.0805V17.0787V17.0769V17.0751V17.0733V17.0715V17.0697V17.0679V17.0661V17.0643V17.0626V17.0608V17.059V17.0572V17.0554V17.0536V17.0518V17.05V17.0482V17.0464V17.0446V17.0428V17.041V17.0392V17.0374V17.0356V17.0338V17.032V17.0302V17.0284V17.0266V17.0248V17.023V17.0212V17.0194V17.0176V17.0159V17.0141V17.0123V17.0105V17.0087V17.0069V17.0051V17.0033V17.0015V16.9997V16.9979V16.9961V16.9943V16.9925V16.9907V16.9889V16.9871V16.9853V16.9835V16.9817V16.9799V16.9781V16.9763V16.9745V16.9727V16.971V16.9692V16.9674V16.9656V16.9638V16.962V16.9602V16.9584V16.9566V16.9548V16.953V16.9512V16.9494V16.9476V16.9458V16.944V16.9422V16.9404V16.9386V16.9368V16.935V16.9332V16.9314V16.9296V16.9278V16.926V16.9243V16.9225V16.9207V16.9189V16.9171V16.9153V16.9135V16.9117V16.9099V16.9081V16.9063V16.9045V16.9027V16.9009V16.8991V16.8973V16.8955V16.8937V16.8919V16.8901V16.8883V16.8865V16.8847V16.8829V16.8811V16.8794V16.8776V16.8758V16.874V16.8722V16.8704V16.8686V16.8668V16.865V16.8632V16.8614V16.8596V16.8578V16.856V16.8542V16.8524V16.8506V16.8488V16.847V16.8452V16.8434V16.8416V16.8398V16.838V16.8362V16.8344V16.8327V16.8309V16.8291V16.8273V16.8255V16.8237V16.8219V16.8201V16.8183V16.8165V16.8147V16.8129V16.8111V16.8093V16.8075V16.8057V16.8039V16.8023M19.2764 16.8023V16.8029V16.8037V16.8046V16.8055V16.8064V16.8073V16.8082V16.809V16.8099V16.8108V16.8117V16.8126V16.8134V16.8143V16.8152V16.8161V16.817V16.8178V16.8187V16.8196V16.8205V16.8214V16.8223V16.8231V16.824V16.8249V16.8258V16.8267V16.8275V16.8284V16.8293V16.8302V16.8311V16.832V16.8328V16.8337V16.8346V16.8355V16.8364V16.8372V16.8381V16.839V16.8399V16.8408V16.8417V16.8425V16.8434V16.8443V16.8452V16.8461V16.8469V16.8478V16.8487V16.8496V16.8505V16.8514V16.8522V16.8531V16.854V16.8549V16.8558V16.8566V16.8575V16.8584V16.8593V16.8602V16.8611V16.8619V16.8628V16.8637V16.8646V16.8655V16.8663V16.8672V16.8681V16.869V16.8699V16.8708V16.8716V16.8725V16.8734V16.8743V16.8752V16.8761V16.8769V16.8778V16.8787V16.8796V16.8805V16.8813V16.8822V16.8831V16.884V16.8849V16.8858V16.8866V16.8875V16.8884V16.8893V16.8902V16.8911V16.8919V16.8928V16.8937V16.8946V16.8955V16.8963V16.8972V16.8981V16.899V16.8999V16.9008V16.9016V16.9025V16.9034V16.9043V16.9052V16.9061V16.9069V16.9078V16.9087V16.9096V16.9105V16.9113V16.9122V16.9131V16.914V16.9149V16.9158V16.9166V16.9175V16.9184V16.9193V16.9202V16.9211V16.9219V16.9228V16.9237V16.9246V16.9255V16.9264V16.9272V16.9281V16.929V16.9299V16.9308V16.9317V16.9325V16.9334V16.9343V16.9352V16.9361V16.9369V16.9378V16.9387V16.9396V16.9405V16.9414V16.9422V16.9431V16.944V16.9449V16.9458V16.9467V16.9475V16.9484V16.9493V16.9502V16.9511V16.952V16.9528V16.9537V16.9546V16.9555V16.9564V16.9573V16.9581V16.959V16.9599V16.9608V16.9617V16.9626V16.9634V16.9643V16.9652V16.9661V16.967V16.9679V16.9687V16.9696V16.9705V16.9714V16.9723V16.9731V16.974V16.9749V16.9758V16.9767V16.9776V16.9784V16.9793V16.9802V16.9811V16.982V16.9829V16.9837V16.9846V16.9855V16.9864V16.9873V16.9882V16.989V16.9899V16.9908V16.9917V16.9926V16.9935V16.9943V16.9952V16.9961V16.997V16.9979V16.9988V16.9996V17.0005V17.0014V17.0023V17.0032V17.0041V17.0049V17.0058V17.0067V17.0076V17.0085V17.0094V17.0102V17.0111V17.012V17.0129V17.0138V17.0147V17.0155V17.0164V17.0173V17.0182V17.0191V17.02V17.0208V17.0217V17.0226V17.0235V17.0244V17.0253V17.0261V17.027V17.0279V17.0288V17.0297V17.0306V17.0314V17.0323V17.0332V17.0341V17.035V17.0359V17.0367V17.0376V17.0385V17.0394V17.0403V17.0412V17.042V17.0429V17.0438V17.0447V17.0456V17.0464V17.0473V17.0482V17.0491V17.05V17.0509V17.0517V17.0526V17.0535V17.0544V17.0553V17.0562V17.057V17.0579V17.0588V17.0597V17.0606V17.0615V17.0623V17.0632V17.0641V17.065V17.0659V17.0668V17.0676V17.0685V17.0694V17.0703V17.0712V17.0721V17.0729V17.0738V17.0747V17.0756V17.0765V17.0774V17.0782V17.0791V17.08V17.0809V17.0818V17.0827V17.0835V17.0844V17.0853V17.0862V17.0871V17.088V17.0888V17.0897V17.0906V17.0915V17.0924V17.0933V17.0941V17.095V17.0959V17.0968V17.0977V17.0985V17.0994V17.1003V17.1012V17.1021V17.103V17.1038V17.1047V17.1056V17.1065V17.1074V17.1083V17.1091V17.11V17.1109V17.1118V17.1127V17.1136V17.1144V17.1153V17.1162V17.1171V17.118V17.1189V17.1197V17.1206V17.1215V17.1224V17.1233V17.1241V17.125V17.1259V17.1268V17.1277V17.1286V17.1294V17.1303V17.1312V17.1321V17.133V17.1339V17.1347V17.1356V17.1365V17.1374V17.1383V17.1392V17.14V17.1409V17.1418V17.1427V17.1436V17.1444V17.1453V17.1462V17.1471V17.148V17.1489V17.1497V17.1506V17.1515V17.1524V17.1533V17.1542V17.155V17.1559V17.1568V17.1577V17.1586V17.1595V17.1603V17.1612V17.1621V17.163V17.1639V17.1647V17.1656V17.1665V17.1674V17.1683V17.1692V17.17V17.1709V17.1718V17.1727V17.1736V17.1744V17.1753V17.1762V17.1771V17.178V17.1789V17.1797V17.1806V17.1815V17.1824V17.1833V17.1842V17.185V17.1859V17.1868V17.1877V17.1886V17.1894V17.1903V17.1912V17.1921V17.193V17.1939V17.1947V17.1956V17.1965V17.1974V17.1983V17.1991V17.2V17.2009V17.2018V17.2027V17.2036V17.2044V17.2053V17.2062V17.2071V17.208V17.2088V17.2097V17.2106V17.2115V17.2124V17.2133V17.2141V17.215V17.2159V17.2168V17.2177V17.2185V17.2194V17.2203V17.2212V17.2221V17.2229V17.2238V17.2247V17.2256V17.2265V17.2274V17.2282V17.2291V17.23V17.2309V17.2318V17.2326V17.2335V17.2344V17.2353V17.2362V17.237V17.2379V17.2388V17.2397V17.2406V17.2415V17.2423V17.2432V17.2441V17.245V17.2459V17.246V16.8023ZM20.372 16.8023C20.3718 16.8057 20.3716 16.809 20.3714 16.8124L20.122 16.7949H20.372V16.7967V16.7985V16.8003V16.8021V16.8023Z" fill="#FF736D" stroke="#FF736D" stroke-width="0.5"/>
<path d="M19.2807 14.9106L19.2807 14.909C19.2807 14.803 19.28 14.6956 19.2794 14.5873C19.2781 14.3688 19.2768 14.1467 19.2806 13.9254C19.2795 13.8283 19.3045 13.7327 19.353 13.6486C19.4026 13.5629 19.4747 13.4924 19.5616 13.4448C19.6485 13.3973 19.7467 13.3745 19.8457 13.379C19.9424 13.3834 20.0361 13.4137 20.117 13.4666C20.1945 13.5142 20.2588 13.5805 20.3039 13.6596M19.2807 14.9106L20.3039 13.6596M19.2807 14.9106C19.2816 15.0578 19.3636 15.1792 19.4355 15.2528C19.5088 15.3279 19.6214 15.4048 19.7551 15.4207C19.8331 15.4311 19.9124 15.4246 19.9876 15.4014C20.0639 15.378 20.1342 15.338 20.1934 15.2845C20.2526 15.2309 20.2993 15.165 20.3302 15.0914L20.0998 14.9945L20.3302 15.0914C20.3604 15.0195 20.3749 14.9421 20.3727 14.8642V14.8642V14.8628V14.8614V14.86V14.8587V14.8573V14.8559V14.8545V14.8531V14.8517V14.8504V14.849V14.8476V14.8462V14.8448V14.8434V14.8421V14.8407V14.8393V14.8379V14.8365V14.8351V14.8338V14.8324V14.831V14.8296V14.8282V14.8268V14.8255V14.8241V14.8227V14.8213V14.8199V14.8185V14.8172V14.8158V14.8144V14.813V14.8116V14.8102V14.8089V14.8075V14.8061V14.8047V14.8033V14.8019V14.8006V14.7992V14.7978V14.7964V14.795V14.7936V14.7923V14.7909V14.7895V14.7881V14.7867V14.7853V14.784V14.7826V14.7812V14.7798V14.7784V14.777V14.7757V14.7743V14.7729V14.7715V14.7701V14.7687V14.7674V14.766V14.7646V14.7632V14.7618V14.7604V14.7591V14.7577V14.7563V14.7549V14.7535V14.7521V14.7508V14.7494V14.748V14.7466V14.7452V14.7438V14.7425V14.7411V14.7397V14.7383V14.7369V14.7355V14.7342V14.7328V14.7314V14.73V14.7286V14.7272V14.7259V14.7245V14.7231V14.7217V14.7203V14.7189V14.7176V14.7162V14.7148V14.7134V14.712V14.7106V14.7093V14.7079V14.7065V14.7051V14.7037V14.7023V14.701V14.6996V14.6982V14.6968V14.6954V14.694V14.6927V14.6913V14.6899V14.6885V14.6871V14.6857V14.6844V14.683V14.6816V14.6802V14.6788V14.6775V14.6761V14.6747V14.6733V14.6719V14.6705V14.6692V14.6678V14.6664V14.665V14.6636V14.6622V14.6609V14.6595V14.6581V14.6567V14.6553V14.6539V14.6526V14.6512V14.6498V14.6484V14.647V14.6456V14.6443V14.6429V14.6415V14.6401V14.6387V14.6373V14.636V14.6346V14.6332V14.6318V14.6304V14.629V14.6277V14.6263V14.6249V14.6235V14.6221V14.6207V14.6194V14.618V14.6166V14.6152V14.6138V14.6124V14.6111V14.6097V14.6083V14.6069V14.6055V14.6041V14.6028V14.6014V14.6V14.5986V14.5972V14.5958V14.5945V14.5931V14.5917V14.5903V14.5889V14.5875V14.5862V14.5848V14.5834V14.582V14.5806V14.5792V14.5779V14.5765V14.5751V14.5737V14.5723V14.5709V14.5696V14.5682V14.5668V14.5654V14.564V14.5626V14.5613V14.5599V14.5585V14.5571V14.5557V14.5543V14.553V14.5516V14.5502V14.5488V14.5474V14.546V14.5447V14.5433V14.5419V14.5405V14.5391V14.5377V14.5364V14.535V14.5336V14.5322V14.5308V14.5294V14.5281V14.5267V14.5253V14.5239V14.5225V14.5211V14.5198V14.5184V14.517V14.5156V14.5142V14.5128V14.5115V14.5101V14.5087V14.5073V14.5059V14.5045V14.5032V14.5018V14.5004V14.499V14.4976V14.4962V14.4949V14.4935V14.4921V14.4907V14.4893V14.4879V14.4866V14.4852V14.4838V14.4824V14.481V14.4796V14.4783V14.4769V14.4755V14.4741V14.4727V14.4713V14.47V14.4686V14.4672V14.4658V14.4644V14.463V14.4617V14.4603V14.4589V14.4575V14.4561V14.4548V14.4534V14.452V14.4506V14.4492V14.4478V14.4465V14.4451V14.4437V14.4423V14.4409V14.4395V14.4382V14.4368V14.4354V14.434V14.4326V14.4312V14.4299V14.4285V14.4271V14.4257V14.4243V14.4229V14.4216V14.4202V14.4188V14.4174V14.416V14.4146V14.4133V14.4119V14.4105V14.4101H20.3748V14.1601V14.1597V14.1592V14.1588V14.1583V14.1578V14.1574V14.1569V14.1565V14.156V14.1556V14.1551V14.1547V14.1542V14.1537V14.1533V14.1528V14.1524V14.1519V14.1515V14.151V14.1506V14.1501V14.1496V14.1492V14.1487V14.1483V14.1478V14.1474V14.1469V14.1465V14.146V14.1455V14.1451V14.1446V14.1442V14.1437V14.1433V14.1428V14.1424V14.1419V14.1415V14.141V14.1405V14.1401V14.1396V14.1392V14.1387V14.1383V14.1378V14.1374V14.1369V14.1364V14.136V14.1355V14.1351V14.1346V14.1342V14.1337V14.1333V14.1328V14.1323V14.1319V14.1314V14.131V14.1305V14.1301V14.1296V14.1292V14.1287V14.1282V14.1278V14.1273V14.1269V14.1264V14.126V14.1255V14.1251V14.1246V14.1241V14.1237V14.1232V14.1228V14.1223V14.1219V14.1214V14.121V14.1205V14.12V14.1196V14.1191V14.1187V14.1182V14.1178V14.1173V14.1169V14.1164V14.1159V14.1155V14.115V14.1146V14.1141V14.1137V14.1132V14.1128V14.1123V14.1118V14.1114V14.1109V14.1105V14.11V14.1096V14.1091V14.1087V14.1082V14.1077V14.1073V14.1068V14.1064V14.1059V14.1055V14.105V14.1046V14.1041V14.1036V14.1032V14.1027V14.1023V14.1018V14.1014V14.1009V14.1005V14.1V14.0995V14.0991V14.0986V14.0982V14.0977V14.0973V14.0968V14.0964V14.0959V14.0954V14.095V14.0945V14.0941V14.0936V14.0932V14.0927V14.0922V14.0918V14.0913V14.0909V14.0904V14.09V14.0895V14.0891V14.0886V14.0881V14.0877V14.0872V14.0868V14.0863V14.0859V14.0854V14.085V14.0845V14.084V14.0836V14.0831V14.0827V14.0822V14.0818V14.0813V14.0809V14.0804V14.0799V14.0795V14.079V14.0786V14.0781V14.0777V14.0772V14.0767V14.0763V14.0758V14.0754V14.0749V14.0745V14.074V14.0736V14.0731V14.0726V14.0722V14.0717V14.0713V14.0708V14.0704V14.0699V14.0695V14.069V14.0685V14.0681V14.0676V14.0672V14.0667V14.0663V14.0658V14.0653V14.0649V14.0644V14.064V14.0635V14.0631V14.0626V14.0622V14.0617V14.0612V14.0608V14.0603V14.0599V14.0594V14.059V14.0585V14.0581V14.0576V14.0571V14.0567V14.0562V14.0558V14.0553V14.0549V14.0544V14.0539V14.0535V14.053V14.0526V14.0521V14.0517V14.0512V14.0507V14.0503V14.0498V14.0494V14.0489V14.0485V14.048V14.0476V14.0471V14.0466V14.0462V14.0457V14.0453V14.0448V14.0444V14.0439V14.0434V14.043V14.0425V14.0421V14.0416V14.0412V14.0407V14.0403V14.0398V14.0393V14.0389V14.0384V14.038V14.0375V14.0371V14.0366V14.0361V14.0357V14.0352V14.0348V14.0343V14.0339V14.0334V14.0329V14.0325V14.032V14.0316V14.0311V14.0307V14.0302V14.0297V14.0293V14.0288V14.0284V14.0279V14.0275V14.027V14.0266V14.0261V14.0256V14.0252V14.0247V14.0243V14.0238V14.0234V14.0229V14.0224V14.022V14.0215V14.0211V14.0206V14.0202V14.0197V14.0192V14.0188V14.0183V14.0179V14.0174V14.017V14.0165V14.016V14.0156V14.0151V14.0147V14.0142V14.0138V14.0133V14.0128V14.0124V14.0119V14.0115V14.011V14.0106V14.0101V14.0096V14.0092V14.0087V14.0083V14.0078V14.0074V14.0069V14.0064V14.006V14.0055V14.0051V14.0046V14.0042V14.0037V14.0032V14.0028V14.0023V14.0019V14.0014V14.001V14.0005V14V13.9996V13.9991V13.9987V13.9982V13.9978V13.9973V13.9968V13.9964V13.9959V13.9955V13.995V13.9946V13.9941V13.9936V13.9932V13.9927V13.9923V13.9918V13.9913V13.9909V13.9904V13.99V13.9895V13.9891V13.9886V13.9881V13.9877V13.9872V13.9868V13.9863V13.9859V13.9854V13.9849V13.9845V13.984V13.9836V13.9831V13.9827V13.9822V13.9817V13.9813V13.9808V13.9804V13.9799V13.9794V13.979V13.9785V13.9781V13.9776V13.9772V13.9767V13.9762V13.9758V13.9753V13.9749V13.9744V13.9739V13.9735V13.973V13.9726V13.9721V13.9717V13.9712V13.9707V13.9703V13.9698V13.9694V13.9689V13.9685V13.968V13.9675V13.9671V13.9666V13.9662V13.9657V13.9652V13.9648V13.9643V13.9639V13.9634V13.9629V13.9625V13.962V13.9616V13.9611V13.9607V13.9602V13.9597V13.9593V13.9588V13.9584V13.9579V13.9574V13.957V13.9565V13.9561V13.9556V13.9552V13.9547V13.9542V13.9538V13.9533V13.9529V13.9524V13.9519V13.9515V13.951V13.9506V13.9501V13.9496V13.9492V13.9487V13.9483V13.9478V13.9474V13.9469V13.9464V13.946V13.9455V13.9451V13.9446V13.9441V13.9437V13.9432V13.9428V13.9423V13.9418V13.9414V13.9409V13.9405V13.94V13.9396V13.9391V13.9386V13.9382V13.9377V13.9373V13.9368V13.9363V13.9359V13.9354V13.935V13.9345V13.934V13.9336V13.9331V13.9327V13.9322V13.9317V13.9313V13.9308V13.9304V13.9299V13.9294V13.929V13.9285V13.9281V13.9276V13.9271V13.9267V13.9262H20.3748M19.2807 14.9106L20.3748 13.9262M20.3039 13.6596C20.35 13.7405 20.3745 13.8321 20.3748 13.9253M20.3039 13.6596L20.3748 13.9253M20.3748 13.9262L20.3748 13.9253M20.3748 13.9262L20.3748 13.9253" fill="#FF736D" stroke="#FF736D" stroke-width="0.5"/>
</svg>
