<svg width="45" height="34" viewBox="0 0 45 34" fill="none" xmlns="http://www.w3.org/2000/svg">
<path d="M41.2844 24.877C42.1665 24.877 43.02 24.877 43.8716 24.877C44.7232 24.877 45.0147 25.2074 44.9994 26.1397C44.9644 28.0222 44.2592 29.8135 43.0367 31.1255C41.8142 32.4374 40.1729 33.1642 38.4686 33.1482C27.82 33.1693 17.1708 33.1693 6.52096 33.1482C4.82507 33.161 3.19227 32.4385 1.97329 31.136C0.7543 29.8334 0.0463511 28.0547 0.00149828 26.1819C-0.0232688 25.1969 0.254884 24.8748 1.14459 24.8706C2.0343 24.8664 2.84781 24.8706 3.74895 24.8706V1.42485C3.74895 0.269399 3.9909 0 5.03874 0H40.0727C40.9776 0 41.2596 0.317817 41.2596 1.33015C41.2596 8.99389 41.2596 16.6555 41.2596 24.315C41.2653 24.4834 41.2748 24.6539 41.2844 24.877ZM39.3487 24.8328V2.10254H5.65982V24.8328H39.3487ZM42.9933 26.9753H1.97905C2.04383 27.2342 2.08003 27.453 2.14862 27.6593C2.47938 28.6735 3.08783 29.5488 3.88947 30.1636C4.6911 30.7784 5.64612 31.1021 6.62192 31.0899C12.4644 31.0899 18.3069 31.0899 24.1494 31.0899C28.8805 31.0899 33.611 31.0899 38.3409 31.0899C40.629 31.0899 42.6732 29.3136 42.9933 26.9753Z" fill="#FF736D"/>
<path d="M19.5637 6.30556C20.4921 6.3131 21.3972 6.62755 22.1623 7.20844C22.2536 7.29751 22.3711 7.34669 22.4929 7.34669C22.6146 7.34669 22.7322 7.29751 22.8234 7.20844C24.4695 6.02351 26.1822 5.95827 27.8397 7.10531C29.4972 8.25235 30.1678 9.96767 29.9678 12.0934C29.6896 15.0525 28.1655 17.1698 26.0641 18.8283C25.2259 19.4554 24.3284 19.9798 23.3873 20.3921C22.9197 20.6109 22.3989 20.6494 21.909 20.5015C18.5006 19.1881 16.0182 16.7889 15.138 12.7963C14.4712 9.77613 16.0506 7.04849 18.6683 6.42762C18.9617 6.36027 19.2646 6.34555 19.5637 6.30556ZM28.1217 11.7566C28.1426 9.47305 26.5347 7.97876 24.7686 8.50913C24.2199 8.67329 23.7169 9.12369 23.2635 9.5362C22.6634 10.0834 22.1928 10.0834 21.6803 9.43937C21.3613 9.00807 20.9362 8.68784 20.4562 8.5172C19.9763 8.34655 19.4619 8.33279 18.975 8.47755C18.4947 8.57814 18.0511 8.83053 17.6981 9.20411C17.345 9.5777 17.0977 10.0564 16.986 10.5822C16.6583 11.9566 17.0241 13.2257 17.6757 14.3874C18.6626 16.1532 20.0857 17.3719 21.7661 18.2663C22.002 18.4056 22.2654 18.4785 22.5329 18.4785C22.8004 18.4785 23.0638 18.4056 23.2997 18.2663C24.5539 17.6167 25.6713 16.6848 26.5804 15.5303C27.4777 14.3938 28.0874 13.0931 28.1198 11.7566H28.1217Z" fill="#FF736D"/>
</svg>
