<svg width="37" height="43" viewBox="0 0 37 43" fill="none" xmlns="http://www.w3.org/2000/svg">
<path d="M35.3075 33.4149C34.8546 30.6993 32.9505 28.4711 30.3388 27.6003L24.539 25.6672V24.8052H23.191V26.071L22.1853 30.0941L19.463 26.8272H17.4828L14.7605 30.0941L13.7549 26.071V24.8052H12.4069V25.6672L6.60777 27.6003C3.996 28.4711 2.09194 30.6993 1.63901 33.4149L0.152832 42.3293H36.7924L35.3075 33.4149ZM19.1469 40.9813V30.1972H17.7989V40.9813H7.75964L8.3595 34.9826L7.01823 34.8485L6.40489 40.9819H1.74483L2.96815 33.6373C3.33885 31.4151 4.89647 29.5926 7.03374 28.8795L11.0589 27.5376V33.6629C9.89893 33.9642 9.03688 35.0109 9.03688 36.2632C9.03688 37.7501 10.246 38.9593 11.7329 38.9593C13.2197 38.9593 14.4289 37.7501 14.4289 36.2632C14.4289 35.0109 13.5669 33.9642 12.4069 33.6629V27.088L12.6037 27.0226L14.0973 32.9963L18.115 28.1752H18.8308L22.8486 32.9963L24.3422 27.0226L24.539 27.088V32.476L21.9852 33.7533C21.0665 34.2129 20.4949 35.137 20.4949 36.1648V36.9372C20.4949 38.4241 21.7041 39.6333 23.191 39.6333H23.865V38.2853H23.191C22.4475 38.2853 21.8429 37.6807 21.8429 36.9372V36.1648C21.8429 35.6512 22.1287 35.1889 22.5877 34.959L25.213 33.6468L27.8382 34.959C28.2972 35.1889 28.583 35.6512 28.583 36.1648V36.9372C28.583 37.6807 27.9784 38.2853 27.235 38.2853H26.561V39.6333H27.235C27.9063 39.6333 28.5129 39.3778 28.9854 38.9707L29.1862 40.9813H19.1469ZM11.7329 34.9152C12.4763 34.9152 13.0809 35.5198 13.0809 36.2632C13.0809 37.0067 12.4763 37.6112 11.7329 37.6112C10.9895 37.6112 10.3849 37.0067 10.3849 36.2632C10.3849 35.5198 10.9895 34.9152 11.7329 34.9152ZM30.541 40.9813L29.9276 34.8478L29.6014 34.8802C29.3433 34.4043 28.9476 34.0067 28.4408 33.7533L25.887 32.4767V27.5376L29.9121 28.8795C32.0494 29.5919 33.607 31.4151 33.9777 33.6373L35.201 40.9813H30.541Z" fill="#FF736D"/>
<path d="M10.0088 18.7014C10.3526 19.8843 10.9875 20.9687 11.8825 21.8638L14.5105 24.4924C15.1467 25.1287 15.9933 25.4792 16.8938 25.4792H20.0521C20.9526 25.4792 21.7992 25.1287 22.4354 24.4924L25.0634 21.8638C25.9584 20.9687 26.5927 19.8836 26.9371 18.7014C28.6167 18.5113 29.931 17.0986 29.931 15.3691C29.931 14.2631 29.3878 13.2878 28.5621 12.6731H28.583V10.6511C28.583 5.07639 24.0476 0.541016 18.473 0.541016C12.8983 0.541016 8.3629 5.07639 8.3629 10.6511V12.6731H8.38379C7.55814 13.2878 7.01489 14.2631 7.01489 15.3691C7.01489 17.0986 8.3292 18.5113 10.0088 18.7014ZM25.887 16.6214C25.887 18.2417 25.2555 19.765 24.1103 20.9108L21.4824 23.5394C21.1002 23.9209 20.5927 24.1311 20.0521 24.1311H16.8938C16.3532 24.1311 15.845 23.9209 15.4635 23.5394L12.8356 20.9108C11.6905 19.765 11.0589 18.2417 11.0589 16.6214V13.3471H16.0432C17.619 13.3471 19.1483 12.9252 20.495 12.1217C21.8416 12.9252 23.3716 13.3471 24.9468 13.3471H25.887V16.6214ZM28.583 15.3691C28.583 16.2581 28.002 17.0069 27.2033 17.2765C27.2222 17.0602 27.235 16.8418 27.235 16.6214V13.4711C28.0175 13.7501 28.583 14.4915 28.583 15.3691ZM9.71091 10.6511C9.71091 5.81981 13.6417 1.88902 18.473 1.88902C23.3042 1.88902 27.235 5.81981 27.235 10.6511V12.0672C27.0173 12.0227 26.7915 11.9991 26.561 11.9991H24.9468C23.4902 11.9991 22.0802 11.5724 20.8684 10.7643L20.495 10.5149L20.1209 10.7643C18.909 11.5724 17.4997 11.9991 16.0432 11.9991H10.3849C10.1544 11.9991 9.92861 12.0227 9.71091 12.0672V10.6511ZM9.71091 13.4711V16.6214C9.71091 16.8418 9.72371 17.0602 9.74259 17.2772C8.94389 17.0069 8.3629 16.2581 8.3629 15.3691C8.3629 14.4915 8.92839 13.7501 9.71091 13.4711Z" fill="#FF736D"/>
</svg>
