<svg width="30" height="34" viewBox="0 0 30 34" fill="none" xmlns="http://www.w3.org/2000/svg">
<path d="M22.4975 11.735H22.9064C24.9602 11.735 27.0132 11.735 29.0653 11.735C29.8476 11.735 30.0013 11.9202 30 12.7829C30 16.1152 30 19.4466 30 22.777C30 24.5881 30 26.4006 30 28.2117C30 31.0412 27.8564 33.2255 25.2912 33.1596C22.6041 33.0908 19.9158 33.1414 17.2287 33.1399C12.9542 33.1399 8.67889 33.1399 4.40273 33.1399C1.98993 33.1399 0.00126989 30.9066 0 28.1878C0 21.8413 0 15.4942 0 9.14672V0.941352C0 0.203444 0.181594 0 0.84067 0H21.6669C22.3133 0 22.5025 0.210463 22.5025 0.910493C22.5025 4.39334 22.5025 7.87666 22.5025 11.3604L22.4975 11.735ZM22.613 31.7679L22.3794 31.4719C21.6593 30.5573 21.2504 29.5079 21.2491 28.2818C21.2491 22.8574 21.2491 17.433 21.2491 12.0086C21.2491 8.58275 21.2491 5.15835 21.2491 1.73255C21.2491 1.43515 21.1666 1.36362 20.9075 1.36362C14.4641 1.3711 8.02023 1.3711 1.57594 1.36362C1.32196 1.36362 1.2318 1.43795 1.2318 1.73396C1.23773 10.5832 1.24027 19.4325 1.23942 28.2818C1.22488 28.9522 1.3863 29.6129 1.7042 30.1841C2.34676 31.3064 3.30426 31.7637 4.47257 31.7651H22.6092L22.613 31.7679ZM22.5127 13.1435C22.5063 13.2655 22.4975 13.3665 22.4975 13.4689C22.4975 18.3892 22.4975 23.3091 22.4975 28.2285C22.4975 30.445 23.9375 31.9068 25.9351 31.7427C27.61 31.6024 28.7517 30.1827 28.7542 28.2117C28.7542 23.3147 28.7542 18.4178 28.7542 13.5208C28.7542 13.3974 28.7453 13.2725 28.7402 13.1435H22.5127Z" fill="#FF736D"/>
<path d="M11.2524 3.45093C13.6974 3.45093 16.141 3.45093 18.5835 3.45093C19.1562 3.45093 19.381 3.69364 19.381 4.30809V14.2684C19.381 14.9699 19.1892 15.1873 18.5492 15.1873H3.97592C3.30796 15.1873 3.12256 14.9867 3.12256 14.26V4.3656C3.12256 3.66417 3.31432 3.44531 3.9518 3.44531L11.2524 3.45093ZM4.39499 13.7844H18.1098V4.86784H4.39499V13.7844Z" fill="#FF736D"/>
<path d="M11.2856 26.2505C13.7306 26.2505 16.1743 26.2505 18.6167 26.2505C18.9431 26.2505 19.2034 26.3389 19.3304 26.6997C19.4929 27.1587 19.2034 27.6149 18.7157 27.6289C18.1659 27.6444 17.616 27.6289 17.0649 27.6289H4.08532C3.97865 27.6289 3.87325 27.6289 3.76785 27.6289C3.37291 27.6023 3.11511 27.3173 3.124 26.9271C3.13289 26.5369 3.39449 26.2589 3.79578 26.2575C5.70062 26.2575 7.60546 26.2575 9.5103 26.2575L11.2856 26.2505Z" fill="#FF736D"/>
<path d="M11.2525 19.3314H4.08012C3.99631 19.3314 3.91123 19.3314 3.82614 19.3314C3.39692 19.3187 3.13024 19.0646 3.12389 18.6588C3.11754 18.253 3.38802 17.9568 3.83248 17.9568C6.7634 17.9568 9.6939 17.9568 12.624 17.9568C14.6228 17.9568 16.622 17.9568 18.6217 17.9568C18.9315 17.9568 19.1868 18.034 19.3214 18.378C19.3588 18.4717 19.3764 18.5737 19.373 18.6761C19.3695 18.7785 19.345 18.8787 19.3013 18.969C19.2576 19.0594 19.1959 19.1376 19.1208 19.1977C19.0458 19.2578 18.9593 19.2982 18.868 19.3159C18.7417 19.3329 18.6143 19.3385 18.4871 19.3328L11.2525 19.3314Z" fill="#FF736D"/>
<path d="M11.2853 22.1007H18.5237C18.6399 22.0955 18.7562 22.1002 18.8717 22.1147C19.0108 22.1424 19.1372 22.2222 19.2294 22.3407C19.3216 22.4592 19.3742 22.6092 19.3782 22.7654C19.3822 22.9217 19.3375 23.0748 19.2515 23.1989C19.1655 23.323 19.0435 23.4106 18.906 23.447C18.7802 23.4711 18.6526 23.481 18.525 23.4764H4.0481C3.9107 23.4811 3.77317 23.4746 3.63665 23.4568C3.48944 23.4311 3.35563 23.3473 3.26005 23.2209C3.16447 23.0945 3.11359 22.9341 3.11685 22.7694C3.1201 22.6047 3.17727 22.4468 3.27775 22.3252C3.37824 22.2035 3.51523 22.1262 3.66331 22.1077C3.75834 22.099 3.85376 22.0967 3.94904 22.1007H11.2853Z" fill="#FF736D"/>
</svg>
