<svg width="16" height="17" viewBox="0 0 16 17" fill="none" xmlns="http://www.w3.org/2000/svg">
<path d="M1.33635 16.1325C1.5854 16.3815 1.88107 16.5791 2.20648 16.7139C2.53188 16.8487 2.88065 16.918 3.23286 16.918C3.58508 16.918 3.93385 16.8487 4.25925 16.7139C4.58465 16.5791 4.88032 16.3815 5.12938 16.1325L14.401 6.86058C14.7639 6.50157 15.0524 6.07435 15.2497 5.60349C15.447 5.13263 15.5494 4.6274 15.5508 4.11687C15.5522 3.60633 15.4527 3.10055 15.258 2.6286C15.0632 2.15665 14.7772 1.72784 14.4162 1.36682C14.0552 1.00581 13.6264 0.719705 13.1544 0.524964C12.6825 0.330223 12.1767 0.230684 11.6662 0.23207C11.1556 0.233456 10.6504 0.335738 10.1795 0.533038C9.70867 0.730338 9.28143 1.01876 8.9224 1.38173L2.81118 7.49265L3.23286 7.91433L9.34378 1.80341C9.64743 1.49567 10.009 1.25103 10.4075 1.08358C10.8061 0.916125 11.2339 0.829172 11.6662 0.827724C12.0986 0.826275 12.5269 0.91036 12.9266 1.07514C13.3263 1.23991 13.6895 1.48213 13.9952 1.78783C14.3009 2.09353 14.5431 2.45669 14.7078 2.85639C14.8726 3.25609 14.9567 3.68443 14.9553 4.11676C14.9538 4.54909 14.8669 4.97686 14.6994 5.37544C14.532 5.77403 14.2873 6.13555 13.9796 6.4392L4.70799 15.7108C4.31677 16.102 3.78614 16.3218 3.23286 16.3218C2.67958 16.3218 2.14896 16.102 1.75773 15.7108C1.3665 15.3195 1.14671 14.7889 1.14671 14.2356C1.14671 13.6824 1.3665 13.1517 1.75773 12.7605L9.76516 4.75308C9.93331 4.58769 10.16 4.49545 10.3958 4.49644C10.6317 4.49742 10.8576 4.59157 11.0243 4.75836C11.1911 4.92514 11.2852 5.15107 11.2861 5.38691C11.287 5.62276 11.1947 5.84942 11.0293 6.01752L6.18283 10.8643L6.60421 11.2857L11.451 6.4392C11.7284 6.15935 11.8837 5.781 11.8828 5.38695C11.8819 4.9929 11.725 4.61524 11.4464 4.3366C11.1677 4.05797 10.7901 3.90105 10.396 3.90018C10.002 3.89932 9.62364 4.05458 9.34378 4.332L1.33635 12.3394C1.08729 12.5885 0.889732 12.8842 0.754944 13.2096C0.620156 13.535 0.550781 13.8837 0.550781 14.2359C0.550781 14.5882 0.620156 14.9369 0.754944 15.2623C0.889732 15.5877 1.08729 15.8834 1.33635 16.1325V16.1325Z" fill="black"/>
</svg>
