<svg width="39" height="36" viewBox="0 0 39 36" fill="none" xmlns="http://www.w3.org/2000/svg">
<path d="M0.00114269 28.3165V25.6922C0.00114269 24.8016 0.234802 24.5703 1.10131 24.5818C2.19499 24.5966 3.29029 24.6441 4.38235 24.5982C4.86838 24.5673 5.34339 24.4385 5.77946 24.2193C8.82846 22.7186 11.9635 22.5136 15.2007 23.4845C18.0209 24.3309 20.8492 25.1477 23.671 25.9924C23.8012 26.0407 23.941 26.0571 24.0787 26.0399C24.2164 26.0228 24.3481 25.9728 24.4629 25.8939C26.7346 24.467 29.2351 23.5977 31.7146 22.6694C32.917 22.2151 34.1324 21.8493 35.4256 21.9772C36.0549 22.0505 36.676 22.184 37.2803 22.3758C37.5805 22.4499 37.8484 22.6214 38.043 22.864C38.2376 23.1066 38.3482 23.4069 38.3578 23.7191C38.3924 24.0367 38.3241 24.3571 38.1632 24.6322C38.0023 24.9072 37.7574 25.1221 37.4653 25.2444C35.1173 26.3073 33.0987 27.9081 30.9519 29.294C30.7389 29.448 30.5708 29.657 30.4651 29.8993C29.7138 31.505 28.6202 32.6514 26.7671 32.8236C26.6206 32.8507 26.4705 32.8507 26.3241 32.8236C25.7496 32.6481 25.3002 32.8663 24.8328 33.1878C23.7148 33.9537 22.5611 34.6754 21.4252 35.4184C20.7178 35.8809 19.9226 35.94 19.1227 35.8727C16.3998 35.6398 13.6867 35.3183 11.0499 34.5786C9.80874 34.2009 8.58886 33.7553 7.39565 33.2435C5.73548 32.5769 3.97386 32.2052 2.1885 32.1446C1.74226 32.1266 1.29603 32.1102 0.85142 32.0774C0.286731 32.0364 0.00438803 31.7264 0.00114269 31.1458C-0.00210265 30.2027 0.00276536 29.2678 0.00114269 28.3165ZM29.1021 29.4941C28.9771 29.4449 28.8571 29.3891 28.7337 29.3481C26.9488 28.761 25.1752 28.1492 23.3789 27.5915C20.4884 26.6938 17.5925 25.8163 14.6912 24.9591C13.2048 24.5178 11.6957 24.2554 10.1315 24.508C8.7724 24.7422 7.45198 25.1655 6.20785 25.766C5.50479 26.091 4.73396 26.238 3.96207 26.1941C3.18481 26.1613 2.40432 26.1941 1.58487 26.1941V26.696C1.58487 27.8162 1.60758 28.9381 1.57188 30.0567C1.5589 30.4946 1.70494 30.5684 2.09763 30.5668C4.12971 30.5552 6.14444 30.9452 8.02848 31.7149C9.12093 32.1855 10.236 32.6004 11.3696 32.9582C13.9918 33.7208 16.6968 33.9915 19.4066 34.1981C19.9371 34.2326 20.4633 34.0827 20.8979 33.7733C21.5972 33.3042 22.2999 32.8433 22.9992 32.3775C23.0787 32.3234 23.1469 32.2529 23.2605 32.1594C20.2959 31.6542 17.3929 31.1589 14.4981 30.6668C13.909 30.5668 13.5748 30.1748 13.6591 29.6827C13.7435 29.1907 14.1687 28.943 14.7528 29.0447C18.5336 29.7008 22.3193 30.324 26.0904 31.0342C27.2993 31.2524 28.3118 30.8587 29.1021 29.4941ZM36.6799 23.7535C35.3899 23.4517 34.1908 23.4419 33.0192 23.8798C31.614 24.4047 30.2104 24.9377 28.8246 25.5102C27.9451 25.8726 27.0965 26.3155 26.1521 26.76C26.3419 26.837 26.4247 26.8764 26.5123 26.9076C27.4859 27.2537 28.4774 27.5899 29.4526 27.9507C29.5794 28.0083 29.7192 28.03 29.8573 28.0136C29.9953 27.9971 30.1263 27.9431 30.2363 27.8572C32.315 26.4368 34.3612 24.9607 36.6799 23.7535Z" fill="#FF736D"/>
<path d="M34.3397 6.26597C34.3449 7.46799 34.052 8.65217 33.4878 9.71031C32.4787 11.6937 31.1917 13.5194 29.6664 15.1311C28.0535 16.8762 26.3448 18.5311 24.6686 20.2156C24.5788 20.3143 24.47 20.3934 24.3489 20.448C24.2278 20.5027 24.0968 20.5318 23.9642 20.5335C23.8315 20.5352 23.6999 20.5095 23.5775 20.4579C23.455 20.4063 23.3443 20.33 23.252 20.2336C20.8959 18.0571 18.6258 15.7953 16.6705 13.2317C15.6304 11.8671 14.7006 10.4434 14.0304 8.83609C12.5132 5.21953 14.9537 0.938713 18.8433 0.153076C20.5584 -0.194639 22.1486 0.153072 23.609 1.09289C23.8881 1.2733 24.0536 1.24213 24.3133 1.08139C26.473 -0.248779 28.7107 -0.386527 30.9289 0.861637C33.1243 2.09668 34.2278 4.05503 34.3397 6.26597ZM23.9547 18.6623C24.0796 18.5574 24.1737 18.4819 24.2613 18.4015C26.0836 16.7303 27.7878 14.9321 29.3614 13.0201C30.5232 11.5965 31.6023 10.1138 32.3422 8.40803C32.6077 7.82265 32.7451 7.18628 32.7451 6.54234C32.7451 5.8984 32.6077 5.26204 32.3422 4.67666C31.0295 1.63087 27.3752 0.704168 24.6897 2.73469C23.9952 3.25954 23.833 3.25463 23.1368 2.70682C22.3169 2.04451 21.3058 1.67026 20.2566 1.64071C16.7338 1.53902 13.9785 5.32615 15.7342 8.76557C16.5951 10.4089 17.6358 11.9494 18.8368 13.358C20.4219 15.2412 22.1318 17.0134 23.9547 18.6623Z" fill="#FF736D"/>
</svg>
