<svg width="35" height="35" viewBox="0 0 35 35" fill="none" xmlns="http://www.w3.org/2000/svg">
<path d="M17.5 34.6535C12.8256 34.6535 8.43097 32.8511 5.12559 29.5786C1.82034 26.306 0 21.9549 0 17.3267C0 12.6986 1.82034 8.34749 5.12559 5.07484C8.43097 1.80232 12.8256 0 17.5 0C22.1744 0 26.569 1.80232 29.8744 5.07484C33.1797 8.34749 35 12.6986 35 17.3267C35 21.9549 33.1797 26.306 29.8744 29.5786C26.569 32.8511 22.1744 34.6535 17.5 34.6535ZM17.5 2.03048C13.3733 2.03048 9.49375 3.62156 6.57576 6.51066C3.65777 9.39975 2.05078 13.2409 2.05078 17.3267C2.05078 21.4125 3.65777 25.2537 6.57576 28.1428C9.49375 31.0319 13.3733 32.623 17.5 32.623C21.6266 32.623 25.5063 31.0319 28.4242 28.1428C31.3422 25.2537 32.9492 21.4125 32.9492 17.3267C32.9492 13.2409 31.3422 9.39975 28.4242 6.51066C25.5063 3.62156 21.6266 2.03048 17.5 2.03048Z" fill="white"/>
<path d="M16.4746 4.06335H18.5254V6.77282H16.4746V4.06335Z" fill="white"/>
<path d="M24.3086 9.14783L26.2434 7.23225L27.6933 8.66779L25.7585 10.5834L24.3086 9.14783Z" fill="white"/>
<path d="M28.1594 16.3115H30.896V18.342H28.1594V16.3115Z" fill="white"/>
<path d="M24.3071 25.5074L25.757 24.0719L27.6918 25.9875L26.2419 27.423L24.3071 25.5074Z" fill="white"/>
<path d="M16.4746 27.8806H18.5254V30.5901H16.4746V27.8806Z" fill="white"/>
<path d="M7.29932 25.9856L9.23405 24.07L10.6839 25.5055L8.7492 27.4212L7.29932 25.9856Z" fill="white"/>
<path d="M4.104 16.3115H6.84057V18.342H4.104V16.3115Z" fill="white"/>
<path d="M7.30078 8.66602L8.75067 7.23045L10.6854 9.14607L9.23551 10.5816L7.30078 8.66602Z" fill="white"/>
<path d="M24.7387 18.3419H16.4746V10.1597H18.5254V16.3115H24.7387V18.3419Z" fill="white"/>
</svg>
