<svg width="105" height="41" viewBox="0 0 105 41" fill="none" xmlns="http://www.w3.org/2000/svg">
<rect width="105" height="41" rx="5" fill="white"/>
<path fill-rule="evenodd" clip-rule="evenodd" d="M50.5341 13.1964L47.7993 26.8916H50.9053L53.6401 13.1964H50.5341Z" fill="#08869D"/>
<path fill-rule="evenodd" clip-rule="evenodd" d="M19.8408 13.1964H16.7348L14 26.8916H17.106L19.8408 13.1964Z" fill="#08869D"/>
<path fill-rule="evenodd" clip-rule="evenodd" d="M49.5272 13.1964H46.4211L40.6401 22.7016L38.814 13.1964H35.708L38.3362 26.8916H41.1947L49.5272 13.1964Z" fill="#08869D"/>
<path fill-rule="evenodd" clip-rule="evenodd" d="M65.2534 13.1964H55.1162L54.5786 16.0736H58.107L55.9439 26.8916H59.0499L61.2087 16.0736H64.7201L65.2534 13.1964Z" fill="#08869D"/>
<path fill-rule="evenodd" clip-rule="evenodd" d="M31.8469 13.1964L30.0379 22.2583L25.285 13.1964H22.6014L19.8708 26.8916H22.8617L24.6749 17.8084L29.415 26.8916H32.1071L34.8377 13.1964H31.8469Z" fill="#08869D"/>
<path fill-rule="evenodd" clip-rule="evenodd" d="M72.6386 13.1964H66.9428L64.208 26.8916H67.3311L69.4643 16.0736H72.1479C72.6877 16.0484 73.2145 16.2438 73.6071 16.6149C73.9078 16.9391 74.054 17.3772 74.0081 17.8169C73.8759 19.1936 72.7922 19.8287 71.3885 19.8287H69.123L72.0413 26.8916H75.1473L73.206 22.2029C75.4508 21.9144 77.1347 20.0098 77.144 17.7487C77.272 15.0932 75.3179 13.1964 72.6258 13.1964" fill="#08869D"/>
<path d="M77.7331 20.0461C77.9695 16.0609 81.2933 12.9616 85.2891 13.0004C89.4233 13.0004 92.2136 16.1332 91.9875 20.0419C91.7511 24.027 88.4273 27.1264 84.4315 27.0876C80.2973 27.0876 77.507 23.9547 77.7374 20.0461H77.7331ZM89.099 20.0461C89.2005 18.9347 88.8216 17.8329 88.0578 17.0185C87.294 16.2041 86.2181 15.7548 85.1014 15.7837C82.7063 15.7745 80.7311 17.6557 80.6258 20.0461C80.5243 21.1576 80.9032 22.2593 81.6671 23.0737C82.4309 23.8881 83.5068 24.3375 84.6235 24.3085C87.0202 24.32 88.9979 22.4382 89.1033 20.0461" fill="#08869D"/>
</svg>
