<svg width="157" height="59" viewBox="0 0 157 59" fill="none" xmlns="http://www.w3.org/2000/svg">
<rect y="0.880737" width="156.344" height="58" rx="6" fill="white"/>
<path d="M41.471 24.6601H51.0457V27.1664H44.6626V29.0069H47.6192C49.0094 29.0069 50.0667 29.3006 50.8107 29.888C51.5548 30.4754 51.9268 31.3173 51.9268 32.4334C51.9268 33.5886 51.5156 34.4893 50.6737 35.1355C49.8513 35.7816 48.6765 36.1145 47.1884 36.1145H41.4514V24.6601H41.471ZM46.9926 33.7844C47.5408 33.7844 47.952 33.667 48.2457 33.4516C48.5198 33.2362 48.6765 32.9229 48.6765 32.5117C48.6765 31.7089 48.1282 31.2978 47.0122 31.2978H44.6821V33.7649H46.9926V33.7844Z" fill="#FF736D"/>
<path d="M53.9043 24.66H57.0959V31.376L61.8343 24.6404H64.8888V36.0948H61.6972V29.3788L56.9784 36.0948H53.9239V24.66H53.9043Z" fill="#FF736D"/>
<path d="M94.0045 33.5495V38.2683H91.0479V36.1145H81.6494V24.6601H84.841V33.5495H89.2465V24.6601H92.4381V33.5495H94.0045Z" fill="#FF736D"/>
<path d="M105.028 33.6082V36.1145H95.8254V24.6601H104.813V27.1664H99.0366V29.1048H104.127V31.5327H99.0366V33.6278H105.028V33.6082Z" fill="#FF736D"/>
<path d="M118.46 24.6601V36.1145H115.21V31.6502H110.785V36.1145H107.534V24.6601H110.785V28.9677H115.21V24.6601H118.46Z" fill="#FF736D"/>
<path d="M130.815 27.2251H127.31V36.1145H124.119V27.2251H120.594V24.6601H130.815V27.2251Z" fill="#FF736D"/>
<path d="M140.919 25.1692C141.682 25.5216 142.27 26.0111 142.681 26.6377C143.092 27.2838 143.307 28.0279 143.307 28.8894C143.307 29.7509 143.092 30.495 142.681 31.1411C142.27 31.7677 141.682 32.2572 140.919 32.6096C140.155 32.9621 139.254 33.1187 138.216 33.1187H136.219V36.1145H132.969V24.6601H138.216C139.254 24.6601 140.155 24.8167 140.919 25.1692ZM139.528 30.123C139.861 29.8293 140.037 29.4181 140.037 28.8894C140.037 28.3607 139.861 27.9496 139.528 27.6363C139.195 27.3426 138.686 27.1859 138.021 27.1859H136.219V30.5341H138.021C138.686 30.5537 139.195 30.4167 139.528 30.123Z" fill="#FF736D"/>
<path d="M24.1621 20C18.5426 20 14 24.5426 14 30.1621C14 35.7816 18.5426 40.3242 24.1621 40.3242C29.7816 40.3242 34.3242 35.7816 34.3242 30.1621C34.3242 24.5426 29.762 20 24.1621 20ZM24.0642 36.4082C17.6223 33.6669 17.7006 30.2404 18.1118 28.3803C18.5818 26.2069 20.8922 24.523 23.3397 25.3454C23.3593 25.3454 23.3985 25.365 23.4181 25.3845C23.7118 24.523 24.26 23.7202 25.1215 23.0937C25.5914 23.1328 26.2963 23.3874 26.6292 23.7006C24.5341 24.8755 23.6334 25.9328 23.2418 28.2041C21.6558 26.716 19.6782 27.8321 19.6782 29.7118C19.6782 30.4754 20.0307 32.8054 24.0642 34.5285L26.1397 35.4096C25.5327 35.7229 24.8474 36.0753 24.0642 36.4082ZM30.0166 30.9845C30.0166 31.004 30.0166 31.0236 29.997 31.0432C29.9774 31.1019 29.9578 31.1607 29.9382 31.2194C29.9382 31.239 29.9187 31.2586 29.9187 31.2782C29.8991 31.3565 29.8795 31.4152 29.8403 31.4935V31.5131C29.8012 31.5915 29.7816 31.6698 29.7424 31.7481C29.7424 31.7481 29.7424 31.7677 29.7229 31.7677C29.7033 31.8264 29.6641 31.9047 29.625 31.9635C29.6054 32.0026 29.5858 32.0222 29.5858 32.0614C29.5662 32.1005 29.5466 32.1397 29.5075 32.1984C29.4879 32.2376 29.4683 32.2768 29.4292 32.3159C29.4096 32.3355 29.39 32.3747 29.39 32.3942C29.0571 32.9621 28.5872 33.5299 27.9606 34.0585L28.2739 34.8026L25.3956 33.7453L26.7271 31.0824L27.0208 31.8068C29.1159 29.9271 27.9998 26.5006 25.1998 27.8712C24.8082 28.1453 24.4362 28.5565 24.1229 29.1048C24.2992 27.4013 24.7887 25.8349 26.7075 25.5999C26.7663 25.5999 26.8446 25.5999 26.9033 25.5999C28.6264 25.6782 29.7033 27.0097 29.997 28.3607C30.1732 29.0656 30.2711 29.9859 30.0166 30.9845Z" fill="#FF736D"/>
<path d="M78.7907 27.323C78.2425 26.4223 77.4788 25.7174 76.5194 25.1887C75.56 24.6797 74.4635 24.4251 73.2495 24.4251C72.0356 24.4251 70.9587 24.6797 69.9796 25.1887C69.0202 25.6978 68.2566 26.4027 67.7083 27.323C67.1601 28.2237 66.886 29.2418 66.886 30.3775C66.886 31.5131 67.1601 32.5313 67.7083 33.432C68.2566 34.3327 69.0202 35.0375 69.9796 35.5662C70.9391 36.0753 72.0356 36.3298 73.2495 36.3298C74.4635 36.3298 75.5404 36.0753 76.5194 35.5662C77.4788 35.0571 78.2425 34.3522 78.7907 33.432C79.339 32.5313 79.6131 31.5131 79.6131 30.3775C79.6131 29.2418 79.339 28.2237 78.7907 27.323ZM73.2691 33.06C68.7461 30.632 71.1153 26.6964 73.2691 28.8502C75.4229 26.6964 77.7921 30.632 73.2691 33.06Z" fill="#FF736D"/>
</svg>
