<svg width="157" height="59" viewBox="0 0 157 59" fill="none" xmlns="http://www.w3.org/2000/svg">
<rect y="0.363037" width="156.344" height="58" rx="6" fill="white"/>
<path d="M123.64 11H33V48H123.64V11Z" fill="#3C6771"/>
<path d="M123.64 48H33V11H123.64V48ZM33.6366 47.4258H122.985V11.5911H33.6366V47.4258Z" fill="#F8EBBA"/>
<path d="M121.828 46.2382H34.8127V12.7619H121.828V46.2382ZM35.0182 46.0888H121.622V12.8947H34.9809L35.0182 46.0888Z" fill="#F8EBBA"/>
<path fill-rule="evenodd" clip-rule="evenodd" d="M44.8948 38.8435H42.7259C42.553 38.858 42.3794 38.8236 42.2296 38.7451C42.1194 38.6795 42.0642 38.614 42.0642 38.5484C42.0752 38.4752 42.1038 38.405 42.1483 38.3427C42.1927 38.2804 42.2518 38.2275 42.3215 38.1876C42.4922 38.0803 42.6259 37.9327 42.7075 37.7613L45.2808 27.9229L45.4095 27.3983C45.4095 27.2179 45.6668 27.1195 46.0528 27.1195H47.3395C47.4234 27.1143 47.5075 27.1248 47.5866 27.1502C47.6657 27.1756 47.7381 27.2154 47.799 27.267C47.9624 27.4611 48.0754 27.6851 48.1299 27.9229L51.1259 37.7613C51.1912 37.9362 51.3208 38.0864 51.4935 38.1876C51.5705 38.2214 51.6364 38.2723 51.6847 38.3355C51.733 38.3988 51.7622 38.4721 51.7693 38.5484C51.7693 38.6468 51.7693 38.7123 51.5671 38.7779H51.1076H48.1299C47.6887 38.7779 47.4682 38.6795 47.4682 38.4828C47.4682 38.3844 47.5601 38.2532 47.7623 38.122C47.9385 38.0057 48.0624 37.8371 48.1115 37.6465L48.0012 37.2202C47.9707 37.0713 47.9014 36.9309 47.799 36.8103C47.6493 36.7318 47.4756 36.6974 47.3027 36.7119H45.6301C45.5119 36.6999 45.3925 36.7201 45.2875 36.7698C45.1825 36.8196 45.0969 36.8966 45.0419 36.9906C44.9392 37.1794 44.8887 37.3875 44.8948 37.5973C44.9057 37.7462 44.9777 37.8863 45.097 37.9909C45.4095 38.2204 45.5566 38.3844 45.5566 38.4828C45.5566 38.5811 45.5566 38.6468 45.3544 38.7124H44.8948V38.8435ZM47.1557 34.5474L46.6778 32.9077C46.5675 32.629 46.4572 32.465 46.3286 32.4322C46.1999 32.3994 46.108 32.5962 46.0161 32.9077L45.5566 34.5474V35.1705C45.5566 35.4493 45.7587 35.5805 46.1264 35.5805H46.7329C46.8034 35.5922 46.876 35.5885 46.9445 35.5696C47.0129 35.5506 47.0752 35.5171 47.1259 35.4719C47.1766 35.4267 47.2141 35.3711 47.2353 35.3101C47.2566 35.249 47.2608 35.1842 47.2476 35.1213V34.7934V34.5638L47.1557 34.5474ZM55.5006 37.6957V28.2345C55.5006 28.1033 55.3535 27.923 55.041 27.6934C54.9737 27.6608 54.9166 27.6138 54.8749 27.5565C54.8332 27.4992 54.8081 27.4335 54.8021 27.3654V27.2343C54.8917 27.1702 54.9948 27.1226 55.1052 27.0945C55.2157 27.0663 55.3314 27.0581 55.4454 27.0703H63.4227C63.5688 27.0684 63.7134 27.0965 63.8454 27.1523C63.9584 27.1916 64.0504 27.2678 64.1028 27.3654C64.1028 27.4966 64.0109 27.6114 63.8087 27.7426C63.7125 27.7934 63.6298 27.8622 63.5663 27.9443C63.5028 28.0264 63.4601 28.1198 63.4411 28.2181V37.6957C63.4426 37.7702 63.4613 37.8436 63.4961 37.9113C63.5309 37.979 63.581 38.0396 63.6433 38.0892C63.9557 38.3188 64.1028 38.4828 64.1028 38.5811C64.1028 38.6795 64.1028 38.7451 63.9006 38.8107H63.4411H60.5001C60.3094 38.828 60.1173 38.7937 59.9487 38.7124C59.9065 38.6945 59.8705 38.6668 59.8446 38.6321C59.8187 38.5975 59.8039 38.5572 59.8017 38.5156C59.8017 38.4336 59.9487 38.2696 60.2612 38.0236C60.332 37.9787 60.3904 37.9198 60.4318 37.8516C60.4732 37.7834 60.4966 37.7076 60.5001 37.6301V29.4315C60.5341 29.1018 60.4773 28.7697 60.3347 28.4641C60.2559 28.3827 60.1563 28.3194 60.0444 28.2794C59.9324 28.2395 59.8114 28.224 59.6914 28.2345H59.287C59.1779 28.2328 59.0696 28.2508 58.9685 28.2874C58.8674 28.3241 58.7757 28.3786 58.6988 28.4477C58.5454 28.7565 58.4822 29.095 58.515 29.4315V37.6301C58.5259 37.779 58.5978 37.9191 58.7172 38.0236C59.0297 38.2532 59.1767 38.4172 59.1767 38.5156C59.1767 38.614 59.1767 38.6795 58.9745 38.7451H58.515H55.5006C55.3099 38.7624 55.1177 38.7281 54.9491 38.6467C54.91 38.6256 54.8765 38.597 54.8511 38.563C54.8257 38.529 54.8089 38.4904 54.8021 38.45C54.8021 38.368 54.9675 38.204 55.2616 37.958C55.3358 37.9161 55.3967 37.8579 55.4385 37.789C55.4803 37.7201 55.5017 37.6429 55.5006 37.5645V37.6957ZM76.6936 30.4809C76.4363 30.4809 76.1422 30.2842 75.8481 29.907L75.4253 29.3331C75.2426 29.036 75.0271 28.7558 74.782 28.4968C74.708 28.4028 74.596 28.3382 74.4695 28.3165C74.3588 28.3149 74.2489 28.3345 74.1474 28.3741C74.0459 28.4138 73.9552 28.4724 73.8813 28.546C73.7448 28.8532 73.6882 29.184 73.7159 29.5135V37.7121C73.7174 37.7866 73.7362 37.86 73.771 37.9277C73.8058 37.9954 73.8559 38.056 73.9181 38.1057C74.2306 38.3352 74.3776 38.4992 74.3776 38.5976C74.3776 38.6959 74.3776 38.7615 74.1754 38.8271H73.7159H70.7015C70.2603 38.8271 70.0398 38.7287 70.0398 38.532C70.0535 38.4533 70.0871 38.3785 70.1381 38.3132C70.189 38.2478 70.256 38.1937 70.3339 38.1549C70.5207 38.0302 70.6511 37.8498 70.7015 37.6465V29.4479C70.7354 29.1182 70.6787 28.7861 70.536 28.4804C70.465 28.3994 70.3721 28.3359 70.266 28.2958C70.1599 28.2556 70.0441 28.2402 69.9295 28.2509C69.8376 28.2509 69.7273 28.2509 69.5802 28.4477L69.0104 29.2511L68.4406 30.0382C68.3617 30.1474 68.2564 30.2395 68.1323 30.3076C68.0083 30.3757 67.8687 30.4181 67.7238 30.4317C67.5584 30.4058 67.4051 30.3374 67.2826 30.2349L67.0988 29.7922V29.1527C67.0988 28.9724 67.0988 28.8412 67.2091 28.7428L67.3378 28.1361L67.5767 27.4146C67.5785 27.3314 67.5989 27.2494 67.6368 27.1734C67.6747 27.0973 67.7293 27.0288 67.7973 26.9719C67.9697 26.8986 68.1578 26.8594 68.3487 26.8571L68.9369 26.9555C69.1323 26.9757 69.3297 26.9757 69.5251 26.9555H74.8555C75.0872 26.9842 75.3223 26.9842 75.554 26.9555L76.0319 26.8735C76.1777 26.8738 76.3218 26.9018 76.4547 26.9555C76.5833 26.9555 76.6936 27.1687 76.8223 27.431L77.1531 28.8412L77.2818 29.7922C77.2835 29.8744 77.2664 29.956 77.2316 30.0321C77.1969 30.1082 77.1452 30.1772 77.0796 30.2349C77.038 30.2932 76.9811 30.3415 76.9138 30.3758C76.8466 30.4101 76.771 30.4293 76.6936 30.4317V30.4809ZM85.884 38.8763H80.719C80.5404 38.8881 80.3618 38.8539 80.2043 38.7779C80.1652 38.7567 80.1317 38.7281 80.1063 38.6941C80.0809 38.6601 80.0641 38.6216 80.0573 38.5811C80.071 38.5025 80.1047 38.4277 80.1556 38.3624C80.2066 38.297 80.2735 38.2429 80.3514 38.204C80.4472 38.1451 80.529 38.0699 80.5921 37.9826C80.6552 37.8954 80.6983 37.7979 80.719 37.6957V28.2345C80.719 28.0541 80.572 27.8738 80.2962 27.6934C80.2289 27.6608 80.1718 27.6138 80.1301 27.5565C80.0884 27.4992 80.0633 27.4335 80.0573 27.3654C80.0573 27.1687 80.2779 27.0703 80.719 27.0703H85.9575C86.2017 27.0971 86.4486 27.0971 86.6928 27.0703L87.1523 26.9883C87.3004 26.9875 87.4462 27.0214 87.575 27.0867C87.6853 27.0867 87.7956 27.2671 87.9243 27.5458L88.5125 29.0216C88.6292 29.3125 88.7033 29.6156 88.733 29.9234C88.7421 29.9847 88.7333 30.0471 88.7076 30.1045C88.6818 30.162 88.6399 30.2125 88.586 30.2514L88.2184 30.3497C87.891 30.3184 87.589 30.1779 87.3729 29.9562L86.6009 29.1691C86.2466 28.8668 85.8586 28.5976 85.4429 28.3657C85.161 28.2098 84.8371 28.1247 84.5054 28.1197C84.3715 28.1145 84.2384 28.1405 84.1191 28.1951C83.9999 28.2497 83.8986 28.3311 83.8254 28.4312C83.7392 28.7201 83.6959 29.0178 83.6967 29.3167V30.3825C83.667 30.7121 83.7236 31.0433 83.8621 31.3499C83.9319 31.4321 84.0247 31.4966 84.1311 31.5369C84.2375 31.5772 84.3539 31.5919 84.4687 31.5795C84.6402 31.5795 84.8976 31.4156 85.2407 31.0876C85.3091 31.0114 85.3958 30.9497 85.4944 30.9071C85.593 30.8646 85.701 30.8422 85.8105 30.8416C85.9809 30.8444 86.1444 30.9028 86.27 31.0056C86.4843 31.1631 86.6595 31.3585 86.7847 31.5795L87.428 32.5962C87.6542 32.94 87.8273 33.3096 87.9427 33.6948C87.95 33.756 87.9405 33.8179 87.9148 33.875C87.8892 33.9322 87.8483 33.9829 87.7956 34.0227L87.428 34.1211C87.1608 34.1025 86.9083 34.0044 86.7111 33.8424L85.9208 33.252L85.2774 32.8749C85.0319 32.7471 84.753 32.6792 84.4687 32.6781C84.2505 32.6846 84.042 32.7602 83.8805 32.8913C83.7361 33.2025 83.6733 33.539 83.6967 33.8751V36.6299C83.6649 36.9595 83.7216 37.2911 83.8621 37.5973C83.8621 37.7613 84.1746 37.8269 84.4687 37.8269C84.8581 37.8338 85.2453 37.7726 85.6083 37.6465C86.0942 37.4426 86.5408 37.1714 86.9317 36.843L87.4831 36.2855C87.5979 36.1142 87.7554 35.9688 87.9436 35.8607C88.1317 35.7526 88.3452 35.6847 88.5676 35.6624C88.9168 35.6624 89.1006 35.81 89.1006 36.1052C89.061 36.533 88.9495 36.9531 88.7698 37.3514L88.2735 38.45L88.0529 38.9419C87.9925 39.0257 87.9074 39.093 87.8069 39.1364C87.7063 39.1798 87.5943 39.1976 87.4831 39.1878H87.2442C87.1033 39.1608 86.9673 39.1166 86.8398 39.0567L85.9391 38.9583L85.884 38.8763ZM92.593 27.0703H95.6074C95.7533 27.0706 95.8974 27.0985 96.0302 27.1523C96.1365 27.2006 96.2256 27.2745 96.2875 27.3654C96.2782 27.4453 96.2464 27.5219 96.1949 27.5878C96.1435 27.6538 96.0742 27.707 95.9934 27.7426C95.8982 27.7983 95.8165 27.8705 95.7534 27.9551C95.6902 28.0396 95.6468 28.1346 95.6258 28.2345V29.8742C95.6258 30.0218 95.6258 30.1202 95.7729 30.153H95.9383L97.5374 28.6936C97.6011 28.6293 97.6488 28.5536 97.6773 28.4717C97.7059 28.3897 97.7146 28.3033 97.7029 28.2181C97.6952 28.1482 97.6697 28.0809 97.6282 28.0212C97.5868 27.9615 97.5306 27.911 97.4639 27.8737C97.3968 27.8305 97.342 27.7739 97.3037 27.7084C97.2654 27.6429 97.2448 27.5705 97.2433 27.4966C97.2455 27.455 97.2604 27.4147 97.2863 27.38C97.3122 27.3454 97.3482 27.3176 97.3904 27.2998C97.5479 27.2239 97.7265 27.1897 97.905 27.2014H100.166C100.306 27.2015 100.444 27.2295 100.57 27.2835C100.68 27.3276 100.77 27.4025 100.828 27.4966C100.828 27.5558 100.811 27.614 100.779 27.6657C100.747 27.7174 100.7 27.7608 100.644 27.7918L100.313 28.0213L98.3829 29.6283V29.9234V30.317L101.14 37.8269C101.223 37.9528 101.344 38.0551 101.489 38.122C101.673 38.2532 101.783 38.3844 101.783 38.4992C101.783 38.614 101.783 38.6631 101.581 38.7287H101.103H97.9786C97.5374 38.7287 97.3169 38.6303 97.3169 38.4336C97.3298 38.3567 97.3611 38.2833 97.4087 38.2182C97.4562 38.1531 97.519 38.098 97.5926 38.0565C97.6884 37.9976 97.7702 37.9223 97.8333 37.835C97.8964 37.7478 97.9395 37.6503 97.9602 37.5481V37.2366L96.1221 32.3174C96.1221 32.1535 95.9934 32.0714 95.8648 32.0714C95.7361 32.0714 95.7177 32.1535 95.7177 32.3174V37.6301C95.7193 37.7046 95.738 37.778 95.7728 37.8457C95.8076 37.9134 95.8577 37.974 95.9199 38.0236C96.2324 38.2532 96.3794 38.4172 96.3794 38.5156C96.3794 38.614 96.3794 38.6795 96.1773 38.7451H95.7177H92.7217C92.5252 38.76 92.3279 38.7259 92.1519 38.6467C92.1142 38.6256 92.0829 38.5967 92.0605 38.5624C92.038 38.5282 92.0253 38.4896 92.0232 38.45C92.0232 38.368 92.1702 38.204 92.4827 37.958C92.5536 37.9131 92.6119 37.8542 92.6534 37.786C92.6948 37.7178 92.7181 37.642 92.7217 37.5645V28.1033C92.7217 27.9721 92.5562 27.7917 92.2438 27.5622C92.1809 27.5266 92.1282 27.4785 92.0899 27.4215C92.0517 27.3646 92.0288 27.3005 92.0232 27.2343V27.1031C92.1123 27.0381 92.2153 26.9901 92.3259 26.9619C92.4365 26.9337 92.5524 26.9259 92.6665 26.9391L92.593 27.0703ZM107.628 38.8763H105.551C105.373 38.8881 105.194 38.8539 105.037 38.7779C104.998 38.7567 104.964 38.7281 104.939 38.6941C104.913 38.6601 104.897 38.6216 104.89 38.5811C104.897 38.5069 104.924 38.4353 104.968 38.3724C105.013 38.3096 105.075 38.2574 105.147 38.2204C105.318 38.1131 105.451 37.9655 105.533 37.7941L108.088 27.9558L108.217 27.431C108.217 27.2507 108.492 27.1523 108.86 27.1523H110.128C110.303 27.1431 110.475 27.1961 110.606 27.2998C110.762 27.4977 110.875 27.7203 110.937 27.9558L113.933 37.7941C113.991 37.9724 114.122 38.1246 114.301 38.2204C114.378 38.2542 114.444 38.3052 114.492 38.3684C114.54 38.4316 114.569 38.5049 114.576 38.5811C114.576 38.6795 114.576 38.7451 114.374 38.8107H113.915H110.955C110.496 38.8107 110.275 38.7124 110.275 38.5156C110.275 38.3188 110.386 38.286 110.569 38.1549C110.66 38.1001 110.737 38.0299 110.797 37.9483C110.857 37.8667 110.899 37.7752 110.919 37.6793L110.827 37.253C110.8 37.0999 110.723 36.9573 110.606 36.843C110.465 36.7611 110.296 36.7263 110.128 36.7447H108.456C108.335 36.7315 108.212 36.751 108.104 36.8008C107.996 36.8505 107.907 36.9281 107.849 37.0234C107.757 37.2155 107.707 37.4214 107.702 37.6301C107.708 37.7054 107.73 37.779 107.768 37.8465C107.806 37.914 107.859 37.9742 107.923 38.0236C108.217 38.2532 108.382 38.4172 108.382 38.5156C108.382 38.614 108.382 38.6795 108.18 38.7451H107.702L107.628 38.8763ZM109.963 34.5474L109.485 32.9077C109.393 32.629 109.264 32.465 109.154 32.4322C109.044 32.3994 108.934 32.5962 108.823 32.9077L108.382 34.5474V35.1705C108.382 35.4493 108.566 35.5805 108.952 35.5805H109.558C109.628 35.5885 109.699 35.5822 109.766 35.562C109.832 35.5417 109.893 35.5081 109.942 35.4638C109.992 35.4194 110.03 35.3655 110.052 35.3061C110.075 35.2468 110.082 35.1835 110.073 35.1213V34.7934L109.963 34.5638V34.5474Z" fill="#F8EBBA"/>
<path fill-rule="evenodd" clip-rule="evenodd" d="M42.3165 19.8987H44.8082H45.0113C45.0716 19.8844 45.1355 19.8844 45.1958 19.8987C45.264 19.9447 45.3098 20.0091 45.325 20.0805L45.5834 20.641C45.5969 20.7569 45.5969 20.8736 45.5834 20.9895C45.5834 21.1107 45.5834 21.1561 45.362 21.1561C45.2257 21.1443 45.1002 21.0901 45.0113 21.0046L44.6975 20.7016C44.5408 20.5906 44.3742 20.4893 44.1991 20.3986C44.0873 20.3298 43.9513 20.2926 43.8115 20.2926C43.7562 20.2894 43.7008 20.299 43.6519 20.3205C43.6029 20.3419 43.5623 20.3742 43.5347 20.4138C43.5129 20.5292 43.5129 20.6468 43.5347 20.7622V24.0194C43.5354 24.0466 43.5441 24.0732 43.5602 24.097C43.5763 24.1208 43.5992 24.1409 43.627 24.1558C43.7562 24.2467 43.8115 24.3224 43.8115 24.3527C43.8115 24.383 43.8115 24.3527 43.7193 24.4436H42.2796C42.2796 24.4436 42.1135 24.4436 42.0766 24.4436C42.0685 24.4321 42.0642 24.419 42.0642 24.4058C42.0642 24.3925 42.0685 24.3794 42.0766 24.3678C42.0766 24.3678 42.0766 24.2769 42.2058 24.2315C42.2779 24.1795 42.3293 24.1109 42.3534 24.0346V20.3835C42.3534 20.3835 42.3534 20.2471 42.1689 20.1714C42.1433 20.1558 42.123 20.1351 42.1101 20.1112C42.0971 20.0873 42.092 20.061 42.095 20.035C42.095 19.9593 42.1873 19.9138 42.3719 19.9138L42.3165 19.8987ZM48.4074 24.5497C47.8949 24.579 47.3876 24.4492 46.9862 24.186C46.7379 23.9419 46.5526 23.6589 46.4415 23.3542C46.3305 23.0495 46.296 22.7295 46.3402 22.4135C46.3345 22.0822 46.3779 21.7516 46.4694 21.4288C46.548 21.1441 46.6853 20.8726 46.8754 20.6259C47.0179 20.3917 47.2363 20.1942 47.5065 20.0553C47.7768 19.9163 48.0885 19.8411 48.4074 19.8381C48.7236 19.8505 49.0306 19.9295 49.2989 20.0675C49.5672 20.2054 49.7877 20.3977 49.9393 20.6259C50.327 21.1665 50.5191 21.7866 50.493 22.4135C50.5343 22.7282 50.4966 23.0464 50.3824 23.3487C50.2681 23.6509 50.0796 23.9307 49.8286 24.1709C49.634 24.3081 49.4082 24.4122 49.1642 24.4772C48.9203 24.5422 48.663 24.5669 48.4074 24.5497ZM47.8352 22.262C47.8009 22.7444 47.8443 23.2283 47.9644 23.7013C47.9821 23.7909 48.0384 23.8723 48.1231 23.9307C48.2078 23.9891 48.3152 24.0206 48.4258 24.0194C49.1272 24.0194 48.9796 22.6105 48.9796 22.262C49.0014 21.7267 48.9331 21.1914 48.7765 20.6713C48.7765 20.4138 48.555 20.2774 48.4074 20.2774C48.2597 20.2774 48.149 20.4138 48.0382 20.6713C47.9303 21.0491 47.8685 21.4348 47.8537 21.8227C47.8537 22.0499 47.8537 22.1863 47.8537 22.262H47.8352ZM55.0151 21.0501C55.0295 21.105 55.0295 21.1618 55.0151 21.2167C54.9951 21.2379 54.9701 21.2556 54.9415 21.2687C54.913 21.2817 54.8815 21.2898 54.8489 21.2924C54.7197 21.2924 54.5905 21.2167 54.4429 21.0652L54.2768 20.8228L54.0737 20.5198C54.0404 20.4566 53.9867 20.402 53.9184 20.362C53.8501 20.3219 53.7698 20.2979 53.6861 20.2926C53.5569 20.2926 53.4277 20.4137 53.317 20.6864C53.3091 20.7974 53.3091 20.9087 53.317 21.0197C53.317 21.1561 53.317 21.2621 53.317 21.3379C53.317 21.4136 53.317 21.6106 53.317 21.8378C53.317 22.0651 53.317 22.2015 53.317 22.2772C53.2826 22.7595 53.3261 23.2434 53.4462 23.7164C53.4638 23.802 53.5182 23.8796 53.5994 23.9352C53.6806 23.9908 53.7834 24.0206 53.8892 24.0194C54.0059 24.0217 54.1206 23.9936 54.2167 23.9392C54.3128 23.8848 54.3855 23.8068 54.4244 23.7164C54.4369 23.6258 54.4369 23.5343 54.4244 23.4437C54.4436 23.3332 54.4436 23.221 54.4244 23.1104C54.3783 22.9664 54.3783 22.8151 54.4244 22.6711C54.4514 22.6356 54.4899 22.6069 54.5354 22.5882C54.581 22.5695 54.632 22.5615 54.6828 22.5651C54.7636 22.5642 54.8429 22.5823 54.9116 22.6172C54.9802 22.652 55.0353 22.7023 55.0704 22.762C55.1922 22.9367 55.2499 23.1366 55.2365 23.3377C55.2402 23.5085 55.1993 23.6781 55.1166 23.8349C55.0338 23.9916 54.9111 24.132 54.7567 24.2467C54.4549 24.4486 54.0755 24.556 53.6861 24.5497C53.1736 24.579 52.6664 24.4492 52.2649 24.186C52.0217 23.9424 51.8394 23.6618 51.7285 23.3602C51.6177 23.0587 51.5804 22.7421 51.6189 22.4287C51.5949 21.7923 51.7866 21.163 52.1727 20.6107C52.3155 20.3823 52.5323 20.1906 52.7994 20.057C53.0665 19.9233 53.3733 19.8528 53.6861 19.8532H53.9999H54.1291H54.2952H54.4798H54.6828C54.6828 19.8532 54.7936 19.9441 54.8305 20.0502C54.9594 20.3587 55.0401 20.6794 55.0704 21.0046L55.0151 21.0501ZM59.4448 19.8987H60.1831C60.2491 19.8813 60.3201 19.8813 60.3861 19.8987C60.3942 19.9102 60.3985 19.9232 60.3985 19.9365C60.3985 19.9498 60.3942 19.9629 60.3861 19.9744C60.3861 19.9744 60.3861 20.0502 60.2754 20.0956C60.1979 20.1484 60.1296 20.2095 60.0723 20.2774L58.7619 23.5649C58.6651 23.8463 58.4806 24.1022 58.2266 24.3073C57.9918 24.4608 57.6955 24.5364 57.396 24.5193C57.0608 24.5219 56.7371 24.4189 56.4916 24.2315C56.3657 24.1446 56.2654 24.0353 56.1982 23.912C56.1311 23.7887 56.0989 23.6545 56.104 23.5195C56.0847 23.2762 56.1696 23.0351 56.344 22.8377C56.4239 22.7536 56.5284 22.6873 56.6477 22.6449C56.767 22.6025 56.8974 22.5855 57.0269 22.5953C57.234 22.5854 57.4381 22.6395 57.5991 22.7468C57.6459 22.7719 57.6852 22.8054 57.714 22.8448C57.7428 22.8841 57.7603 22.9283 57.7652 22.9741C57.7794 23.0239 57.7794 23.0758 57.7652 23.1256C57.7652 23.1256 57.7652 23.1256 57.5622 23.1256C57.4898 23.1087 57.4131 23.1087 57.3407 23.1256C57.2659 23.2253 57.2335 23.3425 57.2484 23.4589V23.7013V23.8376C57.2788 23.875 57.32 23.9056 57.3683 23.9267C57.4166 23.9479 57.4705 23.9589 57.5252 23.9588C57.6544 23.9588 57.7836 23.8376 57.9313 23.6103C58.0221 23.4592 58.0724 23.294 58.079 23.1256C58.1028 23.0306 58.1028 22.9327 58.079 22.8377L56.6208 20.1562C56.6208 20.1562 56.6208 20.0805 56.4547 20.035C56.4173 20.028 56.384 20.0106 56.3605 19.9858C56.3369 19.9609 56.3246 19.9301 56.3255 19.8987C56.3255 19.8987 56.3255 19.8986 56.3255 19.8229C56.3978 19.8052 56.4748 19.8052 56.547 19.8229H57.6914H57.8759V19.9138C57.8846 19.9306 57.889 19.9486 57.889 19.9668C57.889 19.985 57.8846 20.0031 57.8759 20.0198C57.8637 20.0439 57.8575 20.0696 57.8575 20.0956C57.8575 20.1216 57.8637 20.1474 57.8759 20.1714L58.6511 21.5803L59.2048 20.2016C59.2048 20.2016 59.2048 20.1259 59.0941 20.0653C58.9834 20.0047 58.9649 19.9744 58.9649 19.929C58.9649 19.8835 58.9649 19.929 58.9649 19.8532C59.0304 19.8335 59.1024 19.8335 59.1679 19.8532L59.4448 19.8987ZM62.0288 19.8987C61.952 19.8726 61.8657 19.8726 61.7888 19.8987V20.0653L60.7183 23.8376V23.9285C60.6956 23.9509 60.6674 23.9691 60.6357 23.9822C60.6039 23.9952 60.5692 24.0027 60.5338 24.0043C60.423 24.0043 60.3676 24.0043 60.3492 24.0952V24.186V24.3982L60.4599 24.6102C60.5136 24.7533 60.588 24.8907 60.6814 25.0193C60.6814 25.0193 60.6814 25.095 60.866 25.095C60.9164 25.0982 60.9668 25.0882 61.0099 25.0664C61.053 25.0446 61.0866 25.0123 61.1059 24.9739V24.7466V24.5042C61.1059 24.4133 61.2167 24.3678 61.3643 24.3678H63.2101C63.266 24.3634 63.3219 24.3766 63.3665 24.4047C63.411 24.4329 63.4409 24.4738 63.45 24.5193V24.7315V24.9435C63.4632 24.9903 63.4967 25.0315 63.5443 25.0594C63.5919 25.0873 63.6502 25.1 63.7084 25.095C63.7446 25.0971 63.7808 25.0912 63.8133 25.0778C63.8457 25.0645 63.8733 25.0443 63.893 25.0193L64.1145 24.6102L64.2621 24.3073V24.0952C64.2621 24.0952 64.2621 24.0194 64.096 24.0043C63.9299 23.9891 63.9114 24.0043 63.8561 23.8376L62.6194 20.0956V19.929C62.6194 19.929 62.5087 19.838 62.3795 19.8229L62.0288 19.8987ZM62.2503 21.9439L62.8594 23.7922V23.8982V23.974C62.8594 23.974 62.8594 23.974 62.7302 23.974H61.5674C61.5674 23.974 61.4197 23.974 61.4197 23.8831V23.6861L61.9365 21.8681C61.9365 21.757 61.9734 21.6964 62.0473 21.6863V21.8227L62.2503 21.9439ZM66.6616 24.4436H65.7571C65.7571 24.4436 65.591 24.4436 65.5541 24.4436C65.5428 24.4192 65.5428 24.3922 65.5541 24.3678C65.5583 24.3396 65.5705 24.3126 65.5897 24.2889C65.6089 24.2652 65.6347 24.2455 65.6649 24.2315C65.7395 24.191 65.7974 24.1329 65.831 24.0649L66.9015 20.2471V20.035C66.9015 20.035 67.0122 19.929 67.1784 19.929H67.7136C67.7801 19.9141 67.8502 19.9141 67.9166 19.929C67.9799 20.007 68.0238 20.0945 68.0458 20.1865L69.3009 24.0043C69.3217 24.0735 69.3747 24.1334 69.4486 24.1709C69.4486 24.1709 69.5778 24.2618 69.5778 24.3073C69.5778 24.3527 69.5778 24.3073 69.4855 24.3982H68.0458C67.8613 24.3982 67.769 24.3982 67.769 24.2921C67.7755 24.2645 67.7887 24.2382 67.8077 24.2148C67.8267 24.1914 67.8512 24.1713 67.8797 24.1558C67.9183 24.1355 67.9513 24.1088 67.9767 24.0775C68.0021 24.0463 68.0194 24.011 68.0274 23.974V23.8073C68.0216 23.7489 67.9885 23.6947 67.9351 23.6558C67.903 23.6446 67.8685 23.6388 67.8336 23.6388C67.7987 23.6388 67.7642 23.6446 67.7321 23.6558H67.0307C66.9823 23.6515 66.9335 23.6592 66.8906 23.6782C66.8477 23.6971 66.8129 23.7263 66.7908 23.7619C66.7631 23.8411 66.7631 23.9251 66.7908 24.0043C66.7725 24.0485 66.7725 24.0964 66.7908 24.1406C66.92 24.2315 66.9938 24.3073 66.9938 24.3376C66.9938 24.3679 66.9938 24.3376 66.9938 24.4285L66.6616 24.4436ZM67.6213 22.7923L67.4183 22.1711C67.4183 22.0651 67.4183 22.0045 67.2706 21.9894C67.123 21.9742 67.2706 21.9893 67.1414 22.1711L66.9569 22.7771V23.065C66.9569 23.171 66.9569 23.2316 67.1968 23.2316H67.4368C67.4665 23.2339 67.4966 23.2309 67.5248 23.2226C67.5529 23.2143 67.5785 23.2009 67.5997 23.1836C67.6209 23.1662 67.6371 23.1452 67.6472 23.1221C67.6573 23.099 67.6611 23.0743 67.6582 23.0498V22.9286V22.8377L67.6213 22.7923ZM70.8698 24.0043V20.3531C70.8698 20.3531 70.8698 20.232 70.6852 20.1411C70.6562 20.1315 70.6316 20.1146 70.615 20.0928C70.5984 20.071 70.5907 20.0455 70.5929 20.0198C70.6335 20.0048 70.6776 19.997 70.7221 19.997C70.7667 19.997 70.8107 20.0048 70.8513 20.0198H72.2172C72.7463 20.0368 73.2505 20.2088 73.6384 20.5047C73.902 20.6763 74.1163 20.8936 74.2659 21.141C74.3983 21.3734 74.4675 21.6267 74.4689 21.8833C74.4765 22.0541 74.4411 22.2243 74.3649 22.3833C74.2886 22.5423 74.1733 22.6867 74.026 22.8074C73.8179 22.9745 73.5684 23.103 73.2946 23.184C73.0207 23.2651 72.7288 23.2968 72.4386 23.2771C72.3505 23.2792 72.2659 23.3059 72.1987 23.3528C72.1604 23.4771 72.1604 23.6073 72.1987 23.7316V24.1255C72.1772 24.1692 72.1772 24.2181 72.1987 24.2618C72.3279 24.3527 72.4017 24.4285 72.4017 24.4588C72.4017 24.4891 72.4017 24.4588 72.3094 24.5497H70.8698C70.759 24.5497 70.6852 24.5497 70.6483 24.5497C70.6402 24.5382 70.6359 24.5251 70.6359 24.5118C70.6359 24.4985 70.6402 24.4854 70.6483 24.4739C70.6483 24.4739 70.6483 24.383 70.8329 24.2769C70.8634 24.2647 70.8886 24.2451 70.9051 24.2207C70.9216 24.1963 70.9286 24.1683 70.9252 24.1406L70.8698 24.0043ZM72.4386 20.3986C72.3505 20.4007 72.2659 20.4275 72.1987 20.4744C72.1604 20.5987 72.1604 20.7288 72.1987 20.8531V22.2014C72.1689 22.3265 72.1689 22.4551 72.1987 22.5802C72.2292 22.6118 72.2688 22.6366 72.3139 22.6525C72.359 22.6684 72.4082 22.6747 72.4571 22.6711C72.554 22.6702 72.6486 22.6471 72.7302 22.6042C72.8118 22.5614 72.877 22.5005 72.9185 22.4287C73.0467 22.2389 73.1104 22.0244 73.1031 21.8076C73.1082 21.472 73.0394 21.1383 72.9001 20.8228C72.7709 20.5349 72.6232 20.3986 72.4571 20.3986H72.4386ZM78.8248 21.0501C78.8393 21.105 78.8393 21.1618 78.8248 21.2167C78.8049 21.2379 78.7799 21.2556 78.7513 21.2687C78.7227 21.2817 78.6912 21.2898 78.6587 21.2924C78.5295 21.2924 78.4003 21.2167 78.2527 21.0652L78.0866 20.8228L77.8835 20.5198C77.8502 20.4566 77.7965 20.402 77.7282 20.362C77.6599 20.3219 77.5796 20.2979 77.4959 20.2926C77.3667 20.2926 77.2375 20.4137 77.1268 20.6864C77.0879 20.7959 77.0571 20.9072 77.0345 21.0197C77.0345 21.1561 77.0345 21.2621 77.0345 21.3379C77.0345 21.4136 77.0345 21.6106 77.0345 21.8378C77.0345 22.0651 77.0345 22.2015 77.0345 22.2772C77.0001 22.7595 77.0436 23.2434 77.1637 23.7164C77.1813 23.802 77.2356 23.8796 77.3169 23.9352C77.3981 23.9908 77.5009 24.0206 77.6067 24.0194C77.7234 24.0217 77.838 23.9936 77.9342 23.9392C78.0303 23.8848 78.103 23.8068 78.1419 23.7164C78.1544 23.6258 78.1544 23.5343 78.1419 23.4437C78.1611 23.3332 78.1611 23.221 78.1419 23.1104C78.0958 22.9664 78.0958 22.8151 78.1419 22.6711C78.1689 22.6356 78.2073 22.6069 78.2529 22.5882C78.2985 22.5695 78.3495 22.5615 78.4003 22.5651C78.4811 22.5642 78.5604 22.5823 78.6291 22.6172C78.6977 22.652 78.7528 22.7023 78.7879 22.762C78.9097 22.9367 78.9674 23.1366 78.954 23.3377C78.9577 23.5085 78.9168 23.6781 78.8341 23.8349C78.7513 23.9916 78.6286 24.132 78.4742 24.2467C78.1723 24.4486 77.7929 24.556 77.4036 24.5497C76.8911 24.579 76.3839 24.4492 75.9824 24.186C75.7392 23.9424 75.5569 23.6618 75.446 23.3602C75.3352 23.0587 75.2979 22.7421 75.3364 22.4287C75.3124 21.7923 75.5041 21.163 75.8901 20.6107C76.0329 20.3823 76.2498 20.1906 76.5169 20.057C76.784 19.9233 77.0908 19.8528 77.4036 19.8532H77.7174H77.8466H78.0127H78.1973H78.4003C78.4003 19.8532 78.5111 19.9441 78.548 20.0502C78.6769 20.3587 78.7575 20.6794 78.7879 21.0046L78.8248 21.0501ZM84.0851 21.2167C84.0851 21.2167 83.8636 21.2167 83.7344 21.0046L83.5683 20.7773C83.4909 20.6631 83.398 20.5564 83.2915 20.4592C83.2915 20.4592 83.2915 20.4592 83.1623 20.4592C83.1162 20.4567 83.0701 20.4638 83.0282 20.4796C82.9863 20.4955 82.9499 20.5197 82.9223 20.5501C82.8824 20.6742 82.8824 20.8047 82.9223 20.9288V24.08C82.9008 24.1238 82.9008 24.1726 82.9223 24.2164C83.0515 24.3073 83.1254 24.383 83.1254 24.4133C83.1254 24.4436 83.1254 24.4133 83.1254 24.5042H81.5934C81.3904 24.5042 81.2981 24.5042 81.2981 24.3982C81.2981 24.2921 81.2981 24.3073 81.4273 24.2618C81.5046 24.2106 81.5623 24.1423 81.5934 24.0649V20.9137C81.6258 20.7888 81.6258 20.6598 81.5934 20.5349C81.5629 20.5034 81.5234 20.4785 81.4782 20.4626C81.4331 20.4468 81.3839 20.4404 81.335 20.444C81.2867 20.4331 81.2357 20.4331 81.1874 20.444L80.9474 20.7622L80.7075 21.0652C80.6733 21.1055 80.6295 21.1397 80.5787 21.1657C80.528 21.1918 80.4713 21.2091 80.4122 21.2167L80.2276 21.141V20.9591V20.7168C80.2329 20.6664 80.2329 20.6157 80.2276 20.5653V20.3229L80.3199 20.0502C80.3199 19.9593 80.3199 19.8987 80.3199 19.8835C80.3982 19.8646 80.4815 19.8646 80.5598 19.8835H80.7998H83.6237H83.8267C83.8808 19.8695 83.9388 19.8695 83.9928 19.8835C83.9928 19.8835 84.1036 19.9592 84.1405 20.0653L84.2882 20.6107V20.9743C84.3122 21.0281 84.3122 21.0872 84.2882 21.141C84.2629 21.1529 84.2343 21.1592 84.2051 21.1592C84.176 21.1592 84.1473 21.1529 84.122 21.141L84.0851 21.2167ZM85.7832 24.0043V20.3531C85.7832 20.3531 85.7832 20.2168 85.5986 20.1411C85.5857 20.1226 85.5788 20.1017 85.5788 20.0805C85.5788 20.0592 85.5857 20.0383 85.5986 20.0198C85.5986 19.9441 85.5986 19.8987 85.8755 19.8987H87.0567C87.5591 19.8818 88.0556 19.9929 88.4779 20.2168C88.6511 20.2934 88.7958 20.4072 88.8965 20.5459C88.9973 20.6846 89.0504 20.8431 89.0501 21.0046C89.0579 21.0938 89.0421 21.1832 89.0039 21.2669C88.9656 21.3505 88.9059 21.4264 88.8286 21.4894L88.4041 21.7318V21.8227C88.4041 21.8227 88.4041 21.8227 88.4041 21.8985C88.7061 22.0464 88.9798 22.2301 89.2162 22.4438C89.27 22.4966 89.3193 22.5523 89.3639 22.6105L89.4562 22.7771V22.9589C89.4653 23.0193 89.4653 23.0803 89.4562 23.1407C89.468 23.3508 89.4065 23.5594 89.279 23.7418C89.1515 23.9243 88.9633 24.0732 88.7363 24.1709C88.2629 24.3687 87.7352 24.4626 87.2044 24.4436H85.7648C85.6927 24.4622 85.6153 24.4622 85.5433 24.4436C85.5352 24.4321 85.5309 24.419 85.5309 24.4058C85.5309 24.3925 85.5352 24.3794 85.5433 24.3678C85.5474 24.3396 85.5596 24.3126 85.5789 24.2889C85.5981 24.2652 85.6238 24.2455 85.654 24.2315C85.7372 24.185 85.7964 24.1149 85.8201 24.0346L85.7832 24.0043ZM87.3521 20.3077C87.3076 20.3035 87.2625 20.3081 87.2207 20.3213C87.1789 20.3345 87.1417 20.3559 87.1121 20.3835C87.0722 20.5076 87.0722 20.6381 87.1121 20.7622V21.0349C87.0675 21.1585 87.0675 21.2901 87.1121 21.4137C87.1384 21.4451 87.1746 21.4702 87.2169 21.4862C87.2591 21.5022 87.3058 21.5085 87.3521 21.5045C87.4065 21.5034 87.4599 21.4918 87.5079 21.4708C87.556 21.4498 87.5974 21.4198 87.6289 21.3834C87.6602 21.2584 87.6602 21.1296 87.6289 21.0046C87.6586 20.8541 87.6586 20.7006 87.6289 20.5501C87.6289 20.3835 87.4628 20.3077 87.3705 20.3077H87.3521ZM87.3521 22.0651C87.2633 22.0645 87.1775 22.0916 87.1121 22.1409C87.0722 22.265 87.0722 22.3955 87.1121 22.5196V23.5952C87.0807 23.7151 87.0807 23.839 87.1121 23.9588C87.1121 23.9588 87.2413 24.0497 87.3705 24.0497C87.4997 24.0497 87.7028 23.9437 87.8504 23.7467C87.9676 23.5705 88.0249 23.3717 88.0165 23.171C88.0183 22.8846 87.9292 22.6026 87.7581 22.3529C87.6289 22.1711 87.4997 22.0802 87.3705 22.0651H87.3521ZM92.8892 24.4436H90.7113C90.7113 24.4436 90.5452 24.4436 90.5082 24.4436C90.5001 24.4321 90.4959 24.419 90.4959 24.4058C90.4959 24.3925 90.5001 24.3794 90.5082 24.3678C90.5082 24.3678 90.5082 24.2769 90.6374 24.2315C90.7096 24.1795 90.761 24.1109 90.7851 24.0346V20.3835C90.7851 20.3835 90.7851 20.2471 90.6005 20.1714C90.5904 20.1522 90.5851 20.1316 90.5851 20.1107C90.5851 20.0899 90.5904 20.0693 90.6005 20.0502C90.6005 19.9744 90.6005 19.929 90.8774 19.929H93.3691H93.5721C93.6324 19.9146 93.6964 19.9146 93.7567 19.929C93.7705 19.9631 93.7767 19.999 93.7752 20.035L94.0336 20.5955C94.047 20.7114 94.047 20.8281 94.0336 20.944C94.0551 20.9877 94.0551 21.0366 94.0336 21.0804H93.8675C93.7313 21.0685 93.6057 21.0143 93.5168 20.9288L93.203 20.6259C93.0463 20.5149 92.8797 20.4136 92.7046 20.3229C92.5928 20.254 92.4568 20.2168 92.317 20.2168C92.2617 20.2136 92.2064 20.2233 92.1574 20.2447C92.1084 20.2662 92.0678 20.2985 92.0402 20.338C92.0184 20.4535 92.0184 20.571 92.0402 20.6864V21.0955C92.0113 21.2156 92.0113 21.3391 92.0402 21.4591C92.0707 21.4907 92.1103 21.5155 92.1554 21.5314C92.2005 21.5473 92.2497 21.5537 92.2986 21.55C92.2986 21.55 92.4832 21.55 92.6308 21.3682C92.6595 21.3388 92.6961 21.3153 92.7377 21.2995C92.7794 21.2837 92.8249 21.2761 92.8708 21.2773C92.9302 21.2587 92.9959 21.2587 93.0553 21.2773C93.1509 21.3305 93.2274 21.4037 93.2768 21.4894L93.5352 21.8833C93.6268 22.018 93.701 22.1602 93.7567 22.3075C93.7697 22.3286 93.7764 22.352 93.7764 22.3757C93.7764 22.3994 93.7697 22.4227 93.7567 22.4438H93.6091C93.499 22.4363 93.3951 22.399 93.3137 22.3378L92.9815 22.1105L92.7046 21.959C92.6043 21.9095 92.4895 21.8834 92.3724 21.8833C92.327 21.8842 92.2822 21.8927 92.241 21.9083C92.1997 21.9239 92.1628 21.9464 92.1325 21.9742C92.0926 22.0983 92.0926 22.2288 92.1325 22.3529V23.4134C92.1036 23.5335 92.1036 23.657 92.1325 23.777C92.163 23.8086 92.2025 23.8335 92.2477 23.8493C92.2928 23.8652 92.342 23.8716 92.3909 23.8679C92.5496 23.8908 92.712 23.8908 92.8708 23.8679C93.073 23.7842 93.2594 23.6771 93.4245 23.5498L93.6644 23.3377C93.7121 23.2731 93.7765 23.2179 93.853 23.176C93.9296 23.1341 94.0164 23.1065 94.1074 23.0953C94.2551 23.0953 94.3289 23.0953 94.3289 23.2619C94.3186 23.4283 94.2749 23.5921 94.1997 23.7467L93.9967 24.1709L93.8859 24.3527C93.8695 24.3886 93.8385 24.4188 93.7981 24.4381C93.7578 24.4574 93.7106 24.4647 93.6644 24.4588H93.5537H93.3876H93.0184L92.8892 24.4436ZM99.0724 24.4436H97.8357C97.7573 24.4617 97.6743 24.4617 97.5958 24.4436C97.5877 24.4321 97.5834 24.419 97.5834 24.4058C97.5834 24.3925 97.5877 24.3794 97.5958 24.3678C97.5958 24.3678 97.5958 24.277 97.7988 24.1709C97.8105 24.1495 97.8166 24.1262 97.8166 24.1027C97.8166 24.0792 97.8105 24.056 97.7988 24.0346V22.7165C97.8405 22.5926 97.8405 22.4617 97.7988 22.3378C97.7988 22.3378 97.6696 22.262 97.5404 22.262H97.3743C97.3272 22.2598 97.2801 22.2653 97.2357 22.2783C97.1913 22.2913 97.1506 22.3115 97.1159 22.3378C97.076 22.4619 97.076 22.5924 97.1159 22.7165V24.0346C97.0976 24.0788 97.0976 24.1267 97.1159 24.1709C97.2451 24.2618 97.3005 24.3375 97.3005 24.3678C97.3005 24.3981 97.3005 24.3679 97.3005 24.4588H95.8608C95.7316 24.4588 95.6578 24.4588 95.6209 24.4588C95.6128 24.4473 95.6085 24.4342 95.6085 24.4209C95.6085 24.4076 95.6128 24.3945 95.6209 24.383C95.6209 24.383 95.6209 24.2921 95.8055 24.186C95.8379 24.1744 95.8656 24.1554 95.8852 24.1313C95.9049 24.1071 95.9156 24.0788 95.9162 24.0497V20.3986C95.9162 20.3986 95.9162 20.2774 95.7132 20.1865C95.703 20.1674 95.6978 20.1468 95.6978 20.1259C95.6978 20.1051 95.703 20.0844 95.7132 20.0653C95.7569 20.0499 95.804 20.0419 95.8516 20.0419C95.8992 20.0419 95.9463 20.0499 95.99 20.0653H97.2451H97.4112C97.4569 20.0874 97.495 20.1187 97.522 20.1562C97.522 20.1562 97.522 20.2471 97.4112 20.3077C97.3692 20.3264 97.3327 20.3523 97.304 20.3837C97.2753 20.4151 97.2552 20.4512 97.2451 20.4895V21.4137C97.2035 21.5376 97.2035 21.6685 97.2451 21.7924C97.2451 21.7924 97.3743 21.8681 97.5035 21.8681H97.4666C97.5139 21.8724 97.5617 21.8678 97.6064 21.8547C97.6512 21.8416 97.6917 21.8203 97.725 21.7924C97.7667 21.6685 97.7667 21.5376 97.725 21.4137V20.4895C97.725 20.4895 97.725 20.3683 97.522 20.2774C97.5118 20.2583 97.5066 20.2377 97.5066 20.2168C97.5066 20.1959 97.5118 20.1753 97.522 20.1562C97.6111 20.1282 97.7097 20.1282 97.7988 20.1562H99.0539H99.2385C99.2495 20.1111 99.275 20.0693 99.3123 20.035C99.3123 20.035 99.3123 20.1259 99.1831 20.1865C99.1081 20.2299 99.0554 20.2947 99.0355 20.3683V24.0194C99.0139 24.0632 99.0139 24.112 99.0355 24.1558C99.1647 24.2467 99.2385 24.3224 99.2385 24.3527C99.2385 24.383 99.2385 24.3527 99.2385 24.4436H99.0724ZM104.277 24.4436H103.004C102.925 24.4617 102.842 24.4617 102.764 24.4436C102.756 24.4321 102.751 24.419 102.751 24.4058C102.751 24.3925 102.756 24.3794 102.764 24.3678C102.764 24.3678 102.764 24.277 102.967 24.1709C102.979 24.1495 102.985 24.1262 102.985 24.1027C102.985 24.0792 102.979 24.056 102.967 24.0346V22.7165C103.009 22.5926 103.009 22.4617 102.967 22.3378C102.967 22.3378 102.838 22.262 102.708 22.262H102.542C102.495 22.2598 102.448 22.2653 102.404 22.2783C102.359 22.2913 102.319 22.3115 102.284 22.3378C102.244 22.4619 102.244 22.5924 102.284 22.7165V24.0346C102.292 24.088 102.325 24.1368 102.376 24.1709C102.505 24.2618 102.561 24.3375 102.561 24.3678C102.561 24.3981 102.561 24.3679 102.561 24.4588H100.973C100.844 24.4588 100.77 24.4588 100.734 24.4588C100.725 24.4473 100.721 24.4342 100.721 24.4209C100.721 24.4076 100.725 24.3945 100.734 24.383C100.734 24.383 100.734 24.2921 100.918 24.186C100.951 24.1744 100.978 24.1554 100.998 24.1313C101.017 24.1071 101.028 24.0788 101.029 24.0497V20.3986C101.029 20.3986 101.029 20.2774 100.826 20.1865C100.799 20.1741 100.777 20.1565 100.761 20.1354C100.745 20.1142 100.736 20.0902 100.734 20.0653C100.777 20.0499 100.824 20.0419 100.872 20.0419C100.92 20.0419 100.967 20.0499 101.01 20.0653H102.265H102.432C102.477 20.0874 102.515 20.1187 102.542 20.1562C102.542 20.1562 102.542 20.2471 102.432 20.3077C102.39 20.3264 102.353 20.3523 102.324 20.3837C102.296 20.4151 102.276 20.4512 102.265 20.4895V21.4137C102.224 21.5376 102.224 21.6685 102.265 21.7924C102.265 21.7924 102.395 21.8681 102.524 21.8681H102.69C102.737 21.8724 102.785 21.8678 102.83 21.8547C102.875 21.8416 102.915 21.8203 102.948 21.7924C102.99 21.6685 102.99 21.5376 102.948 21.4137V20.4895C102.948 20.4895 102.948 20.3683 102.764 20.2774C102.733 20.2685 102.706 20.2522 102.686 20.2306C102.666 20.209 102.655 20.1831 102.653 20.1562C102.742 20.1282 102.841 20.1282 102.93 20.1562H104.185H104.37L104.48 20.2471C104.48 20.2471 104.48 20.338 104.351 20.3986C104.276 20.442 104.223 20.5068 104.203 20.5804V24.2315C104.182 24.2752 104.182 24.3241 104.203 24.3678C104.333 24.4587 104.407 24.5345 104.407 24.5648C104.407 24.5951 104.407 24.5648 104.407 24.6557L104.277 24.4436ZM106.991 24.4436H106.086C106.014 24.4605 105.937 24.4605 105.865 24.4436C105.857 24.4321 105.852 24.419 105.852 24.4058C105.852 24.3925 105.857 24.3794 105.865 24.3678C105.869 24.3396 105.881 24.3126 105.9 24.2889C105.919 24.2652 105.945 24.2455 105.975 24.2315C106.049 24.1939 106.102 24.1341 106.123 24.0649L107.212 20.2471V20.035C107.212 20.035 107.323 19.929 107.47 19.929H108.006C108.071 19.9093 108.143 19.9093 108.209 19.929C108.28 20.0034 108.324 20.0926 108.338 20.1865L109.611 24.0043C109.618 24.0396 109.635 24.0732 109.661 24.1021C109.687 24.1311 109.72 24.1547 109.759 24.1709C109.789 24.185 109.815 24.2046 109.834 24.2283C109.853 24.2519 109.866 24.279 109.87 24.3073C109.87 24.3073 109.87 24.3073 109.87 24.3982H108.356C108.172 24.3982 108.079 24.3982 108.079 24.2921C108.102 24.2358 108.148 24.1877 108.209 24.1558C108.28 24.1097 108.332 24.046 108.356 23.974V23.8073C108.356 23.8073 108.356 23.671 108.356 23.6558C108.291 23.6361 108.219 23.6361 108.153 23.6558H107.452C107.401 23.6523 107.35 23.6603 107.305 23.679C107.259 23.6977 107.221 23.7264 107.194 23.7619C107.174 23.8419 107.174 23.9242 107.194 24.0043C107.175 24.0485 107.175 24.0964 107.194 24.1406C107.323 24.2315 107.378 24.3073 107.378 24.3376C107.378 24.3679 107.378 24.3376 107.378 24.4285L106.991 24.4436ZM107.932 22.7923L107.729 22.1711C107.714 22.0998 107.668 22.0353 107.6 21.9894C107.6 21.9894 107.6 21.9893 107.452 22.1711L107.267 22.7771V23.065C107.267 23.171 107.36 23.2316 107.507 23.2316H107.766C107.796 23.2339 107.826 23.2309 107.854 23.2226C107.882 23.2143 107.907 23.2009 107.929 23.1836C107.95 23.1662 107.966 23.1452 107.976 23.1221C107.986 23.099 107.99 23.0743 107.987 23.0498V22.9286V22.8377L107.932 22.7923ZM114.576 19.8987H113.174C112.683 19.9159 112.212 20.059 111.826 20.3077C111.56 20.441 111.338 20.6276 111.183 20.8502C111.028 21.0728 110.945 21.324 110.94 21.5803C110.942 21.8049 111.032 22.023 111.199 22.2014C111.338 22.3453 111.507 22.4684 111.697 22.5651C111.71 22.5835 111.717 22.6043 111.717 22.6256C111.717 22.6469 111.71 22.6678 111.697 22.6862L111.18 24.0194C111.18 24.0194 111.18 24.0952 111.07 24.1406C110.959 24.1861 110.94 24.2315 110.94 24.2769C110.932 24.2911 110.928 24.3067 110.928 24.3224C110.928 24.3381 110.932 24.3536 110.94 24.3678H112.232C112.232 24.3678 112.398 24.3678 112.435 24.3678C112.472 24.3678 112.435 24.3679 112.435 24.2921C112.435 24.2164 112.435 24.2012 112.306 24.1406C112.249 24.1118 112.204 24.0696 112.177 24.0194V23.8831L112.528 23.0498C112.548 22.9763 112.579 22.9051 112.62 22.8377C112.675 22.8268 112.732 22.8268 112.786 22.8377C112.828 22.8392 112.869 22.8497 112.905 22.8683C112.941 22.887 112.97 22.913 112.989 22.9438C113.011 23.0593 113.011 23.1768 112.989 23.2922V24.0043C113.011 24.048 113.011 24.0969 112.989 24.1406C112.86 24.2315 112.786 24.3073 112.786 24.3376C112.778 24.3518 112.774 24.3673 112.774 24.383C112.774 24.3987 112.778 24.4142 112.786 24.4285H114.244C114.244 24.4285 114.41 24.4285 114.447 24.4285C114.455 24.4169 114.46 24.4039 114.46 24.3906C114.46 24.3773 114.455 24.3642 114.447 24.3527C114.447 24.3527 114.447 24.2618 114.318 24.2164C114.246 24.1643 114.194 24.0957 114.17 24.0194V20.3683C114.17 20.3683 114.17 20.2319 114.355 20.1562C114.381 20.1438 114.403 20.1262 114.42 20.1051C114.436 20.084 114.445 20.0599 114.447 20.035C114.447 19.9593 114.355 19.9138 114.17 19.9138L114.576 19.8987ZM113.008 20.3077C113.053 20.3086 113.098 20.3171 113.139 20.3328C113.18 20.3484 113.217 20.3708 113.248 20.3986C113.287 20.5227 113.287 20.6532 113.248 20.7773V21.9287C113.289 22.0527 113.289 22.1836 113.248 22.3075C113.22 22.3379 113.184 22.3621 113.142 22.3779C113.1 22.3938 113.054 22.4008 113.008 22.3984C112.924 22.3981 112.841 22.3831 112.764 22.3543C112.688 22.3256 112.62 22.2838 112.565 22.2318C112.413 22.0216 112.342 21.7786 112.362 21.5348C112.347 21.2134 112.436 20.8946 112.62 20.6107C112.749 20.4138 112.878 20.3077 113.008 20.3077Z" fill="#F8EBBA"/>
</svg>
