<svg width="154" height="58" viewBox="0 0 154 58" fill="none" xmlns="http://www.w3.org/2000/svg">
<rect width="153.426" height="58" rx="5" fill="white"/>
<path fill-rule="evenodd" clip-rule="evenodd" d="M73.6251 21.226L70.4343 36.9872H74.0582L77.2489 21.226H73.6251Z" fill="#08869D"/>
<path fill-rule="evenodd" clip-rule="evenodd" d="M37.8146 21.2265H34.1908L31 36.9878H34.6238L37.8146 21.2265Z" fill="#08869D"/>
<path fill-rule="evenodd" clip-rule="evenodd" d="M72.4498 21.226H68.8259L62.081 32.1652L59.9505 21.226H56.3267L59.393 36.9872H62.7281L72.4498 21.226Z" fill="#08869D"/>
<path fill-rule="evenodd" clip-rule="evenodd" d="M90.7985 21.226H78.9712L78.344 24.5371H82.4606L79.9369 36.9872H83.5607L86.0795 24.5371H90.1762L90.7985 21.226Z" fill="#08869D"/>
<path fill-rule="evenodd" clip-rule="evenodd" d="M51.8223 21.226L49.7117 31.655L44.1664 21.226H41.0354L37.8496 36.9872H41.3391L43.4546 26.5337L48.985 36.9872H52.126L55.3117 21.226H51.8223Z" fill="#08869D"/>
<path fill-rule="evenodd" clip-rule="evenodd" d="M99.4147 21.226H92.7694L89.5786 36.9872H93.2224L95.7113 24.5371H98.8423C99.4721 24.5082 100.087 24.7331 100.545 25.1601C100.896 25.5333 101.066 26.0375 101.013 26.5435C100.858 28.1279 99.594 28.8589 97.9563 28.8589H95.313L98.7179 36.9872H102.342L100.077 31.5912C102.696 31.2592 104.66 29.0672 104.671 26.465C104.821 23.4089 102.541 21.226 99.3998 21.226" fill="#08869D"/>
<path d="M105.359 29.1092C105.634 24.5227 109.512 20.9558 114.174 21.0004C118.998 21.0004 122.253 24.6059 121.989 29.1042C121.714 33.6907 117.836 37.2576 113.174 37.213C108.35 37.213 105.095 33.6075 105.364 29.1092H105.359ZM118.62 29.1092C118.738 27.83 118.296 26.562 117.405 25.6248C116.513 24.6875 115.258 24.1704 113.955 24.2037C111.161 24.1931 108.856 26.3581 108.734 29.1092C108.615 30.3883 109.057 31.6563 109.948 32.5935C110.84 33.5308 112.095 34.048 113.398 34.0146C116.194 34.0278 118.502 31.8621 118.624 29.1092" fill="#08869D"/>
</svg>
