<svg width="125" height="49" viewBox="0 0 125 49" fill="none" xmlns="http://www.w3.org/2000/svg">
<rect x="0.5" y="0.5" width="123.686" height="47.0252" rx="4.5" fill="white" stroke="#E3E5EA"/>
<path fill-rule="evenodd" clip-rule="evenodd" d="M59.8333 18.0625L57.2402 30.8713H60.1852L62.7783 18.0625H59.8333Z" fill="#08869D"/>
<path fill-rule="evenodd" clip-rule="evenodd" d="M30.7312 18.063H27.7862L25.1931 30.8718H28.1381L30.7312 18.063Z" fill="#08869D"/>
<path fill-rule="evenodd" clip-rule="evenodd" d="M58.8785 18.0625H55.9335L50.452 26.9525L48.7206 18.0625H45.7756L48.2676 30.8713H50.9779L58.8785 18.0625Z" fill="#08869D"/>
<path fill-rule="evenodd" clip-rule="evenodd" d="M73.7899 18.0625H64.1782L63.6685 20.7534H67.014L64.963 30.8713H67.908L69.9549 20.7534H73.2842L73.7899 18.0625Z" fill="#08869D"/>
<path fill-rule="evenodd" clip-rule="evenodd" d="M42.115 18.0625L40.3998 26.5379L35.8933 18.0625H33.3488L30.7598 30.8713H33.5955L35.3148 22.376L39.8092 30.8713H42.3618L44.9508 18.0625H42.115Z" fill="#08869D"/>
<path fill-rule="evenodd" clip-rule="evenodd" d="M80.7919 18.0625H75.3914L72.7983 30.8713H75.7595L77.7822 20.7534H80.3267C80.8385 20.7299 81.338 20.9127 81.7102 21.2597C81.9954 21.563 82.134 21.9727 82.0905 22.3839C81.9651 23.6716 80.9376 24.2656 79.6066 24.2656H77.4586L80.2256 30.8713H83.1706L81.33 26.4861C83.4584 26.2163 85.055 24.4349 85.0638 22.3201C85.1852 19.8365 83.3324 18.0625 80.7798 18.0625" fill="#08869D"/>
<path d="M85.6223 24.4685C85.8464 20.7413 88.9979 17.8425 92.7866 17.8788C96.7065 17.8788 99.3522 20.8089 99.1378 24.4645C98.9137 28.1918 95.7622 31.0906 91.9735 31.0543C88.0536 31.0543 85.4079 28.1242 85.6264 24.4685H85.6223ZM96.3991 24.4685C96.4953 23.429 96.136 22.3986 95.4118 21.6369C94.6876 20.8752 93.6675 20.4549 92.6086 20.482C90.3377 20.4734 88.4649 22.2328 88.365 24.4685C88.2688 25.508 88.6281 26.5385 89.3523 27.3002C90.0766 28.0619 91.0967 28.4822 92.1555 28.4551C94.428 28.4658 96.3032 26.7058 96.4031 24.4685" fill="#08869D"/>
</svg>
