<svg width="128" height="47" viewBox="0 0 128 47" fill="none" xmlns="http://www.w3.org/2000/svg">
<rect x="0.5" y="0.5" width="126.057" height="45.7902" rx="5.5" fill="white" stroke="#E3E5EA"/>
<path d="M101.012 7.83154H27.3511V38.3489H101.012V7.83154Z" fill="#3C6771"/>
<path d="M101.012 38.3489H27.3511V7.83154H101.012V38.3489ZM27.8684 37.8753H100.48V8.31905H27.8684V37.8753Z" fill="#F8EBBA"/>
<path d="M99.539 36.8956H28.8242V9.28467H99.539V36.8956ZM28.9912 36.7724H99.372V9.39416H28.9609L28.9912 36.7724Z" fill="#F8EBBA"/>
<path fill-rule="evenodd" clip-rule="evenodd" d="M37.0177 30.7964H35.255C35.1145 30.8084 34.9734 30.78 34.8517 30.7153C34.7621 30.6612 34.7173 30.6071 34.7173 30.553C34.7262 30.4926 34.7495 30.4348 34.7856 30.3834C34.8217 30.332 34.8698 30.2883 34.9264 30.2555C35.0651 30.167 35.1737 30.0452 35.2401 29.9038L37.3314 21.7892L37.4359 21.3565C37.4359 21.2077 37.6451 21.1266 37.9588 21.1266H39.0044C39.0726 21.1223 39.1409 21.1309 39.2052 21.1519C39.2695 21.1728 39.3283 21.2057 39.3778 21.2483C39.5106 21.4084 39.6024 21.5931 39.6467 21.7892L42.0815 29.9038C42.1346 30.0481 42.2399 30.172 42.3803 30.2555C42.4429 30.2833 42.4964 30.3253 42.5357 30.3775C42.5749 30.4296 42.5986 30.4901 42.6044 30.553C42.6044 30.6342 42.6044 30.6882 42.44 30.7423H42.0666H39.6467C39.2882 30.7423 39.1089 30.6612 39.1089 30.4989C39.1089 30.4178 39.1836 30.3096 39.348 30.2014C39.4912 30.1055 39.5919 29.9664 39.6318 29.8092L39.5421 29.4575C39.5173 29.3348 39.4611 29.219 39.3778 29.1194C39.2561 29.0547 39.115 29.0263 38.9745 29.0383H37.6152C37.5192 29.0284 37.4221 29.045 37.3368 29.0861C37.2514 29.1271 37.1819 29.1906 37.1372 29.2682C37.0537 29.4239 37.0127 29.5955 37.0177 29.7686C37.0265 29.8914 37.085 30.007 37.182 30.0932C37.4359 30.2825 37.5554 30.4178 37.5554 30.4989C37.5554 30.5801 37.5554 30.6342 37.3911 30.6883H37.0177V30.7964ZM38.855 27.2531L38.4666 25.9006C38.377 25.6707 38.2874 25.5355 38.1828 25.5084C38.0783 25.4814 38.0036 25.6437 37.9289 25.9006L37.5554 27.2531V27.767C37.5554 27.9969 37.7197 28.1051 38.0185 28.1051H38.5114C38.5687 28.1148 38.6277 28.1117 38.6834 28.0961C38.739 28.0805 38.7896 28.0528 38.8308 28.0156C38.872 27.9783 38.9025 27.9325 38.9198 27.8821C38.937 27.8317 38.9404 27.7783 38.9297 27.7264V27.4559V27.2666L38.855 27.2531ZM45.6367 29.8498V22.0462C45.6367 21.938 45.5172 21.7893 45.2633 21.5999C45.2086 21.573 45.1621 21.5342 45.1282 21.487C45.0943 21.4397 45.074 21.3856 45.0691 21.3294V21.2212C45.1419 21.1683 45.2257 21.1291 45.3154 21.1059C45.4052 21.0827 45.4992 21.0759 45.5919 21.086H52.0748C52.1935 21.0844 52.3111 21.1076 52.4184 21.1536C52.5102 21.186 52.585 21.2489 52.6275 21.3294C52.6275 21.4376 52.5528 21.5323 52.3885 21.6405C52.3103 21.6824 52.2431 21.7391 52.1915 21.8069C52.1399 21.8746 52.1052 21.9516 52.0898 22.0327V29.8498C52.091 29.9112 52.1062 29.9717 52.1345 30.0276C52.1628 30.0834 52.2035 30.1334 52.2541 30.1743C52.508 30.3637 52.6275 30.4989 52.6275 30.5801C52.6275 30.6612 52.6275 30.7153 52.4632 30.7694H52.0898H49.6997C49.5448 30.7837 49.3886 30.7554 49.2516 30.6883C49.2173 30.6736 49.1881 30.6507 49.167 30.6221C49.1459 30.5935 49.1339 30.5603 49.1321 30.526C49.1321 30.4584 49.2516 30.3231 49.5055 30.1202C49.5631 30.0831 49.6106 30.0346 49.6442 29.9783C49.6779 29.9221 49.6969 29.8596 49.6997 29.7957V23.0335C49.7273 22.7616 49.6812 22.4877 49.5653 22.2356C49.5012 22.1684 49.4203 22.1162 49.3293 22.0833C49.2384 22.0503 49.14 22.0376 49.0425 22.0462H48.7139C48.6252 22.0448 48.5371 22.0596 48.455 22.0899C48.3729 22.1201 48.2983 22.165 48.2358 22.222C48.1112 22.4767 48.0598 22.7559 48.0865 23.0335V29.7957C48.0953 29.9185 48.1538 30.034 48.2508 30.1202C48.5047 30.3096 48.6242 30.4448 48.6242 30.526C48.6242 30.6071 48.6242 30.6612 48.4599 30.7153H48.0865H45.6367C45.4817 30.7296 45.3256 30.7013 45.1886 30.6342C45.1567 30.6167 45.1295 30.5931 45.1089 30.5651C45.0882 30.537 45.0746 30.5052 45.0691 30.4719C45.0691 30.4043 45.2035 30.269 45.4425 30.0661C45.5028 30.0315 45.5523 29.9835 45.5862 29.9267C45.6202 29.8699 45.6376 29.8062 45.6367 29.7415V29.8498ZM62.8598 23.899C62.6507 23.899 62.4117 23.7368 62.1727 23.4257L61.8291 22.9523C61.6806 22.7073 61.5054 22.4762 61.3063 22.2626C61.2462 22.1851 61.1551 22.1317 61.0523 22.1138C60.9623 22.1125 60.873 22.1287 60.7906 22.1614C60.7081 22.1941 60.6343 22.2424 60.5743 22.3032C60.4633 22.5565 60.4174 22.8293 60.4399 23.1011V29.8633C60.4411 29.9247 60.4564 29.9853 60.4846 30.0411C60.5129 30.097 60.5536 30.1469 60.6042 30.1879C60.8582 30.3772 60.9777 30.5124 60.9777 30.5936C60.9777 30.6747 60.9777 30.7288 60.8133 30.7829H60.4399H57.9901C57.6316 30.7829 57.4524 30.7018 57.4524 30.5395C57.4635 30.4746 57.4909 30.4129 57.5323 30.359C57.5737 30.3051 57.6281 30.2605 57.6914 30.2284C57.8432 30.1256 57.9492 29.9768 57.9901 29.8092V23.047C58.0177 22.7751 57.9716 22.5012 57.8557 22.2491C57.798 22.1823 57.7225 22.1299 57.6362 22.0968C57.55 22.0636 57.4559 22.0509 57.3627 22.0597C57.2881 22.0597 57.1984 22.0597 57.0789 22.222L56.6159 22.8847L56.1528 23.5339C56.0887 23.624 56.0031 23.6999 55.9022 23.7561C55.8014 23.8123 55.688 23.8472 55.5702 23.8585C55.4358 23.837 55.3113 23.7807 55.2117 23.6962L55.0623 23.331V22.8036C55.0623 22.6548 55.0624 22.5466 55.152 22.4654L55.2565 21.9651L55.4507 21.37C55.4522 21.3014 55.4688 21.2337 55.4995 21.171C55.5303 21.1083 55.5747 21.0518 55.63 21.0048C55.7701 20.9444 55.9229 20.9121 56.0781 20.9102L56.5561 20.9913C56.7149 21.008 56.8753 21.008 57.0341 20.9913H61.366C61.5543 21.015 61.7454 21.015 61.9337 20.9913L62.322 20.9237C62.4406 20.9239 62.5577 20.947 62.6656 20.9913C62.7702 20.9913 62.8598 21.1671 62.9644 21.3835L63.2332 22.5466L63.3378 23.331C63.3392 23.3988 63.3253 23.4661 63.297 23.5288C63.2688 23.5916 63.2268 23.6485 63.1735 23.6962C63.1396 23.7442 63.0934 23.7841 63.0388 23.8124C62.9841 23.8406 62.9227 23.8564 62.8598 23.8585V23.899ZM70.3286 30.8235H66.1311C65.986 30.8332 65.8409 30.805 65.7129 30.7423C65.681 30.7249 65.6538 30.7013 65.6332 30.6732C65.6125 30.6452 65.5989 30.6134 65.5934 30.5801C65.6046 30.5152 65.6319 30.4535 65.6733 30.3996C65.7147 30.3457 65.7691 30.3011 65.8324 30.269C65.9103 30.2204 65.9768 30.1583 66.028 30.0864C66.0793 30.0144 66.1143 29.934 66.1311 29.8498V22.0462C66.1311 21.8974 66.0116 21.7487 65.7876 21.5999C65.7329 21.573 65.6865 21.5342 65.6526 21.487C65.6186 21.4397 65.5983 21.3856 65.5934 21.3294C65.5934 21.1671 65.7726 21.086 66.1311 21.086H70.3884C70.5868 21.1081 70.7875 21.1081 70.9859 21.086L71.3593 21.0184C71.4797 21.0177 71.5982 21.0457 71.7029 21.0995C71.7925 21.0995 71.8821 21.2483 71.9867 21.4782L72.4647 22.6954C72.5595 22.9353 72.6198 23.1853 72.644 23.4392C72.6513 23.4898 72.6442 23.5412 72.6233 23.5886C72.6023 23.636 72.5683 23.6777 72.5244 23.7097L72.2257 23.7908C71.9596 23.765 71.7142 23.6491 71.5386 23.4663L70.9112 22.8171C70.6233 22.5677 70.3079 22.3457 69.9701 22.1544C69.741 22.0258 69.4778 21.9557 69.2083 21.9515C69.0995 21.9472 68.9913 21.9687 68.8944 22.0137C68.7974 22.0588 68.7152 22.1259 68.6556 22.2085C68.5856 22.4467 68.5504 22.6923 68.551 22.9388V23.8179C68.5269 24.0897 68.5729 24.3629 68.6855 24.6158C68.7422 24.6836 68.8176 24.7368 68.9041 24.77C68.9906 24.8032 69.0851 24.8153 69.1784 24.8052C69.3178 24.8052 69.527 24.6699 69.8058 24.3995C69.8614 24.3366 69.9319 24.2857 70.012 24.2506C70.0921 24.2155 70.1799 24.197 70.2689 24.1966C70.4074 24.1989 70.5402 24.247 70.6423 24.3318C70.8164 24.4617 70.9589 24.6229 71.0606 24.8052L71.5834 25.6437C71.7672 25.9273 71.9079 26.2321 72.0016 26.5498C72.0076 26.6003 71.9999 26.6513 71.979 26.6985C71.9582 26.7456 71.9249 26.7875 71.8821 26.8203L71.5834 26.9014C71.3662 26.8861 71.161 26.8052 71.0008 26.6715L70.3585 26.1846L69.8357 25.8736C69.6362 25.7682 69.4095 25.7121 69.1784 25.7113C69.0011 25.7166 68.8316 25.7789 68.7004 25.8871C68.5831 26.1438 68.532 26.4213 68.551 26.6986V28.9707C68.5252 29.2425 68.5713 29.516 68.6855 29.7686C68.6855 29.9038 68.9394 29.9579 69.1784 29.9579C69.4949 29.9637 69.8096 29.9131 70.1046 29.8092C70.4994 29.641 70.8624 29.4173 71.1801 29.1465L71.6282 28.6867C71.7214 28.5453 71.8495 28.4254 72.0024 28.3362C72.1552 28.2471 72.3288 28.1911 72.5095 28.1727C72.7933 28.1727 72.9427 28.2945 72.9427 28.5379C72.9105 28.8908 72.8199 29.2373 72.6738 29.5657L72.2705 30.4719L72.0913 30.8776C72.0422 30.9467 71.973 31.0023 71.8913 31.0381C71.8096 31.0739 71.7185 31.0885 71.6282 31.0804H71.434C71.3195 31.0581 71.209 31.0217 71.1054 30.9723L70.3734 30.8911L70.3286 30.8235ZM75.7809 21.086H78.2306C78.3491 21.0862 78.4663 21.1093 78.5742 21.1536C78.6606 21.1935 78.733 21.2544 78.7833 21.3294C78.7758 21.3953 78.7499 21.4584 78.7081 21.5128C78.6663 21.5672 78.6099 21.6111 78.5443 21.6405C78.4669 21.6864 78.4005 21.746 78.3492 21.8157C78.2979 21.8854 78.2626 21.9638 78.2456 22.0462V23.3986C78.2456 23.5203 78.2456 23.6015 78.3651 23.6286H78.4995L79.7991 22.4249C79.8509 22.3718 79.8896 22.3094 79.9128 22.2418C79.936 22.1742 79.943 22.103 79.9335 22.0327C79.9273 21.9751 79.9065 21.9195 79.8729 21.8702C79.8392 21.821 79.7935 21.7794 79.7393 21.7487C79.6848 21.713 79.6403 21.6663 79.6091 21.6123C79.578 21.5583 79.5612 21.4985 79.5601 21.4376C79.5619 21.4033 79.5739 21.37 79.595 21.3415C79.616 21.3129 79.6453 21.29 79.6796 21.2753C79.8076 21.2126 79.9527 21.1845 80.0978 21.1942H81.9352C82.0489 21.1942 82.1612 21.2173 82.2638 21.2618C82.3528 21.2982 82.4262 21.36 82.4729 21.4376C82.4732 21.4864 82.4596 21.5344 82.4334 21.577C82.4073 21.6197 82.3694 21.6555 82.3235 21.6811L82.0547 21.8704L80.4862 23.1958V23.4392V23.7638L82.7269 29.9579C82.7941 30.0618 82.8925 30.1462 83.0107 30.2014C83.1601 30.3096 83.2497 30.4178 83.2497 30.5124C83.2497 30.6071 83.2497 30.6477 83.0854 30.7018H82.697H80.1576C79.7991 30.7018 79.6198 30.6206 79.6198 30.4583C79.6303 30.395 79.6558 30.3344 79.6944 30.2807C79.7331 30.227 79.7841 30.1815 79.8439 30.1473C79.9218 30.0987 79.9883 30.0366 80.0395 29.9647C80.0908 29.8927 80.1258 29.8123 80.1426 29.728V29.4711L78.6489 25.4138C78.6489 25.2785 78.5443 25.2109 78.4398 25.2109C78.3352 25.2109 78.3203 25.2785 78.3203 25.4138V29.7957C78.3215 29.8571 78.3367 29.9176 78.365 29.9735C78.3933 30.0293 78.434 30.0793 78.4846 30.1202C78.7385 30.3096 78.858 30.4448 78.858 30.526C78.858 30.6071 78.858 30.6612 78.6937 30.7153H78.3203H75.8854C75.7257 30.7275 75.5655 30.6995 75.4224 30.6342C75.3918 30.6167 75.3663 30.5929 75.3481 30.5646C75.3299 30.5364 75.3195 30.5046 75.3178 30.4719C75.3178 30.4043 75.4373 30.269 75.6912 30.0661C75.7488 30.029 75.7962 29.9805 75.8299 29.9242C75.8636 29.868 75.8826 29.8055 75.8854 29.7415V21.938C75.8854 21.8298 75.751 21.681 75.497 21.4917C75.446 21.4624 75.4032 21.4226 75.372 21.3757C75.3409 21.3287 75.3223 21.2758 75.3178 21.2212V21.113C75.3902 21.0595 75.4739 21.0198 75.5638 20.9966C75.6537 20.9733 75.7479 20.9669 75.8406 20.9778L75.7809 21.086ZM87.9998 30.8235H86.3119C86.1668 30.8332 86.0216 30.805 85.8936 30.7423C85.8618 30.7249 85.8346 30.7013 85.8139 30.6732C85.7933 30.6452 85.7797 30.6134 85.7741 30.5801C85.7797 30.5188 85.8017 30.4597 85.8381 30.4079C85.8745 30.3561 85.9244 30.313 85.9833 30.2825C86.1219 30.194 86.2306 30.0723 86.297 29.9309L88.3733 21.8163L88.4778 21.3835C88.4778 21.2347 88.7019 21.1536 89.0007 21.1536H90.0314C90.1735 21.146 90.3132 21.1898 90.4197 21.2753C90.5466 21.4385 90.6378 21.6221 90.6886 21.8163L93.1235 29.9309C93.1706 30.078 93.2773 30.2035 93.4222 30.2825C93.4848 30.3103 93.5383 30.3524 93.5776 30.4046C93.6168 30.4567 93.6405 30.5172 93.6463 30.5801C93.6463 30.6612 93.6463 30.7153 93.482 30.7694H93.1085H90.7036C90.3301 30.7694 90.1509 30.6883 90.1509 30.526C90.1509 30.3637 90.2405 30.3366 90.3899 30.2284C90.4635 30.1833 90.5265 30.1254 90.5752 30.0581C90.6239 29.9907 90.6574 29.9153 90.6737 29.8362L90.599 29.4846C90.5773 29.3584 90.5149 29.2408 90.4197 29.1465C90.3049 29.0789 90.1673 29.0502 90.0314 29.0653H88.672C88.5739 29.0545 88.4744 29.0706 88.3865 29.1116C88.2986 29.1526 88.2263 29.2166 88.1791 29.2953C88.1044 29.4537 88.0639 29.6235 88.0596 29.7957C88.0644 29.8578 88.0827 29.9184 88.1135 29.9741C88.1443 30.0298 88.1869 30.0795 88.2389 30.1202C88.4779 30.3096 88.6123 30.4448 88.6123 30.526C88.6123 30.6071 88.6123 30.6612 88.448 30.7153H88.0596L87.9998 30.8235ZM89.8969 27.2531L89.5086 25.9006C89.4339 25.6707 89.3293 25.5355 89.2397 25.5084C89.15 25.4814 89.0604 25.6437 88.9708 25.9006L88.6123 27.2531V27.767C88.6123 27.9969 88.7617 28.1051 89.0754 28.1051H89.5683C89.625 28.1117 89.6826 28.1065 89.7366 28.0898C89.7907 28.0732 89.8399 28.0454 89.8803 28.0089C89.9207 27.9723 89.9512 27.9278 89.9697 27.8789C89.9881 27.8299 89.9939 27.7777 89.9866 27.7264V27.4559L89.8969 27.2666V27.2531Z" fill="#F8EBBA"/>
<path fill-rule="evenodd" clip-rule="evenodd" d="M34.9223 15.1706H36.9473H37.1123C37.1613 15.1588 37.2133 15.1588 37.2623 15.1706C37.3177 15.2085 37.3549 15.2617 37.3673 15.3205L37.5773 15.7828C37.5882 15.8783 37.5882 15.9746 37.5773 16.0701C37.5773 16.1701 37.5773 16.2076 37.3973 16.2076C37.2866 16.1978 37.1846 16.1531 37.1123 16.0827L36.8573 15.8328C36.7299 15.7412 36.5946 15.6577 36.4523 15.5829C36.3614 15.5261 36.2509 15.4954 36.1373 15.4954C36.0923 15.4928 36.0473 15.5008 36.0075 15.5184C35.9678 15.5361 35.9347 15.5628 35.9123 15.5954C35.8946 15.6906 35.8946 15.7875 35.9123 15.8827V18.5689C35.9128 18.5913 35.92 18.6133 35.933 18.6329C35.9461 18.6525 35.9647 18.6691 35.9873 18.6813C36.0923 18.7563 36.1373 18.8188 36.1373 18.8437C36.1373 18.8687 36.1373 18.8437 36.0623 18.9187H34.8923C34.8923 18.9187 34.7573 18.9187 34.7273 18.9187C34.7208 18.9092 34.7173 18.8984 34.7173 18.8875C34.7173 18.8765 34.7208 18.8657 34.7273 18.8562C34.7273 18.8562 34.7273 18.7813 34.8323 18.7438C34.8909 18.7009 34.9327 18.6443 34.9523 18.5814V15.5704C34.9523 15.5704 34.9523 15.4579 34.8023 15.3955C34.7815 15.3826 34.7651 15.3655 34.7546 15.3458C34.744 15.3261 34.7398 15.3045 34.7423 15.283C34.7423 15.2206 34.8173 15.1831 34.9673 15.1831L34.9223 15.1706ZM39.8722 19.0062C39.4557 19.0304 39.0435 18.9233 38.7173 18.7063C38.5155 18.505 38.3649 18.2716 38.2746 18.0203C38.1844 17.769 38.1564 17.5051 38.1923 17.2446C38.1876 16.9713 38.2229 16.6986 38.2973 16.4325C38.3611 16.1977 38.4727 15.9737 38.6273 15.7703C38.743 15.5772 38.9205 15.4143 39.1401 15.2997C39.3598 15.1851 39.6131 15.1231 39.8722 15.1206C40.1292 15.1309 40.3787 15.196 40.5968 15.3098C40.8148 15.4236 40.994 15.5822 41.1172 15.7703C41.4323 16.2162 41.5884 16.7275 41.5672 17.2446C41.6007 17.504 41.5701 17.7665 41.4773 18.0157C41.3844 18.265 41.2312 18.4958 41.0272 18.6938C40.8691 18.807 40.6856 18.8928 40.4873 18.9464C40.2891 19 40.08 19.0204 39.8722 19.0062ZM39.4072 17.1196C39.3793 17.5174 39.4146 17.9165 39.5122 18.3065C39.5266 18.3804 39.5724 18.4476 39.6412 18.4957C39.71 18.5439 39.7974 18.5698 39.8872 18.5689C40.4572 18.5689 40.3372 17.407 40.3372 17.1196C40.355 16.6781 40.2995 16.2367 40.1722 15.8078C40.1722 15.5954 39.9922 15.4829 39.8722 15.4829C39.7522 15.4829 39.6622 15.5954 39.5722 15.8078C39.4845 16.1194 39.4343 16.4374 39.4222 16.7573C39.4222 16.9447 39.4222 17.0571 39.4222 17.1196H39.4072ZM45.2421 16.1201C45.2539 16.1654 45.2539 16.2123 45.2421 16.2575C45.2259 16.2751 45.2056 16.2897 45.1824 16.3004C45.1592 16.3111 45.1336 16.3178 45.1071 16.32C45.0021 16.32 44.8971 16.2575 44.7771 16.1326L44.6422 15.9327L44.4772 15.6828C44.4501 15.6307 44.4064 15.5857 44.3509 15.5527C44.2954 15.5197 44.2302 15.4999 44.1622 15.4954C44.0572 15.4954 43.9522 15.5954 43.8622 15.8203C43.8557 15.9118 43.8557 16.0036 43.8622 16.0951C43.8622 16.2076 43.8622 16.295 43.8622 16.3575C43.8622 16.4199 43.8622 16.5824 43.8622 16.7698C43.8622 16.9572 43.8622 17.0696 43.8622 17.1321C43.8342 17.5299 43.8696 17.9289 43.9672 18.319C43.9815 18.3896 44.0256 18.4536 44.0917 18.4994C44.1577 18.5452 44.2412 18.5699 44.3272 18.5689C44.422 18.5708 44.5152 18.5476 44.5933 18.5027C44.6715 18.4579 44.7305 18.3935 44.7622 18.319C44.7723 18.2443 44.7723 18.1688 44.7622 18.0941C44.7777 18.003 44.7777 17.9104 44.7622 17.8193C44.7246 17.7005 44.7246 17.5757 44.7622 17.4569C44.7841 17.4277 44.8153 17.404 44.8524 17.3886C44.8894 17.3732 44.9309 17.3666 44.9721 17.3695C45.0378 17.3688 45.1022 17.3837 45.158 17.4125C45.2138 17.4412 45.2586 17.4827 45.2871 17.5319C45.3861 17.676 45.433 17.8409 45.4221 18.0067C45.4251 18.1476 45.3919 18.2874 45.3246 18.4167C45.2574 18.546 45.1576 18.6618 45.0321 18.7563C44.7869 18.9228 44.4785 19.0114 44.1622 19.0062C43.7456 19.0304 43.3334 18.9233 43.0072 18.7063C42.8095 18.5054 42.6614 18.274 42.5713 18.0253C42.4812 17.7766 42.4509 17.5155 42.4822 17.257C42.4627 16.7322 42.6185 16.2132 42.9322 15.7578C43.0482 15.5694 43.2245 15.4114 43.4415 15.3011C43.6586 15.1909 43.908 15.1328 44.1622 15.1331H44.4172H44.5222H44.6572H44.8071H44.9721C44.9721 15.1331 45.0621 15.2081 45.0921 15.2955C45.1969 15.55 45.2625 15.8145 45.2871 16.0827L45.2421 16.1201ZM48.8421 15.1706H49.4421C49.4957 15.1563 49.5534 15.1563 49.6071 15.1706C49.6136 15.1801 49.6171 15.1909 49.6171 15.2018C49.6171 15.2128 49.6136 15.2236 49.6071 15.233C49.6071 15.233 49.6071 15.2955 49.5171 15.333C49.4541 15.3765 49.3986 15.427 49.3521 15.4829L48.2871 18.1941C48.2085 18.4261 48.0585 18.6372 47.8521 18.8063C47.6613 18.9329 47.4205 18.9952 47.1771 18.9812C46.9047 18.9833 46.6416 18.8983 46.4421 18.7438C46.3398 18.6721 46.2582 18.582 46.2037 18.4803C46.1491 18.3786 46.1229 18.2679 46.1271 18.1566C46.1114 17.956 46.1804 17.7571 46.3221 17.5944C46.3871 17.525 46.472 17.4703 46.5689 17.4353C46.6659 17.4004 46.7719 17.3864 46.8771 17.3945C47.0454 17.3863 47.2113 17.4309 47.3421 17.5194C47.3802 17.5401 47.4121 17.5677 47.4355 17.6002C47.4589 17.6326 47.4731 17.6691 47.4771 17.7068C47.4886 17.7479 47.4886 17.7907 47.4771 17.8318C47.4771 17.8318 47.4771 17.8318 47.3121 17.8318C47.2533 17.8179 47.1909 17.8179 47.1321 17.8318C47.0714 17.914 47.045 18.0106 47.0571 18.1066V18.3065V18.419C47.0818 18.4498 47.1153 18.475 47.1545 18.4924C47.1938 18.5099 47.2376 18.519 47.2821 18.5189C47.3871 18.5189 47.4921 18.4189 47.6121 18.2315C47.6859 18.1069 47.7268 17.9706 47.7321 17.8318C47.7515 17.7535 47.7515 17.6727 47.7321 17.5944L46.5471 15.383C46.5471 15.383 46.5471 15.3205 46.4121 15.283C46.3817 15.2773 46.3547 15.2629 46.3355 15.2424C46.3164 15.2219 46.3063 15.1966 46.3071 15.1706C46.3071 15.1706 46.3071 15.1706 46.3071 15.1081C46.3658 15.0935 46.4284 15.0935 46.4871 15.1081H47.4171H47.5671V15.1831C47.5741 15.1969 47.5777 15.2118 47.5777 15.2268C47.5777 15.2418 47.5741 15.2567 47.5671 15.2705C47.5572 15.2903 47.5521 15.3116 47.5521 15.333C47.5521 15.3545 47.5572 15.3757 47.5671 15.3955L48.1971 16.5574L48.6471 15.4204C48.6471 15.4204 48.6471 15.358 48.5571 15.308C48.4671 15.258 48.4521 15.2331 48.4521 15.1956C48.4521 15.1581 48.4521 15.1956 48.4521 15.1331C48.5054 15.1169 48.5638 15.1169 48.6171 15.1331L48.8421 15.1706ZM50.942 15.1706C50.8796 15.1491 50.8095 15.1491 50.747 15.1706V15.308L49.8771 18.419V18.4939C49.8586 18.5124 49.8357 18.5274 49.8099 18.5382C49.7841 18.5489 49.7559 18.5551 49.7271 18.5564C49.6371 18.5564 49.5921 18.5564 49.5771 18.6313V18.7063V18.8812L49.6671 19.0561C49.7107 19.1741 49.7711 19.2874 49.8471 19.3935C49.8471 19.3935 49.8471 19.4559 49.9971 19.4559C50.0381 19.4585 50.079 19.4502 50.114 19.4323C50.149 19.4143 50.1764 19.3877 50.1921 19.356V19.1686V18.9687C50.1921 18.8937 50.2821 18.8562 50.402 18.8562H51.902C51.9475 18.8525 51.9929 18.8634 52.0291 18.8866C52.0654 18.9098 52.0896 18.9436 52.097 18.9812V19.1561V19.331C52.1077 19.3695 52.135 19.4035 52.1737 19.4265C52.2123 19.4495 52.2597 19.46 52.307 19.4559C52.3364 19.4576 52.3659 19.4527 52.3923 19.4417C52.4186 19.4308 52.441 19.4141 52.457 19.3935L52.637 19.0561L52.757 18.8063V18.6313C52.757 18.6313 52.757 18.5689 52.622 18.5564C52.487 18.5439 52.472 18.5564 52.427 18.419L51.422 15.333V15.1956C51.422 15.1956 51.332 15.1206 51.227 15.1081L50.942 15.1706ZM51.122 16.8573L51.617 18.3815V18.4689V18.5314C51.617 18.5314 51.617 18.5314 51.512 18.5314H50.567C50.567 18.5314 50.4471 18.5314 50.4471 18.4564V18.294L50.867 16.7948C50.867 16.7031 50.897 16.6532 50.957 16.6448V16.7573L51.122 16.8573ZM54.707 18.9187H53.972C53.972 18.9187 53.837 18.9187 53.807 18.9187C53.7978 18.8986 53.7978 18.8763 53.807 18.8562C53.8104 18.8329 53.8203 18.8106 53.8359 18.7911C53.8515 18.7716 53.8725 18.7553 53.897 18.7438C53.9576 18.7104 54.0047 18.6625 54.032 18.6064L54.902 15.458V15.283C54.902 15.283 54.992 15.1956 55.127 15.1956H55.562C55.616 15.1834 55.6729 15.1834 55.727 15.1956C55.7784 15.2599 55.8141 15.3321 55.832 15.408L56.8519 18.5564C56.8688 18.6135 56.9119 18.6629 56.9719 18.6938C56.9719 18.6938 57.0769 18.7688 57.0769 18.8063C57.0769 18.8438 57.0769 18.8063 57.0019 18.8812H55.832C55.682 18.8812 55.607 18.8812 55.607 18.7938C55.6123 18.771 55.6229 18.7493 55.6384 18.73C55.6538 18.7107 55.6738 18.6942 55.697 18.6813C55.7283 18.6646 55.7551 18.6426 55.7758 18.6168C55.7964 18.591 55.8104 18.5619 55.817 18.5314V18.394C55.8122 18.3458 55.7853 18.3011 55.742 18.269C55.7159 18.2598 55.6878 18.255 55.6595 18.255C55.6311 18.255 55.603 18.2598 55.577 18.269H55.007C54.9676 18.2654 54.9279 18.2718 54.8931 18.2875C54.8583 18.3031 54.83 18.3271 54.812 18.3565C54.7895 18.4218 54.7895 18.4911 54.812 18.5564C54.7971 18.5928 54.7971 18.6324 54.812 18.6688C54.917 18.7438 54.977 18.8063 54.977 18.8312C54.977 18.8562 54.977 18.8312 54.977 18.9062L54.707 18.9187ZM55.487 17.5569L55.322 17.0447C55.322 16.9572 55.322 16.9072 55.202 16.8947C55.082 16.8822 55.202 16.8947 55.097 17.0447L54.947 17.5444V17.7818C54.947 17.8692 54.947 17.9192 55.142 17.9192H55.337C55.3612 17.9211 55.3856 17.9186 55.4085 17.9118C55.4314 17.9049 55.4522 17.8939 55.4694 17.8796C55.4866 17.8652 55.4998 17.8479 55.508 17.8289C55.5162 17.8098 55.5193 17.7894 55.517 17.7693V17.6693V17.5944L55.487 17.5569ZM58.1269 18.5564V15.5454C58.1269 15.5454 58.1269 15.4455 57.9769 15.3705C57.9533 15.3626 57.9333 15.3487 57.9198 15.3307C57.9064 15.3127 57.9001 15.2917 57.9019 15.2705C57.9349 15.2581 57.9707 15.2517 58.0069 15.2517C58.0431 15.2517 58.0789 15.2581 58.1119 15.2705H59.2219C59.6519 15.2845 60.0616 15.4264 60.3769 15.6703C60.5911 15.8119 60.7652 15.9911 60.8869 16.1951C60.9944 16.3868 61.0507 16.5957 61.0519 16.8073C61.058 16.9481 61.0292 17.0884 60.9673 17.2196C60.9053 17.3507 60.8116 17.4698 60.6919 17.5694C60.5228 17.7072 60.32 17.8131 60.0975 17.88C59.8749 17.9468 59.6377 17.973 59.4019 17.9567C59.3302 17.9584 59.2615 17.9805 59.2069 18.0192C59.1758 18.1217 59.1758 18.229 59.2069 18.3315V18.6564C59.1894 18.6924 59.1894 18.7327 59.2069 18.7688C59.3119 18.8438 59.3719 18.9062 59.3719 18.9312C59.3719 18.9562 59.3719 18.9312 59.2969 19.0062H58.1269C58.0369 19.0062 57.9769 19.0062 57.9469 19.0062C57.9403 18.9967 57.9369 18.9859 57.9369 18.9749C57.9369 18.9639 57.9403 18.9532 57.9469 18.9437C57.9469 18.9437 57.9469 18.8687 58.0969 18.7813C58.1217 18.7712 58.1422 18.755 58.1556 18.7349C58.169 18.7147 58.1747 18.6917 58.1719 18.6688L58.1269 18.5564ZM59.4019 15.5829C59.3302 15.5846 59.2615 15.6067 59.2069 15.6454C59.1758 15.7479 59.1758 15.8552 59.2069 15.9577V17.0696C59.1826 17.1728 59.1826 17.2788 59.2069 17.382C59.2317 17.408 59.2638 17.4285 59.3005 17.4416C59.3372 17.4547 59.3772 17.46 59.4169 17.4569C59.4956 17.4562 59.5725 17.4371 59.6388 17.4018C59.7051 17.3665 59.7582 17.3163 59.7919 17.257C59.896 17.1005 59.9478 16.9237 59.9419 16.7448C59.946 16.4681 59.8901 16.1929 59.7769 15.9327C59.6719 15.6953 59.5519 15.5829 59.4169 15.5829H59.4019ZM64.5918 16.1201C64.6036 16.1654 64.6036 16.2123 64.5918 16.2575C64.5756 16.2751 64.5553 16.2897 64.532 16.3004C64.5088 16.3111 64.4832 16.3178 64.4568 16.32C64.3518 16.32 64.2468 16.2575 64.1268 16.1326L63.9918 15.9327L63.8268 15.6828C63.7997 15.6307 63.7561 15.5857 63.7006 15.5527C63.6451 15.5197 63.5798 15.4999 63.5118 15.4954C63.4068 15.4954 63.3018 15.5954 63.2118 15.8203C63.1802 15.9105 63.1552 16.0023 63.1368 16.0951C63.1368 16.2076 63.1368 16.295 63.1368 16.3575C63.1368 16.4199 63.1368 16.5824 63.1368 16.7698C63.1368 16.9572 63.1368 17.0696 63.1368 17.1321C63.1089 17.5299 63.1442 17.9289 63.2418 18.319C63.2561 18.3896 63.3003 18.4536 63.3663 18.4994C63.4323 18.5452 63.5159 18.5699 63.6018 18.5689C63.6967 18.5708 63.7899 18.5476 63.868 18.5027C63.9461 18.4579 64.0052 18.3935 64.0368 18.319C64.047 18.2443 64.047 18.1688 64.0368 18.0941C64.0524 18.003 64.0524 17.9104 64.0368 17.8193C63.9993 17.7005 63.9993 17.5757 64.0368 17.4569C64.0587 17.4277 64.09 17.404 64.127 17.3886C64.1641 17.3732 64.2055 17.3666 64.2468 17.3695C64.3124 17.3688 64.3769 17.3837 64.4327 17.4125C64.4885 17.4412 64.5333 17.4827 64.5618 17.5319C64.6607 17.676 64.7076 17.8409 64.6968 18.0067C64.6998 18.1476 64.6666 18.2874 64.5993 18.4167C64.532 18.546 64.4323 18.6618 64.3068 18.7563C64.0615 18.9228 63.7532 19.0114 63.4368 19.0062C63.0203 19.0304 62.6081 18.9233 62.2818 18.7063C62.0841 18.5054 61.936 18.274 61.8459 18.0253C61.7558 17.7766 61.7256 17.5155 61.7568 17.257C61.7373 16.7322 61.8931 16.2132 62.2068 15.7578C62.3229 15.5694 62.4992 15.4114 62.7162 15.3011C62.9332 15.1909 63.1826 15.1328 63.4368 15.1331H63.6918H63.7968H63.9318H64.0818H64.2468C64.2468 15.1331 64.3368 15.2081 64.3668 15.2955C64.4716 15.55 64.5371 15.8145 64.5618 16.0827L64.5918 16.1201ZM68.8667 16.2575C68.8667 16.2575 68.6867 16.2576 68.5817 16.0827L68.4467 15.8952C68.3838 15.801 68.3083 15.713 68.2217 15.6329C68.2217 15.6329 68.2217 15.6329 68.1167 15.6329C68.0793 15.6308 68.0419 15.6366 68.0078 15.6497C67.9737 15.6628 67.9442 15.6828 67.9217 15.7078C67.8893 15.8102 67.8893 15.9178 67.9217 16.0202V18.6189C67.9042 18.6549 67.9042 18.6952 67.9217 18.7313C68.0267 18.8063 68.0867 18.8687 68.0867 18.8937C68.0867 18.9187 68.0867 18.8937 68.0867 18.9687H66.8418C66.6768 18.9687 66.6018 18.9687 66.6018 18.8812C66.6018 18.7938 66.6018 18.8063 66.7068 18.7688C66.7696 18.7266 66.8164 18.6702 66.8418 18.6064V16.0077C66.8681 15.9047 66.8681 15.7983 66.8418 15.6953C66.817 15.6693 66.7848 15.6488 66.7482 15.6357C66.7115 15.6226 66.6715 15.6173 66.6318 15.6204C66.5925 15.6113 66.551 15.6113 66.5118 15.6204L66.3168 15.8827L66.1218 16.1326C66.094 16.1658 66.0584 16.1941 66.0171 16.2155C65.9759 16.237 65.9298 16.2513 65.8818 16.2575L65.7318 16.1951V16.0451V15.8453C65.7361 15.8037 65.7361 15.7619 65.7318 15.7203V15.5204L65.8068 15.2955C65.8068 15.2206 65.8068 15.1706 65.8068 15.1581C65.8704 15.1425 65.9381 15.1425 66.0018 15.1581H66.1968H68.4917H68.6567C68.7007 15.1466 68.7478 15.1466 68.7917 15.1581C68.7917 15.1581 68.8817 15.2206 68.9117 15.308L69.0317 15.7578V16.0576C69.0512 16.102 69.0512 16.1507 69.0317 16.1951C69.0112 16.205 68.9879 16.2101 68.9642 16.2101C68.9405 16.2101 68.9172 16.205 68.8967 16.1951L68.8667 16.2575ZM70.2467 18.5564V15.5454C70.2467 15.5454 70.2467 15.433 70.0967 15.3705C70.0862 15.3553 70.0806 15.3381 70.0806 15.3205C70.0806 15.303 70.0862 15.2857 70.0967 15.2705C70.0967 15.2081 70.0967 15.1706 70.3217 15.1706H71.2817C71.6899 15.1567 72.0934 15.2483 72.4367 15.433C72.5774 15.4962 72.6949 15.59 72.7768 15.7043C72.8587 15.8187 72.9018 15.9495 72.9017 16.0827C72.9079 16.1562 72.8951 16.2299 72.864 16.2989C72.833 16.3679 72.7844 16.4305 72.7216 16.4824L72.3767 16.6823V16.7573C72.3767 16.7573 72.3767 16.7573 72.3767 16.8198C72.6221 16.9417 72.8445 17.0933 73.0366 17.2695C73.0803 17.313 73.1204 17.359 73.1566 17.407L73.2316 17.5444V17.6943C73.239 17.7441 73.239 17.7944 73.2316 17.8442C73.2412 18.0175 73.1913 18.1895 73.0877 18.34C72.9841 18.4904 72.8311 18.6132 72.6466 18.6938C72.2619 18.8569 71.833 18.9344 71.4017 18.9187H70.2317C70.1731 18.9341 70.1103 18.9341 70.0517 18.9187C70.0451 18.9092 70.0417 18.8984 70.0417 18.8875C70.0417 18.8765 70.0451 18.8657 70.0517 18.8562C70.0551 18.8329 70.065 18.8106 70.0806 18.7911C70.0963 18.7716 70.1172 18.7553 70.1417 18.7438C70.2093 18.7054 70.2574 18.6476 70.2767 18.5814L70.2467 18.5564ZM71.5217 15.5079C71.4855 15.5044 71.4489 15.5083 71.4149 15.5192C71.381 15.53 71.3507 15.5476 71.3267 15.5704C71.2943 15.6728 71.2943 15.7804 71.3267 15.8827V16.1076C71.2904 16.2095 71.2904 16.318 71.3267 16.42C71.3481 16.4459 71.3775 16.4666 71.4118 16.4798C71.4461 16.493 71.4841 16.4982 71.5217 16.4949C71.5659 16.494 71.6093 16.4844 71.6483 16.4671C71.6874 16.4497 71.7211 16.4251 71.7467 16.395C71.7721 16.292 71.7721 16.1857 71.7467 16.0827C71.7708 15.9585 71.7708 15.8319 71.7467 15.7078C71.7467 15.5704 71.6117 15.5079 71.5367 15.5079H71.5217ZM71.5217 16.9572C71.4495 16.9567 71.3798 16.979 71.3267 17.0197C71.2943 17.122 71.2943 17.2297 71.3267 17.332V18.2191C71.3011 18.3179 71.3011 18.4201 71.3267 18.5189C71.3267 18.5189 71.4317 18.5939 71.5367 18.5939C71.6417 18.5939 71.8067 18.5064 71.9267 18.344C72.0219 18.1987 72.0685 18.0347 72.0617 17.8692C72.0631 17.633 71.9907 17.4005 71.8517 17.1946C71.7467 17.0446 71.6417 16.9697 71.5367 16.9572H71.5217ZM76.0216 18.9187H74.2516C74.2516 18.9187 74.1166 18.9187 74.0866 18.9187C74.08 18.9092 74.0766 18.8984 74.0766 18.8875C74.0766 18.8765 74.08 18.8657 74.0866 18.8562C74.0866 18.8562 74.0866 18.7813 74.1916 18.7438C74.2502 18.7009 74.292 18.6443 74.3116 18.5814V15.5704C74.3116 15.5704 74.3116 15.4579 74.1616 15.3955C74.1534 15.3797 74.1491 15.3627 74.1491 15.3455C74.1491 15.3283 74.1534 15.3113 74.1616 15.2955C74.1616 15.2331 74.1616 15.1956 74.3866 15.1956H76.4116H76.5766C76.6256 15.1838 76.6776 15.1838 76.7266 15.1956C76.7378 15.2237 76.7429 15.2534 76.7416 15.283L76.9516 15.7453C76.9625 15.8409 76.9625 15.9371 76.9516 16.0327C76.9691 16.0687 76.9691 16.109 76.9516 16.1451H76.8166C76.7059 16.1354 76.6039 16.0906 76.5316 16.0202L76.2766 15.7703C76.1492 15.6788 76.0138 15.5952 75.8716 15.5204C75.7807 15.4636 75.6702 15.433 75.5566 15.433C75.5116 15.4303 75.4666 15.4383 75.4268 15.456C75.3871 15.4737 75.354 15.5003 75.3316 15.5329C75.3139 15.6281 75.3139 15.725 75.3316 15.8203V16.1576C75.3082 16.2566 75.3082 16.3585 75.3316 16.4574C75.3564 16.4835 75.3885 16.504 75.4252 16.5171C75.4619 16.5302 75.5019 16.5354 75.5416 16.5324C75.5416 16.5324 75.6916 16.5324 75.8116 16.3825C75.8349 16.3582 75.8646 16.3388 75.8985 16.3258C75.9323 16.3128 75.9693 16.3066 76.0066 16.3075C76.0549 16.2921 76.1083 16.2921 76.1566 16.3075C76.2343 16.3514 76.2964 16.4118 76.3366 16.4824L76.5466 16.8073C76.621 16.9184 76.6813 17.0356 76.7266 17.1571C76.7371 17.1745 76.7426 17.1938 76.7426 17.2133C76.7426 17.2329 76.7371 17.2521 76.7266 17.2695H76.6066C76.5172 17.2633 76.4327 17.2326 76.3666 17.1821L76.0966 16.9947L75.8716 16.8697C75.7901 16.8289 75.6967 16.8073 75.6016 16.8073C75.5647 16.808 75.5283 16.815 75.4948 16.8279C75.4612 16.8408 75.4312 16.8593 75.4066 16.8822C75.3742 16.9846 75.3742 17.0922 75.4066 17.1946V18.0691C75.3832 18.1681 75.3832 18.27 75.4066 18.369C75.4314 18.395 75.4635 18.4155 75.5002 18.4286C75.5369 18.4417 75.5769 18.447 75.6166 18.4439C75.7456 18.4629 75.8776 18.4629 76.0066 18.4439C76.1709 18.3749 76.3225 18.2866 76.4566 18.1816L76.6516 18.0067C76.6903 17.9534 76.7427 17.9079 76.8049 17.8733C76.8671 17.8388 76.9376 17.8161 77.0116 17.8068C77.1316 17.8068 77.1916 17.8068 77.1916 17.9442C77.1832 18.0814 77.1477 18.2165 77.0866 18.344L76.9216 18.6938L76.8316 18.8437C76.8182 18.8733 76.793 18.8982 76.7603 18.9141C76.7275 18.9301 76.6891 18.9361 76.6516 18.9312H76.5616H76.4266H76.1266L76.0216 18.9187ZM81.0465 18.9187H80.0415C79.9778 18.9337 79.9103 18.9337 79.8465 18.9187C79.8399 18.9092 79.8365 18.8984 79.8365 18.8875C79.8365 18.8765 79.8399 18.8657 79.8465 18.8562C79.8465 18.8562 79.8465 18.7813 80.0115 18.6938C80.021 18.6761 80.026 18.657 80.026 18.6376C80.026 18.6182 80.021 18.5991 80.0115 18.5814V17.4944C80.0454 17.3922 80.0454 17.2843 80.0115 17.1821C80.0115 17.1821 79.9065 17.1196 79.8015 17.1196H79.6665C79.6283 17.1177 79.59 17.1223 79.5539 17.133C79.5178 17.1438 79.4847 17.1604 79.4565 17.1821C79.4241 17.2844 79.4241 17.392 79.4565 17.4944V18.5814C79.4417 18.6179 79.4417 18.6574 79.4565 18.6938C79.5615 18.7688 79.6065 18.8312 79.6065 18.8562C79.6065 18.8812 79.6065 18.8563 79.6065 18.9312H78.4365C78.3315 18.9312 78.2716 18.9312 78.2416 18.9312C78.235 18.9217 78.2315 18.9109 78.2315 18.8999C78.2315 18.889 78.235 18.8782 78.2416 18.8687C78.2416 18.8687 78.2416 18.7938 78.3915 18.7063C78.4179 18.6967 78.4404 18.6811 78.4564 18.6611C78.4723 18.6412 78.4811 18.6178 78.4816 18.5939V15.5829C78.4816 15.5829 78.4816 15.4829 78.3166 15.408C78.3083 15.3922 78.304 15.3752 78.304 15.358C78.304 15.3408 78.3083 15.3238 78.3166 15.308C78.3521 15.2953 78.3904 15.2888 78.4291 15.2888C78.4677 15.2888 78.506 15.2953 78.5415 15.308H79.5615H79.6965C79.7337 15.3263 79.7646 15.352 79.7865 15.383C79.7865 15.383 79.7865 15.4579 79.6965 15.5079C79.6624 15.5233 79.6327 15.5447 79.6094 15.5706C79.5861 15.5965 79.5698 15.6262 79.5615 15.6578V16.42C79.5277 16.5222 79.5277 16.6301 79.5615 16.7323C79.5615 16.7323 79.6665 16.7948 79.7715 16.7948H79.7415C79.7799 16.7983 79.8188 16.7945 79.8552 16.7837C79.8915 16.7728 79.9245 16.7553 79.9515 16.7323C79.9854 16.6301 79.9854 16.5222 79.9515 16.42V15.6578C79.9515 15.6578 79.9515 15.5579 79.7865 15.4829C79.7783 15.4672 79.774 15.4502 79.774 15.433C79.774 15.4158 79.7783 15.3987 79.7865 15.383C79.859 15.3599 79.9391 15.3599 80.0115 15.383H81.0315H81.1815C81.1904 15.3458 81.2111 15.3113 81.2415 15.283C81.2415 15.283 81.2415 15.358 81.1365 15.408C81.0755 15.4438 81.0327 15.4972 81.0165 15.5579V18.5689C80.999 18.6049 80.999 18.6453 81.0165 18.6813C81.1215 18.7563 81.1815 18.8188 81.1815 18.8437C81.1815 18.8687 81.1815 18.8437 81.1815 18.9187H81.0465ZM85.2764 18.9187H84.2414C84.1777 18.9337 84.1102 18.9337 84.0465 18.9187C84.0399 18.9092 84.0364 18.8984 84.0364 18.8875C84.0364 18.8765 84.0399 18.8657 84.0465 18.8562C84.0465 18.8562 84.0465 18.7813 84.2114 18.6938C84.221 18.6761 84.2259 18.657 84.2259 18.6376C84.2259 18.6182 84.221 18.5991 84.2114 18.5814V17.4944C84.2453 17.3922 84.2453 17.2843 84.2114 17.1821C84.2114 17.1821 84.1064 17.1196 84.0014 17.1196H83.8665C83.8282 17.1177 83.7899 17.1223 83.7538 17.133C83.7177 17.1438 83.6846 17.1604 83.6565 17.1821C83.624 17.2844 83.624 17.392 83.6565 17.4944V18.5814C83.6634 18.6254 83.6902 18.6656 83.7315 18.6938C83.8365 18.7688 83.8815 18.8312 83.8815 18.8562C83.8815 18.8812 83.8815 18.8563 83.8815 18.9312H82.5915C82.4865 18.9312 82.4265 18.9312 82.3965 18.9312C82.3899 18.9217 82.3864 18.9109 82.3864 18.8999C82.3864 18.889 82.3899 18.8782 82.3965 18.8687C82.3965 18.8687 82.3965 18.7938 82.5465 18.7063C82.5728 18.6967 82.5953 18.6811 82.6113 18.6611C82.6273 18.6412 82.636 18.6178 82.6365 18.5939V15.5829C82.6365 15.5829 82.6365 15.4829 82.4715 15.408C82.4501 15.3977 82.432 15.3832 82.4189 15.3658C82.4059 15.3484 82.3981 15.3285 82.3965 15.308C82.432 15.2953 82.4703 15.2888 82.509 15.2888C82.5477 15.2888 82.5859 15.2953 82.6215 15.308H83.6415H83.7765C83.8136 15.3263 83.8445 15.352 83.8665 15.383C83.8665 15.383 83.8665 15.4579 83.7765 15.5079C83.7423 15.5233 83.7126 15.5447 83.6893 15.5706C83.666 15.5965 83.6497 15.6262 83.6415 15.6578V16.42C83.6076 16.5222 83.6076 16.6301 83.6415 16.7323C83.6415 16.7323 83.7465 16.7948 83.8514 16.7948H83.9865C84.0248 16.7983 84.0637 16.7945 84.1001 16.7837C84.1365 16.7728 84.1694 16.7553 84.1964 16.7323C84.2303 16.6301 84.2303 16.5222 84.1964 16.42V15.6578C84.1964 15.6578 84.1964 15.5579 84.0465 15.4829C84.0213 15.4756 83.9993 15.4621 83.9832 15.4443C83.9672 15.4265 83.9579 15.4052 83.9564 15.383C84.0289 15.3599 84.109 15.3599 84.1814 15.383H85.2014H85.3514L85.4414 15.458C85.4414 15.458 85.4414 15.5329 85.3364 15.5829C85.2754 15.6187 85.2327 15.6721 85.2164 15.7328V18.7438C85.1989 18.7798 85.1989 18.8202 85.2164 18.8562C85.3214 18.9312 85.3814 18.9937 85.3814 19.0186C85.3814 19.0436 85.3814 19.0186 85.3814 19.0936L85.2764 18.9187ZM87.4814 18.9187H86.7464C86.6876 18.9326 86.6252 18.9326 86.5664 18.9187C86.5598 18.9092 86.5564 18.8984 86.5564 18.8875C86.5564 18.8765 86.5598 18.8657 86.5664 18.8562C86.5698 18.8329 86.5797 18.8106 86.5953 18.7911C86.611 18.7716 86.6319 18.7553 86.6564 18.7438C86.7164 18.7128 86.7595 18.6635 86.7764 18.6064L87.6614 15.458V15.283C87.6614 15.283 87.7514 15.1956 87.8714 15.1956H88.3064C88.3596 15.1793 88.4181 15.1793 88.4714 15.1956C88.5291 15.257 88.5654 15.3305 88.5764 15.408L89.6114 18.5564C89.6169 18.5855 89.6307 18.6132 89.6516 18.6371C89.6724 18.661 89.6998 18.6804 89.7314 18.6938C89.7559 18.7054 89.7768 18.7216 89.7924 18.7411C89.808 18.7606 89.818 18.783 89.8213 18.8063C89.8213 18.8063 89.8213 18.8063 89.8213 18.8812H88.5914C88.4414 18.8812 88.3664 18.8812 88.3664 18.7938C88.3848 18.7473 88.4219 18.7076 88.4714 18.6813C88.5296 18.6434 88.5717 18.5908 88.5914 18.5314V18.394C88.5914 18.394 88.5914 18.2815 88.5914 18.269C88.5381 18.2528 88.4796 18.2528 88.4264 18.269H87.8564C87.8151 18.2661 87.7737 18.2727 87.7366 18.2882C87.6996 18.3036 87.6683 18.3272 87.6464 18.3565C87.6306 18.4225 87.6306 18.4904 87.6464 18.5564C87.6315 18.5928 87.6315 18.6324 87.6464 18.6688C87.7514 18.7438 87.7964 18.8063 87.7964 18.8312C87.7964 18.8562 87.7964 18.8312 87.7964 18.9062L87.4814 18.9187ZM88.2464 17.5569L88.0814 17.0447C88.069 16.9858 88.0318 16.9327 87.9764 16.8947C87.9764 16.8947 87.9764 16.8947 87.8564 17.0447L87.7064 17.5444V17.7818C87.7064 17.8692 87.7814 17.9192 87.9014 17.9192H88.1114C88.1356 17.9211 88.16 17.9186 88.1829 17.9118C88.2058 17.9049 88.2266 17.8939 88.2438 17.8796C88.261 17.8652 88.2742 17.8479 88.2824 17.8289C88.2906 17.8098 88.2937 17.7894 88.2914 17.7693V17.6693V17.5944L88.2464 17.5569ZM93.6463 15.1706H92.5063C92.1079 15.1848 91.7249 15.3028 91.4113 15.5079C91.1945 15.6178 91.0147 15.7718 90.8888 15.9553C90.7629 16.1389 90.6949 16.346 90.6913 16.5574C90.6924 16.7426 90.7662 16.9225 90.9013 17.0696C91.0145 17.1883 91.1515 17.2898 91.3063 17.3695C91.3168 17.3847 91.3224 17.4019 91.3224 17.4194C91.3224 17.437 91.3168 17.4542 91.3063 17.4694L90.8863 18.5689C90.8863 18.5689 90.8863 18.6313 90.7963 18.6688C90.7063 18.7063 90.6913 18.7438 90.6913 18.7813C90.6847 18.793 90.6812 18.8058 90.6812 18.8187C90.6812 18.8317 90.6847 18.8445 90.6913 18.8562H91.7413C91.7413 18.8562 91.8763 18.8562 91.9063 18.8562C91.9363 18.8562 91.9063 18.8562 91.9063 18.7938C91.9063 18.7313 91.9063 18.7188 91.8013 18.6688C91.755 18.6451 91.7184 18.6102 91.6963 18.5689V18.4564L91.9813 17.7693C91.9978 17.7087 92.023 17.65 92.0563 17.5944C92.1007 17.5854 92.147 17.5854 92.1913 17.5944C92.2256 17.5956 92.2589 17.6043 92.2879 17.6196C92.3169 17.635 92.3405 17.6565 92.3563 17.6818C92.374 17.7771 92.374 17.874 92.3563 17.9692V18.5564C92.3738 18.5924 92.3738 18.6328 92.3563 18.6688C92.2513 18.7438 92.1913 18.8063 92.1913 18.8312C92.1846 18.843 92.1812 18.8558 92.1812 18.8687C92.1812 18.8817 92.1846 18.8945 92.1913 18.9062H93.3763C93.3763 18.9062 93.5113 18.9062 93.5413 18.9062C93.5479 18.8967 93.5513 18.8859 93.5513 18.875C93.5513 18.864 93.5479 18.8532 93.5413 18.8437C93.5413 18.8437 93.5413 18.7688 93.4363 18.7313C93.3777 18.6884 93.3359 18.6318 93.3163 18.5689V15.5579C93.3163 15.5579 93.3163 15.4454 93.4663 15.383C93.4877 15.3727 93.5057 15.3583 93.5188 15.3408C93.5319 15.3234 93.5396 15.3035 93.5413 15.283C93.5413 15.2206 93.4663 15.1831 93.3163 15.1831L93.6463 15.1706ZM92.3713 15.5079C92.4082 15.5086 92.4446 15.5157 92.4781 15.5286C92.5117 15.5415 92.5417 15.5599 92.5663 15.5829C92.5987 15.6852 92.5987 15.7929 92.5663 15.8952V16.8447C92.6002 16.947 92.6002 17.0549 92.5663 17.1571C92.5439 17.1821 92.5143 17.2021 92.4802 17.2152C92.4462 17.2283 92.4087 17.2341 92.3713 17.2321C92.303 17.2318 92.2356 17.2194 92.1735 17.1957C92.1114 17.172 92.0561 17.1376 92.0113 17.0946C91.888 16.9213 91.8305 16.7209 91.8463 16.5199C91.8341 16.2549 91.9066 15.9919 92.0563 15.7578C92.1613 15.5954 92.2663 15.5079 92.3713 15.5079Z" fill="#F8EBBA"/>
</svg>
